<?xml version="1.0" encoding="UTF-8"?>
<!DOCTYPE svg PUBLIC "-//W3C//DTD SVG 1.1//EN" "http://www.w3.org/Graphics/SVG/1.1/DTD/svg11.dtd">
<svg xmlns="http://www.w3.org/2000/svg" version="1.1" width="367px" height="276px" style="shape-rendering:geometricPrecision; text-rendering:geometricPrecision; image-rendering:optimizeQuality; fill-rule:evenodd; clip-rule:evenodd" xmlns:xlink="http://www.w3.org/1999/xlink">
<g><path style="opacity:1" fill="#d3d5d9" d="M -0.5,-0.5 C 121.833,-0.5 244.167,-0.5 366.5,-0.5C 366.5,91.5 366.5,183.5 366.5,275.5C 244.167,275.5 121.833,275.5 -0.5,275.5C -0.5,183.5 -0.5,91.5 -0.5,-0.5 Z"/></g>
<g><path style="opacity:1" fill="#7f7f7f" d="M 351.5,9.5 C 350.5,10.1667 349.5,10.8333 348.5,11.5C 235.833,11.5 123.167,11.5 10.5,11.5C 10.5,94.1667 10.5,176.833 10.5,259.5C 9.83333,260.5 9.16667,261.5 8.5,262.5C 7.50066,178.002 7.16733,93.335 7.5,8.5C 122.335,8.16715 237.001,8.50049 351.5,9.5 Z"/></g>
<g><path style="opacity:1" fill="#2b2c2b" d="M 351.5,9.5 C 351.5,93.8333 351.5,178.167 351.5,262.5C 237.167,262.5 122.833,262.5 8.5,262.5C 9.16667,261.5 9.83333,260.5 10.5,259.5C 123.167,259.5 235.833,259.5 348.5,259.5C 348.5,176.833 348.5,94.1667 348.5,11.5C 349.5,10.8333 350.5,10.1667 351.5,9.5 Z"/></g>
<g><path style="opacity:1" fill="#e3e6e9" d="M 348.5,11.5 C 348.5,94.1667 348.5,176.833 348.5,259.5C 235.833,259.5 123.167,259.5 10.5,259.5C 10.5,176.833 10.5,94.1667 10.5,11.5C 123.167,11.5 235.833,11.5 348.5,11.5 Z"/></g>
<g><path style="opacity:1" fill="#2b2c2b" d="M 340.5,18.5 C 340.5,18.8333 340.5,19.1667 340.5,19.5C 233.167,19.5 125.833,19.5 18.5,19.5C 18.5,31.5 18.5,43.5 18.5,55.5C 18.1667,55.5 17.8333,55.5 17.5,55.5C 17.5,43.1667 17.5,30.8333 17.5,18.5C 125.167,18.5 232.833,18.5 340.5,18.5 Z"/></g>
<g><path style="opacity:1" fill="#e3e6e9" d="M 340.5,19.5 C 340.5,21.8333 340.5,24.1667 340.5,26.5C 338.958,25.6993 337.292,25.366 335.5,25.5C 231.001,24.5005 126.335,24.1672 21.5,24.5C 21.1736,33.3494 21.507,42.0161 22.5,50.5C 22.366,52.2915 22.6993,53.9582 23.5,55.5C 21.8333,55.5 20.1667,55.5 18.5,55.5C 18.5,43.5 18.5,31.5 18.5,19.5C 125.833,19.5 233.167,19.5 340.5,19.5 Z"/></g>
<g><path style="opacity:1" fill="#010101" d="M 335.5,25.5 C 335.5,25.8333 335.5,26.1667 335.5,26.5C 335.5,26.8333 335.5,27.1667 335.5,27.5C 336.437,35.445 336.77,43.445 336.5,51.5C 233.167,51.5 129.833,51.5 26.5,51.5C 26.1583,50.6618 25.4916,50.3284 24.5,50.5C 24.1667,50.5 23.8333,50.5 23.5,50.5C 23.1667,50.5 22.8333,50.5 22.5,50.5C 21.507,42.0161 21.1736,33.3494 21.5,24.5C 126.335,24.1672 231.001,24.5005 335.5,25.5 Z"/></g>
<g><path style="opacity:1" fill="#f9f4ec" d="M 24.5,27.5 C 127.167,27.5 229.833,27.5 332.5,27.5C 332.5,34.1667 332.5,40.8333 332.5,47.5C 229.833,47.5 127.167,47.5 24.5,47.5C 24.5,40.8333 24.5,34.1667 24.5,27.5 Z"/></g>
<g><path style="opacity:1" fill="#3f0d6c" d="M 323.5,31.5 C 324.043,31.56 324.376,31.8933 324.5,32.5C 323.787,34.7759 323.287,37.1093 323,39.5C 322.278,36.7395 322.445,34.0728 323.5,31.5 Z"/></g>
<g><path style="opacity:1" fill="#282829" d="M 335.5,27.5 C 336.496,27.4142 337.329,27.7476 338,28.5C 338.823,36.6775 338.656,44.6775 337.5,52.5C 233.665,52.8328 129.999,52.4995 26.5,51.5C 129.833,51.5 233.167,51.5 336.5,51.5C 336.77,43.445 336.437,35.445 335.5,27.5 Z"/></g>
<g><path style="opacity:1" fill="#909294" d="M 335.5,27.5 C 335.5,27.1667 335.5,26.8333 335.5,26.5C 336.822,26.33 337.989,26.6634 339,27.5C 339.816,36.4117 339.65,45.245 338.5,54C 233.833,54.6667 129.167,54.6667 24.5,54C 23.6634,52.9887 23.33,51.8221 23.5,50.5C 23.8333,50.5 24.1667,50.5 24.5,50.5C 24.4142,51.4959 24.7476,52.3292 25.5,53C 129.667,53.8325 233.667,53.6659 337.5,52.5C 338.656,44.6775 338.823,36.6775 338,28.5C 337.329,27.7476 336.496,27.4142 335.5,27.5 Z"/></g>
<g><path style="opacity:1" fill="#bfc2c4" d="M 335.5,26.5 C 335.5,26.1667 335.5,25.8333 335.5,25.5C 337.292,25.366 338.958,25.6993 340.5,26.5C 340.5,36.1667 340.5,45.8333 340.5,55.5C 234.833,55.5 129.167,55.5 23.5,55.5C 22.6993,53.9582 22.366,52.2915 22.5,50.5C 22.8333,50.5 23.1667,50.5 23.5,50.5C 23.33,51.8221 23.6634,52.9887 24.5,54C 129.167,54.6667 233.833,54.6667 338.5,54C 339.65,45.245 339.816,36.4117 339,27.5C 337.989,26.6634 336.822,26.33 335.5,26.5 Z"/></g>
<g><path style="opacity:1" fill="#545557" d="M 24.5,50.5 C 25.4916,50.3284 26.1583,50.6618 26.5,51.5C 129.999,52.4995 233.665,52.8328 337.5,52.5C 233.667,53.6659 129.667,53.8325 25.5,53C 24.7476,52.3292 24.4142,51.4959 24.5,50.5 Z"/></g>
<g><path style="opacity:1" fill="#7a7a7a" d="M 340.5,18.5 C 341.495,30.989 341.829,43.6557 341.5,56.5C 233.332,56.8328 125.332,56.4995 17.5,55.5C 17.8333,55.5 18.1667,55.5 18.5,55.5C 20.1667,55.5 21.8333,55.5 23.5,55.5C 129.167,55.5 234.833,55.5 340.5,55.5C 340.5,45.8333 340.5,36.1667 340.5,26.5C 340.5,24.1667 340.5,21.8333 340.5,19.5C 340.5,19.1667 340.5,18.8333 340.5,18.5 Z"/></g>
<g><path style="opacity:1" fill="#2b2c2b" d="M 79.5,58.5 C 79.5,58.8333 79.5,59.1667 79.5,59.5C 59.1667,59.5 38.8333,59.5 18.5,59.5C 18.5,74.5 18.5,89.5 18.5,104.5C 18.1667,104.5 17.8333,104.5 17.5,104.5C 17.5,89.1667 17.5,73.8333 17.5,58.5C 38.1667,58.5 58.8333,58.5 79.5,58.5 Z"/></g>
<g><path style="opacity:1" fill="#2b2c2b" d="M 144.5,58.5 C 144.5,58.8333 144.5,59.1667 144.5,59.5C 124.167,59.5 103.833,59.5 83.5,59.5C 83.5,74.5 83.5,89.5 83.5,104.5C 83.1667,104.5 82.8333,104.5 82.5,104.5C 82.5,89.1667 82.5,73.8333 82.5,58.5C 103.167,58.5 123.833,58.5 144.5,58.5 Z"/></g>
<g><path style="opacity:1" fill="#2b2c2b" d="M 213.5,58.5 C 213.5,58.8333 213.5,59.1667 213.5,59.5C 191.833,59.5 170.167,59.5 148.5,59.5C 148.5,74.5 148.5,89.5 148.5,104.5C 148.167,104.5 147.833,104.5 147.5,104.5C 147.5,89.1667 147.5,73.8333 147.5,58.5C 169.5,58.5 191.5,58.5 213.5,58.5 Z"/></g>
<g><path style="opacity:1" fill="#2b2c2b" d="M 279.5,58.5 C 279.5,58.8333 279.5,59.1667 279.5,59.5C 258.833,59.5 238.167,59.5 217.5,59.5C 217.5,74.5 217.5,89.5 217.5,104.5C 217.167,104.5 216.833,104.5 216.5,104.5C 216.5,89.1667 216.5,73.8333 216.5,58.5C 237.5,58.5 258.5,58.5 279.5,58.5 Z"/></g>
<g><path style="opacity:1" fill="#2b2c2b" d="M 340.5,58.5 C 340.5,58.8333 340.5,59.1667 340.5,59.5C 321.5,59.5 302.5,59.5 283.5,59.5C 283.5,74.5 283.5,89.5 283.5,104.5C 283.167,104.5 282.833,104.5 282.5,104.5C 282.5,89.1667 282.5,73.8333 282.5,58.5C 301.833,58.5 321.167,58.5 340.5,58.5 Z"/></g>
<g><path style="opacity:1" fill="#dee1e4" d="M 79.5,59.5 C 79.5,74.5 79.5,89.5 79.5,104.5C 59.1667,104.5 38.8333,104.5 18.5,104.5C 18.5,89.5 18.5,74.5 18.5,59.5C 38.8333,59.5 59.1667,59.5 79.5,59.5 Z"/></g>
<g><path style="opacity:1" fill="#dee1e4" d="M 144.5,59.5 C 144.5,74.5 144.5,89.5 144.5,104.5C 124.167,104.5 103.833,104.5 83.5,104.5C 83.5,89.5 83.5,74.5 83.5,59.5C 103.833,59.5 124.167,59.5 144.5,59.5 Z"/></g>
<g><path style="opacity:1" fill="#dfe2e5" d="M 213.5,59.5 C 213.5,74.5 213.5,89.5 213.5,104.5C 191.833,104.5 170.167,104.5 148.5,104.5C 148.5,89.5 148.5,74.5 148.5,59.5C 170.167,59.5 191.833,59.5 213.5,59.5 Z"/></g>
<g><path style="opacity:1" fill="#dfe2e5" d="M 279.5,59.5 C 279.5,74.5 279.5,89.5 279.5,104.5C 258.833,104.5 238.167,104.5 217.5,104.5C 217.5,89.5 217.5,74.5 217.5,59.5C 238.167,59.5 258.833,59.5 279.5,59.5 Z"/></g>
<g><path style="opacity:1" fill="#dfe2e5" d="M 340.5,59.5 C 340.5,74.5 340.5,89.5 340.5,104.5C 321.5,104.5 302.5,104.5 283.5,104.5C 283.5,89.5 283.5,74.5 283.5,59.5C 302.5,59.5 321.5,59.5 340.5,59.5 Z"/></g>
<g><path style="opacity:1" fill="#fefdfc" d="M 74.5,66.5 C 74.5,66.8333 74.5,67.1667 74.5,67.5C 74.5,68.1667 74.5,68.8333 74.5,69.5C 74.5,79.5 74.5,89.5 74.5,99.5C 59.1667,99.5 43.8333,99.5 28.5,99.5C 27.8333,99.5 27.1667,99.5 26.5,99.5C 26.1667,99.5 25.8333,99.5 25.5,99.5C 23.5216,88.2146 22.8549,76.5479 23.5,64.5C 40.8662,63.8476 57.8662,64.5142 74.5,66.5 Z"/></g>
<g><path style="opacity:1" fill="#fdfdfd" d="M 139.5,66.5 C 139.5,66.8333 139.5,67.1667 139.5,67.5C 139.5,68.1667 139.5,68.8333 139.5,69.5C 139.5,79.5 139.5,89.5 139.5,99.5C 124.167,99.5 108.833,99.5 93.5,99.5C 92.8333,99.5 92.1667,99.5 91.5,99.5C 91.1667,99.5 90.8333,99.5 90.5,99.5C 88.5216,88.2146 87.8549,76.5479 88.5,64.5C 105.866,63.8476 122.866,64.5142 139.5,66.5 Z"/></g>
<g><path style="opacity:1" fill="#fefefd" d="M 204.5,66.5 C 204.5,66.8333 204.5,67.1667 204.5,67.5C 204.5,68.1667 204.5,68.8333 204.5,69.5C 204.5,79.5 204.5,89.5 204.5,99.5C 189.167,99.5 173.833,99.5 158.5,99.5C 157.833,99.5 157.167,99.5 156.5,99.5C 156.167,99.5 155.833,99.5 155.5,99.5C 153.522,88.2146 152.855,76.5479 153.5,64.5C 170.866,63.8476 187.866,64.5142 204.5,66.5 Z"/></g>
<g><path style="opacity:1" fill="#fefefd" d="M 273.5,66.5 C 273.5,66.8333 273.5,67.1667 273.5,67.5C 273.5,68.1667 273.5,68.8333 273.5,69.5C 273.5,79.5 273.5,89.5 273.5,99.5C 258.167,99.5 242.833,99.5 227.5,99.5C 226.833,99.5 226.167,99.5 225.5,99.5C 225.167,99.5 224.833,99.5 224.5,99.5C 222.522,88.2146 221.855,76.5479 222.5,64.5C 239.866,63.8476 256.866,64.5142 273.5,66.5 Z"/></g>
<g><path style="opacity:1" fill="#fefefe" d="M 334.5,66.5 C 334.5,66.8333 334.5,67.1667 334.5,67.5C 334.5,68.1667 334.5,68.8333 334.5,69.5C 334.5,79.5 334.5,89.5 334.5,99.5C 320.833,99.5 307.167,99.5 293.5,99.5C 292.833,99.5 292.167,99.5 291.5,99.5C 291.167,99.5 290.833,99.5 290.5,99.5C 288.522,88.2146 287.855,76.5479 288.5,64.5C 304.203,63.8493 319.536,64.5159 334.5,66.5 Z"/></g>
<g><path style="opacity:1" fill="#1a0727" d="M 49.5,73.5 C 50.8086,75.5706 51.4752,78.0706 51.5,81C 51.1667,83.5 50.8333,86 50.5,88.5C 49.8333,85.1667 49.1667,81.8333 48.5,78.5C 47.3914,79.5896 46.3914,79.5896 45.5,78.5C 46.8569,76.8144 48.1902,75.1477 49.5,73.5 Z"/></g>
<g><path style="opacity:1" fill="#140410" d="M 112.5,73.5 C 117.494,73.329 119.328,75.6624 118,80.5C 116.878,82.6238 115.378,84.4571 113.5,86C 115.256,86.2022 116.922,86.7022 118.5,87.5C 108.005,89.7266 107.172,87.0599 116,79.5C 116.49,78.2068 116.657,76.8734 116.5,75.5C 114.508,75.3285 112.842,75.9951 111.5,77.5C 111.167,77 110.833,76.5 110.5,76C 111.056,74.9889 111.722,74.1556 112.5,73.5 Z"/></g>
<g><path style="opacity:1" fill="#251523" d="M 177.5,73.5 C 183.067,73.5161 184.401,75.6828 181.5,80C 184.167,82.6667 184.167,85.3333 181.5,88C 178.962,88.8672 176.962,88.2005 175.5,86C 175.833,85.5 176.167,85 176.5,84.5C 177.85,85.9501 179.516,86.6168 181.5,86.5C 181.978,83.7224 180.978,81.7224 178.5,80.5C 180.005,79.1585 180.672,77.4918 180.5,75.5C 178.857,75.4802 177.524,76.1468 176.5,77.5C 176.167,77 175.833,76.5 175.5,76C 176.056,74.9889 176.722,74.1556 177.5,73.5 Z"/></g>
<g><path style="opacity:1" fill="#0f131e" d="M 247.5,75.5 C 249.176,76.1834 249.843,77.5168 249.5,79.5C 250.5,79.5 251.5,79.5 252.5,79.5C 252.5,80.5 252.5,81.5 252.5,82.5C 251.5,82.5 250.5,82.5 249.5,82.5C 248.833,87.8333 248.167,87.8333 247.5,82.5C 246.167,82.5 244.833,82.5 243.5,82.5C 243.5,81.5 243.5,80.5 243.5,79.5C 244.833,79.5 246.167,79.5 247.5,79.5C 247.5,78.1667 247.5,76.8333 247.5,75.5 Z"/></g>
<g><path style="opacity:1" fill="#1e0900" d="M 309.5,81.5 C 311.167,81.5 312.833,81.5 314.5,81.5C 314.5,82.5 314.5,83.5 314.5,84.5C 312.833,84.5 311.167,84.5 309.5,84.5C 309.5,83.5 309.5,82.5 309.5,81.5 Z"/></g>
<g><path style="opacity:1" fill="#0b0b0b" d="M 74.5,69.5 C 75.4942,79.6532 75.8276,89.9865 75.5,100.5C 59.6578,100.83 43.9911,100.496 28.5,99.5C 43.8333,99.5 59.1667,99.5 74.5,99.5C 74.5,89.5 74.5,79.5 74.5,69.5 Z"/></g>
<g><path style="opacity:1" fill="#0b0b0b" d="M 139.5,69.5 C 140.494,79.6532 140.828,89.9865 140.5,100.5C 124.658,100.83 108.991,100.496 93.5,99.5C 108.833,99.5 124.167,99.5 139.5,99.5C 139.5,89.5 139.5,79.5 139.5,69.5 Z"/></g>
<g><path style="opacity:1" fill="#0b0b0b" d="M 204.5,69.5 C 205.494,79.6532 205.828,89.9865 205.5,100.5C 189.658,100.83 173.991,100.496 158.5,99.5C 173.833,99.5 189.167,99.5 204.5,99.5C 204.5,89.5 204.5,79.5 204.5,69.5 Z"/></g>
<g><path style="opacity:1" fill="#0b0b0b" d="M 273.5,69.5 C 274.494,79.6532 274.828,89.9865 274.5,100.5C 258.658,100.83 242.991,100.496 227.5,99.5C 242.833,99.5 258.167,99.5 273.5,99.5C 273.5,89.5 273.5,79.5 273.5,69.5 Z"/></g>
<g><path style="opacity:1" fill="#0b0b0b" d="M 334.5,69.5 C 335.494,79.6532 335.828,89.9865 335.5,100.5C 321.323,100.829 307.323,100.496 293.5,99.5C 307.167,99.5 320.833,99.5 334.5,99.5C 334.5,89.5 334.5,79.5 334.5,69.5 Z"/></g>
<g><path style="opacity:1" fill="#38393a" d="M 74.5,67.5 C 75.4959,67.4142 76.3292,67.7476 77,68.5C 77.82,79.7431 77.6533,90.9098 76.5,102C 60.1667,102.667 43.8333,102.667 27.5,102C 26.7476,101.329 26.4142,100.496 26.5,99.5C 27.1667,99.5 27.8333,99.5 28.5,99.5C 43.9911,100.496 59.6578,100.83 75.5,100.5C 75.8276,89.9865 75.4942,79.6532 74.5,69.5C 74.5,68.8333 74.5,68.1667 74.5,67.5 Z"/></g>
<g><path style="opacity:1" fill="#38393a" d="M 139.5,67.5 C 140.496,67.4142 141.329,67.7476 142,68.5C 142.82,79.7431 142.653,90.9098 141.5,102C 125.167,102.667 108.833,102.667 92.5,102C 91.7476,101.329 91.4142,100.496 91.5,99.5C 92.1667,99.5 92.8333,99.5 93.5,99.5C 108.991,100.496 124.658,100.83 140.5,100.5C 140.828,89.9865 140.494,79.6532 139.5,69.5C 139.5,68.8333 139.5,68.1667 139.5,67.5 Z"/></g>
<g><path style="opacity:1" fill="#38393a" d="M 204.5,67.5 C 205.496,67.4142 206.329,67.7476 207,68.5C 207.82,79.7431 207.653,90.9098 206.5,102C 190.167,102.667 173.833,102.667 157.5,102C 156.748,101.329 156.414,100.496 156.5,99.5C 157.167,99.5 157.833,99.5 158.5,99.5C 173.991,100.496 189.658,100.83 205.5,100.5C 205.828,89.9865 205.494,79.6532 204.5,69.5C 204.5,68.8333 204.5,68.1667 204.5,67.5 Z"/></g>
<g><path style="opacity:1" fill="#38393a" d="M 273.5,67.5 C 274.496,67.4142 275.329,67.7476 276,68.5C 276.82,79.7431 276.653,90.9098 275.5,102C 259.167,102.667 242.833,102.667 226.5,102C 225.748,101.329 225.414,100.496 225.5,99.5C 226.167,99.5 226.833,99.5 227.5,99.5C 242.991,100.496 258.658,100.83 274.5,100.5C 274.828,89.9865 274.494,79.6532 273.5,69.5C 273.5,68.8333 273.5,68.1667 273.5,67.5 Z"/></g>
<g><path style="opacity:1" fill="#38393a" d="M 334.5,67.5 C 335.496,67.4142 336.329,67.7476 337,68.5C 337.82,79.7431 337.653,90.9098 336.5,102C 321.833,102.667 307.167,102.667 292.5,102C 291.748,101.329 291.414,100.496 291.5,99.5C 292.167,99.5 292.833,99.5 293.5,99.5C 307.323,100.496 321.323,100.829 335.5,100.5C 335.828,89.9865 335.494,79.6532 334.5,69.5C 334.5,68.8333 334.5,68.1667 334.5,67.5 Z"/></g>
<g><path style="opacity:1" fill="#929496" d="M 74.5,67.5 C 74.5,67.1667 74.5,66.8333 74.5,66.5C 75.8221,66.33 76.9887,66.6634 78,67.5C 78.8207,79.4093 78.6541,91.2427 77.5,103C 60.5,103.667 43.5,103.667 26.5,103C 25.6634,101.989 25.33,100.822 25.5,99.5C 25.8333,99.5 26.1667,99.5 26.5,99.5C 26.4142,100.496 26.7476,101.329 27.5,102C 43.8333,102.667 60.1667,102.667 76.5,102C 77.6533,90.9098 77.82,79.7431 77,68.5C 76.3292,67.7476 75.4959,67.4142 74.5,67.5 Z"/></g>
<g><path style="opacity:1" fill="#929496" d="M 139.5,67.5 C 139.5,67.1667 139.5,66.8333 139.5,66.5C 140.822,66.33 141.989,66.6634 143,67.5C 143.821,79.4093 143.654,91.2427 142.5,103C 125.5,103.667 108.5,103.667 91.5,103C 90.6634,101.989 90.33,100.822 90.5,99.5C 90.8333,99.5 91.1667,99.5 91.5,99.5C 91.4142,100.496 91.7476,101.329 92.5,102C 108.833,102.667 125.167,102.667 141.5,102C 142.653,90.9098 142.82,79.7431 142,68.5C 141.329,67.7476 140.496,67.4142 139.5,67.5 Z"/></g>
<g><path style="opacity:1" fill="#929496" d="M 204.5,67.5 C 204.5,67.1667 204.5,66.8333 204.5,66.5C 205.822,66.33 206.989,66.6634 208,67.5C 208.821,79.4093 208.654,91.2427 207.5,103C 190.5,103.667 173.5,103.667 156.5,103C 155.663,101.989 155.33,100.822 155.5,99.5C 155.833,99.5 156.167,99.5 156.5,99.5C 156.414,100.496 156.748,101.329 157.5,102C 173.833,102.667 190.167,102.667 206.5,102C 207.653,90.9098 207.82,79.7431 207,68.5C 206.329,67.7476 205.496,67.4142 204.5,67.5 Z"/></g>
<g><path style="opacity:1" fill="#929496" d="M 273.5,67.5 C 273.5,67.1667 273.5,66.8333 273.5,66.5C 274.822,66.33 275.989,66.6634 277,67.5C 277.821,79.4093 277.654,91.2427 276.5,103C 259.5,103.667 242.5,103.667 225.5,103C 224.663,101.989 224.33,100.822 224.5,99.5C 224.833,99.5 225.167,99.5 225.5,99.5C 225.414,100.496 225.748,101.329 226.5,102C 242.833,102.667 259.167,102.667 275.5,102C 276.653,90.9098 276.82,79.7431 276,68.5C 275.329,67.7476 274.496,67.4142 273.5,67.5 Z"/></g>
<g><path style="opacity:1" fill="#929496" d="M 334.5,67.5 C 334.5,67.1667 334.5,66.8333 334.5,66.5C 335.822,66.33 336.989,66.6634 338,67.5C 338.821,79.4093 338.654,91.2427 337.5,103C 322.167,103.667 306.833,103.667 291.5,103C 290.663,101.989 290.33,100.822 290.5,99.5C 290.833,99.5 291.167,99.5 291.5,99.5C 291.414,100.496 291.748,101.329 292.5,102C 307.167,102.667 321.833,102.667 336.5,102C 337.653,90.9098 337.82,79.7431 337,68.5C 336.329,67.7476 335.496,67.4142 334.5,67.5 Z"/></g>
<g><path style="opacity:1" fill="#7a7a7a" d="M 79.5,58.5 C 80.4963,73.9911 80.8296,89.6578 80.5,105.5C 59.3267,105.831 38.3267,105.497 17.5,104.5C 17.8333,104.5 18.1667,104.5 18.5,104.5C 38.8333,104.5 59.1667,104.5 79.5,104.5C 79.5,89.5 79.5,74.5 79.5,59.5C 79.5,59.1667 79.5,58.8333 79.5,58.5 Z"/></g>
<g><path style="opacity:1" fill="#7a7a7a" d="M 144.5,58.5 C 145.496,73.9911 145.83,89.6578 145.5,105.5C 124.327,105.831 103.327,105.497 82.5,104.5C 82.8333,104.5 83.1667,104.5 83.5,104.5C 103.833,104.5 124.167,104.5 144.5,104.5C 144.5,89.5 144.5,74.5 144.5,59.5C 144.5,59.1667 144.5,58.8333 144.5,58.5 Z"/></g>
<g><path style="opacity:1" fill="#7b7b7b" d="M 213.5,58.5 C 214.496,73.9911 214.83,89.6578 214.5,105.5C 191.994,105.831 169.66,105.497 147.5,104.5C 147.833,104.5 148.167,104.5 148.5,104.5C 170.167,104.5 191.833,104.5 213.5,104.5C 213.5,89.5 213.5,74.5 213.5,59.5C 213.5,59.1667 213.5,58.8333 213.5,58.5 Z"/></g>
<g><path style="opacity:1" fill="#7b7b7b" d="M 279.5,58.5 C 280.496,73.9911 280.83,89.6578 280.5,105.5C 258.993,105.831 237.66,105.497 216.5,104.5C 216.833,104.5 217.167,104.5 217.5,104.5C 238.167,104.5 258.833,104.5 279.5,104.5C 279.5,89.5 279.5,74.5 279.5,59.5C 279.5,59.1667 279.5,58.8333 279.5,58.5 Z"/></g>
<g><path style="opacity:1" fill="#7b7b7b" d="M 340.5,58.5 C 341.496,73.9911 341.83,89.6578 341.5,105.5C 321.66,105.83 301.993,105.497 282.5,104.5C 282.833,104.5 283.167,104.5 283.5,104.5C 302.5,104.5 321.5,104.5 340.5,104.5C 340.5,89.5 340.5,74.5 340.5,59.5C 340.5,59.1667 340.5,58.8333 340.5,58.5 Z"/></g>
<g><path style="opacity:1" fill="#2b2c2b" d="M 79.5,107.5 C 79.5,107.833 79.5,108.167 79.5,108.5C 59.1667,108.5 38.8333,108.5 18.5,108.5C 18.5,123.5 18.5,138.5 18.5,153.5C 18.1667,153.5 17.8333,153.5 17.5,153.5C 17.5,138.167 17.5,122.833 17.5,107.5C 38.1667,107.5 58.8333,107.5 79.5,107.5 Z"/></g>
<g><path style="opacity:1" fill="#2b2c2b" d="M 144.5,107.5 C 144.5,107.833 144.5,108.167 144.5,108.5C 124.167,108.5 103.833,108.5 83.5,108.5C 83.5,123.5 83.5,138.5 83.5,153.5C 83.1667,153.5 82.8333,153.5 82.5,153.5C 82.5,138.167 82.5,122.833 82.5,107.5C 103.167,107.5 123.833,107.5 144.5,107.5 Z"/></g>
<g><path style="opacity:1" fill="#2b2c2b" d="M 213.5,107.5 C 213.5,107.833 213.5,108.167 213.5,108.5C 191.833,108.5 170.167,108.5 148.5,108.5C 148.5,123.5 148.5,138.5 148.5,153.5C 148.167,153.5 147.833,153.5 147.5,153.5C 147.5,138.167 147.5,122.833 147.5,107.5C 169.5,107.5 191.5,107.5 213.5,107.5 Z"/></g>
<g><path style="opacity:1" fill="#2b2c2b" d="M 279.5,107.5 C 279.5,107.833 279.5,108.167 279.5,108.5C 258.833,108.5 238.167,108.5 217.5,108.5C 217.5,123.5 217.5,138.5 217.5,153.5C 217.167,153.5 216.833,153.5 216.5,153.5C 216.5,138.167 216.5,122.833 216.5,107.5C 237.5,107.5 258.5,107.5 279.5,107.5 Z"/></g>
<g><path style="opacity:1" fill="#2b2c2b" d="M 340.5,107.5 C 340.5,107.833 340.5,108.167 340.5,108.5C 321.5,108.5 302.5,108.5 283.5,108.5C 283.5,123.5 283.5,138.5 283.5,153.5C 283.167,153.5 282.833,153.5 282.5,153.5C 282.5,138.167 282.5,122.833 282.5,107.5C 301.833,107.5 321.167,107.5 340.5,107.5 Z"/></g>
<g><path style="opacity:1" fill="#dee1e4" d="M 79.5,108.5 C 79.5,123.5 79.5,138.5 79.5,153.5C 59.1667,153.5 38.8333,153.5 18.5,153.5C 18.5,138.5 18.5,123.5 18.5,108.5C 38.8333,108.5 59.1667,108.5 79.5,108.5 Z"/></g>
<g><path style="opacity:1" fill="#dee1e4" d="M 144.5,108.5 C 144.5,123.5 144.5,138.5 144.5,153.5C 124.167,153.5 103.833,153.5 83.5,153.5C 83.5,138.5 83.5,123.5 83.5,108.5C 103.833,108.5 124.167,108.5 144.5,108.5 Z"/></g>
<g><path style="opacity:1" fill="#dfe2e5" d="M 213.5,108.5 C 213.5,123.5 213.5,138.5 213.5,153.5C 191.833,153.5 170.167,153.5 148.5,153.5C 148.5,138.5 148.5,123.5 148.5,108.5C 170.167,108.5 191.833,108.5 213.5,108.5 Z"/></g>
<g><path style="opacity:1" fill="#dfe2e5" d="M 279.5,108.5 C 279.5,123.5 279.5,138.5 279.5,153.5C 258.833,153.5 238.167,153.5 217.5,153.5C 217.5,138.5 217.5,123.5 217.5,108.5C 238.167,108.5 258.833,108.5 279.5,108.5 Z"/></g>
<g><path style="opacity:1" fill="#dee1e4" d="M 340.5,108.5 C 340.5,123.5 340.5,138.5 340.5,153.5C 321.5,153.5 302.5,153.5 283.5,153.5C 283.5,138.5 283.5,123.5 283.5,108.5C 302.5,108.5 321.5,108.5 340.5,108.5 Z"/></g>
<g><path style="opacity:1" fill="#fefefd" d="M 74.5,115.5 C 74.5,115.833 74.5,116.167 74.5,116.5C 74.5,117.167 74.5,117.833 74.5,118.5C 74.5,128.5 74.5,138.5 74.5,148.5C 59.1667,148.5 43.8333,148.5 28.5,148.5C 27.8333,148.5 27.1667,148.5 26.5,148.5C 26.1667,148.5 25.8333,148.5 25.5,148.5C 23.5216,137.215 22.8549,125.548 23.5,113.5C 40.8662,112.848 57.8662,113.514 74.5,115.5 Z"/></g>
<g><path style="opacity:1" fill="#fdfdfd" d="M 139.5,115.5 C 139.5,115.833 139.5,116.167 139.5,116.5C 139.5,117.167 139.5,117.833 139.5,118.5C 139.5,128.5 139.5,138.5 139.5,148.5C 124.167,148.5 108.833,148.5 93.5,148.5C 92.8333,148.5 92.1667,148.5 91.5,148.5C 91.1667,148.5 90.8333,148.5 90.5,148.5C 88.5216,137.215 87.8549,125.548 88.5,113.5C 105.866,112.848 122.866,113.514 139.5,115.5 Z"/></g>
<g><path style="opacity:1" fill="#fdfdfd" d="M 204.5,115.5 C 204.5,115.833 204.5,116.167 204.5,116.5C 204.5,117.167 204.5,117.833 204.5,118.5C 204.5,128.5 204.5,138.5 204.5,148.5C 189.167,148.5 173.833,148.5 158.5,148.5C 157.833,148.5 157.167,148.5 156.5,148.5C 156.167,148.5 155.833,148.5 155.5,148.5C 153.522,137.215 152.855,125.548 153.5,113.5C 170.866,112.848 187.866,113.514 204.5,115.5 Z"/></g>
<g><path style="opacity:1" fill="#fefdfd" d="M 270.5,115.5 C 270.5,115.833 270.5,116.167 270.5,116.5C 270.5,117.167 270.5,117.833 270.5,118.5C 270.5,128.5 270.5,138.5 270.5,148.5C 256.167,148.5 241.833,148.5 227.5,148.5C 226.833,148.5 226.167,148.5 225.5,148.5C 225.167,148.5 224.833,148.5 224.5,148.5C 222.522,137.215 221.855,125.548 222.5,113.5C 238.868,112.849 254.868,113.515 270.5,115.5 Z"/></g>
<g><path style="opacity:1" fill="#fefefe" d="M 333.5,115.5 C 333.5,115.833 333.5,116.167 333.5,116.5C 333.5,117.167 333.5,117.833 333.5,118.5C 333.5,128.5 333.5,138.5 333.5,148.5C 320.167,148.5 306.833,148.5 293.5,148.5C 292.833,148.5 292.167,148.5 291.5,148.5C 291.167,148.5 290.833,148.5 290.5,148.5C 288.522,137.215 287.855,125.548 288.5,113.5C 303.871,112.85 318.871,113.516 333.5,115.5 Z"/></g>
<g><path style="opacity:1" fill="#2b1b24" d="M 47.5,128.5 C 47.4467,124.862 49.1134,122.862 52.5,122.5C 52.8544,127.605 52.8544,132.605 52.5,137.5C 51.5,137.5 50.5,137.5 49.5,137.5C 49.5,136.5 49.5,135.5 49.5,134.5C 47.8333,134.5 46.1667,134.5 44.5,134.5C 44.461,131.911 45.461,129.911 47.5,128.5 Z"/></g>
<g><path style="opacity:1" fill="#190916" d="M 111.5,122.5 C 113.924,122.192 116.257,122.526 118.5,123.5C 116.955,124.452 115.288,124.785 113.5,124.5C 113.5,125.5 113.5,126.5 113.5,127.5C 114.93,127.421 116.264,127.754 117.5,128.5C 120.166,135.143 118.166,137.81 111.5,136.5C 110.167,135.5 110.167,134.5 111.5,133.5C 115.745,136.289 117.411,134.956 116.5,129.5C 114.326,129.92 112.326,129.92 110.5,129.5C 111.374,127.253 111.708,124.92 111.5,122.5 Z"/></g>
<g><path style="opacity:1" fill="#1b0a16" d="M 177.5,122.5 C 180.022,122.128 182.022,122.961 183.5,125C 182.975,125.692 182.308,126.192 181.5,126.5C 180.476,125.147 179.143,124.48 177.5,124.5C 177.343,125.873 177.51,127.207 178,128.5C 181.526,127.168 183.359,128.501 183.5,132.5C 182.643,137.671 180.143,138.671 176,135.5C 174.978,130.871 175.478,126.538 177.5,122.5 Z"/></g>
<g><path style="opacity:1" fill="#201929" d="M 245.5,122.5 C 246.158,123.398 246.824,124.398 247.5,125.5C 248.396,124.494 249.062,124.494 249.5,125.5C 248.122,127.213 246.455,128.547 244.5,129.5C 244.446,128.47 244.112,127.303 243.5,126C 244.973,125.29 245.64,124.124 245.5,122.5 Z"/></g>
<g><path style="opacity:1" fill="#daebe8" d="M 47.5,128.5 C 48.1174,128.389 48.6174,128.056 49,127.5C 49.4935,129.134 49.6602,130.801 49.5,132.5C 48.325,132.719 47.325,132.386 46.5,131.5C 47.1272,130.583 47.4606,129.583 47.5,128.5 Z"/></g>
<g><path style="opacity:1" fill="#e6dfd5" d="M 177.5,129.5 C 178.833,129.5 180.167,129.5 181.5,129.5C 181.5,131.5 181.5,133.5 181.5,135.5C 177.932,135.241 176.599,133.241 177.5,129.5 Z"/></g>
<g><path style="opacity:1" fill="#4d364c" d="M 311.5,122.5 C 312.586,122.62 313.253,123.287 313.5,124.5C 312.603,128.486 311.769,132.486 311,136.5C 309.658,137.902 308.824,137.569 308.5,135.5C 310.126,131.294 311.126,126.96 311.5,122.5 Z"/></g>
<g><path style="opacity:1" fill="#0b0b0b" d="M 74.5,118.5 C 75.4942,128.653 75.8276,138.986 75.5,149.5C 59.6578,149.83 43.9911,149.496 28.5,148.5C 43.8333,148.5 59.1667,148.5 74.5,148.5C 74.5,138.5 74.5,128.5 74.5,118.5 Z"/></g>
<g><path style="opacity:1" fill="#0b0b0b" d="M 139.5,118.5 C 140.494,128.653 140.828,138.986 140.5,149.5C 124.658,149.83 108.991,149.496 93.5,148.5C 108.833,148.5 124.167,148.5 139.5,148.5C 139.5,138.5 139.5,128.5 139.5,118.5 Z"/></g>
<g><path style="opacity:1" fill="#0b0b0b" d="M 204.5,118.5 C 205.494,128.653 205.828,138.986 205.5,149.5C 189.658,149.83 173.991,149.496 158.5,148.5C 173.833,148.5 189.167,148.5 204.5,148.5C 204.5,138.5 204.5,128.5 204.5,118.5 Z"/></g>
<g><path style="opacity:1" fill="#0b0b0b" d="M 270.5,118.5 C 271.494,128.653 271.828,138.986 271.5,149.5C 256.657,149.829 241.99,149.496 227.5,148.5C 241.833,148.5 256.167,148.5 270.5,148.5C 270.5,138.5 270.5,128.5 270.5,118.5 Z"/></g>
<g><path style="opacity:1" fill="#0b0b0b" d="M 333.5,118.5 C 334.494,128.653 334.828,138.986 334.5,149.5C 320.656,149.829 306.99,149.496 293.5,148.5C 306.833,148.5 320.167,148.5 333.5,148.5C 333.5,138.5 333.5,128.5 333.5,118.5 Z"/></g>
<g><path style="opacity:1" fill="#38393a" d="M 74.5,116.5 C 75.4959,116.414 76.3292,116.748 77,117.5C 77.82,128.743 77.6533,139.91 76.5,151C 60.1667,151.667 43.8333,151.667 27.5,151C 26.7476,150.329 26.4142,149.496 26.5,148.5C 27.1667,148.5 27.8333,148.5 28.5,148.5C 43.9911,149.496 59.6578,149.83 75.5,149.5C 75.8276,138.986 75.4942,128.653 74.5,118.5C 74.5,117.833 74.5,117.167 74.5,116.5 Z"/></g>
<g><path style="opacity:1" fill="#38393a" d="M 139.5,116.5 C 140.496,116.414 141.329,116.748 142,117.5C 142.82,128.743 142.653,139.91 141.5,151C 125.167,151.667 108.833,151.667 92.5,151C 91.7476,150.329 91.4142,149.496 91.5,148.5C 92.1667,148.5 92.8333,148.5 93.5,148.5C 108.991,149.496 124.658,149.83 140.5,149.5C 140.828,138.986 140.494,128.653 139.5,118.5C 139.5,117.833 139.5,117.167 139.5,116.5 Z"/></g>
<g><path style="opacity:1" fill="#38393a" d="M 204.5,116.5 C 205.496,116.414 206.329,116.748 207,117.5C 207.82,128.743 207.653,139.91 206.5,151C 190.167,151.667 173.833,151.667 157.5,151C 156.748,150.329 156.414,149.496 156.5,148.5C 157.167,148.5 157.833,148.5 158.5,148.5C 173.991,149.496 189.658,149.83 205.5,149.5C 205.828,138.986 205.494,128.653 204.5,118.5C 204.5,117.833 204.5,117.167 204.5,116.5 Z"/></g>
<g><path style="opacity:1" fill="#38393a" d="M 270.5,116.5 C 271.496,116.414 272.329,116.748 273,117.5C 273.82,128.743 273.653,139.91 272.5,151C 257.167,151.667 241.833,151.667 226.5,151C 225.748,150.329 225.414,149.496 225.5,148.5C 226.167,148.5 226.833,148.5 227.5,148.5C 241.99,149.496 256.657,149.829 271.5,149.5C 271.828,138.986 271.494,128.653 270.5,118.5C 270.5,117.833 270.5,117.167 270.5,116.5 Z"/></g>
<g><path style="opacity:1" fill="#38393a" d="M 333.5,116.5 C 334.496,116.414 335.329,116.748 336,117.5C 336.82,128.743 336.653,139.91 335.5,151C 321.167,151.667 306.833,151.667 292.5,151C 291.748,150.329 291.414,149.496 291.5,148.5C 292.167,148.5 292.833,148.5 293.5,148.5C 306.99,149.496 320.656,149.829 334.5,149.5C 334.828,138.986 334.494,128.653 333.5,118.5C 333.5,117.833 333.5,117.167 333.5,116.5 Z"/></g>
<g><path style="opacity:1" fill="#929496" d="M 74.5,116.5 C 74.5,116.167 74.5,115.833 74.5,115.5C 75.8221,115.33 76.9887,115.663 78,116.5C 78.8207,128.409 78.6541,140.243 77.5,152C 60.5,152.667 43.5,152.667 26.5,152C 25.6634,150.989 25.33,149.822 25.5,148.5C 25.8333,148.5 26.1667,148.5 26.5,148.5C 26.4142,149.496 26.7476,150.329 27.5,151C 43.8333,151.667 60.1667,151.667 76.5,151C 77.6533,139.91 77.82,128.743 77,117.5C 76.3292,116.748 75.4959,116.414 74.5,116.5 Z"/></g>
<g><path style="opacity:1" fill="#929496" d="M 139.5,116.5 C 139.5,116.167 139.5,115.833 139.5,115.5C 140.822,115.33 141.989,115.663 143,116.5C 143.821,128.409 143.654,140.243 142.5,152C 125.5,152.667 108.5,152.667 91.5,152C 90.6634,150.989 90.33,149.822 90.5,148.5C 90.8333,148.5 91.1667,148.5 91.5,148.5C 91.4142,149.496 91.7476,150.329 92.5,151C 108.833,151.667 125.167,151.667 141.5,151C 142.653,139.91 142.82,128.743 142,117.5C 141.329,116.748 140.496,116.414 139.5,116.5 Z"/></g>
<g><path style="opacity:1" fill="#929496" d="M 204.5,116.5 C 204.5,116.167 204.5,115.833 204.5,115.5C 205.822,115.33 206.989,115.663 208,116.5C 208.821,128.409 208.654,140.243 207.5,152C 190.5,152.667 173.5,152.667 156.5,152C 155.663,150.989 155.33,149.822 155.5,148.5C 155.833,148.5 156.167,148.5 156.5,148.5C 156.414,149.496 156.748,150.329 157.5,151C 173.833,151.667 190.167,151.667 206.5,151C 207.653,139.91 207.82,128.743 207,117.5C 206.329,116.748 205.496,116.414 204.5,116.5 Z"/></g>
<g><path style="opacity:1" fill="#929496" d="M 270.5,116.5 C 270.5,116.167 270.5,115.833 270.5,115.5C 271.822,115.33 272.989,115.663 274,116.5C 274.821,128.409 274.654,140.243 273.5,152C 257.5,152.667 241.5,152.667 225.5,152C 224.663,150.989 224.33,149.822 224.5,148.5C 224.833,148.5 225.167,148.5 225.5,148.5C 225.414,149.496 225.748,150.329 226.5,151C 241.833,151.667 257.167,151.667 272.5,151C 273.653,139.91 273.82,128.743 273,117.5C 272.329,116.748 271.496,116.414 270.5,116.5 Z"/></g>
<g><path style="opacity:1" fill="#929496" d="M 333.5,116.5 C 333.5,116.167 333.5,115.833 333.5,115.5C 334.822,115.33 335.989,115.663 337,116.5C 337.821,128.409 337.654,140.243 336.5,152C 321.5,152.667 306.5,152.667 291.5,152C 290.663,150.989 290.33,149.822 290.5,148.5C 290.833,148.5 291.167,148.5 291.5,148.5C 291.414,149.496 291.748,150.329 292.5,151C 306.833,151.667 321.167,151.667 335.5,151C 336.653,139.91 336.82,128.743 336,117.5C 335.329,116.748 334.496,116.414 333.5,116.5 Z"/></g>
<g><path style="opacity:1" fill="#7a7a7a" d="M 79.5,107.5 C 80.4963,122.991 80.8296,138.658 80.5,154.5C 59.3267,154.831 38.3267,154.497 17.5,153.5C 17.8333,153.5 18.1667,153.5 18.5,153.5C 38.8333,153.5 59.1667,153.5 79.5,153.5C 79.5,138.5 79.5,123.5 79.5,108.5C 79.5,108.167 79.5,107.833 79.5,107.5 Z"/></g>
<g><path style="opacity:1" fill="#7a7a7a" d="M 144.5,107.5 C 145.496,122.991 145.83,138.658 145.5,154.5C 124.327,154.831 103.327,154.497 82.5,153.5C 82.8333,153.5 83.1667,153.5 83.5,153.5C 103.833,153.5 124.167,153.5 144.5,153.5C 144.5,138.5 144.5,123.5 144.5,108.5C 144.5,108.167 144.5,107.833 144.5,107.5 Z"/></g>
<g><path style="opacity:1" fill="#7b7b7b" d="M 213.5,107.5 C 214.496,122.991 214.83,138.658 214.5,154.5C 191.994,154.831 169.66,154.497 147.5,153.5C 147.833,153.5 148.167,153.5 148.5,153.5C 170.167,153.5 191.833,153.5 213.5,153.5C 213.5,138.5 213.5,123.5 213.5,108.5C 213.5,108.167 213.5,107.833 213.5,107.5 Z"/></g>
<g><path style="opacity:1" fill="#7b7b7b" d="M 279.5,107.5 C 280.496,122.991 280.83,138.658 280.5,154.5C 258.993,154.831 237.66,154.497 216.5,153.5C 216.833,153.5 217.167,153.5 217.5,153.5C 238.167,153.5 258.833,153.5 279.5,153.5C 279.5,138.5 279.5,123.5 279.5,108.5C 279.5,108.167 279.5,107.833 279.5,107.5 Z"/></g>
<g><path style="opacity:1" fill="#7b7b7b" d="M 340.5,107.5 C 341.496,122.991 341.83,138.658 341.5,154.5C 321.66,154.83 301.993,154.497 282.5,153.5C 282.833,153.5 283.167,153.5 283.5,153.5C 302.5,153.5 321.5,153.5 340.5,153.5C 340.5,138.5 340.5,123.5 340.5,108.5C 340.5,108.167 340.5,107.833 340.5,107.5 Z"/></g>
<g><path style="opacity:1" fill="#2b2c2b" d="M 79.5,156.5 C 79.5,156.833 79.5,157.167 79.5,157.5C 59.1667,157.5 38.8333,157.5 18.5,157.5C 18.5,172.5 18.5,187.5 18.5,202.5C 18.1667,202.5 17.8333,202.5 17.5,202.5C 17.5,187.167 17.5,171.833 17.5,156.5C 38.1667,156.5 58.8333,156.5 79.5,156.5 Z"/></g>
<g><path style="opacity:1" fill="#2b2c2b" d="M 144.5,156.5 C 144.5,156.833 144.5,157.167 144.5,157.5C 124.167,157.5 103.833,157.5 83.5,157.5C 83.5,172.5 83.5,187.5 83.5,202.5C 83.1667,202.5 82.8333,202.5 82.5,202.5C 82.5,187.167 82.5,171.833 82.5,156.5C 103.167,156.5 123.833,156.5 144.5,156.5 Z"/></g>
<g><path style="opacity:1" fill="#2b2c2b" d="M 213.5,156.5 C 213.5,156.833 213.5,157.167 213.5,157.5C 191.833,157.5 170.167,157.5 148.5,157.5C 148.5,172.5 148.5,187.5 148.5,202.5C 148.167,202.5 147.833,202.5 147.5,202.5C 147.5,187.167 147.5,171.833 147.5,156.5C 169.5,156.5 191.5,156.5 213.5,156.5 Z"/></g>
<g><path style="opacity:1" fill="#2b2c2b" d="M 340.5,156.5 C 340.5,156.833 340.5,157.167 340.5,157.5C 299.5,157.5 258.5,157.5 217.5,157.5C 217.5,172.5 217.5,187.5 217.5,202.5C 217.167,202.5 216.833,202.5 216.5,202.5C 216.5,187.167 216.5,171.833 216.5,156.5C 257.833,156.5 299.167,156.5 340.5,156.5 Z"/></g>
<g><path style="opacity:1" fill="#dee1e4" d="M 79.5,157.5 C 79.5,172.5 79.5,187.5 79.5,202.5C 59.1667,202.5 38.8333,202.5 18.5,202.5C 18.5,187.5 18.5,172.5 18.5,157.5C 38.8333,157.5 59.1667,157.5 79.5,157.5 Z"/></g>
<g><path style="opacity:1" fill="#dee1e4" d="M 144.5,157.5 C 144.5,172.5 144.5,187.5 144.5,202.5C 124.167,202.5 103.833,202.5 83.5,202.5C 83.5,187.5 83.5,172.5 83.5,157.5C 103.833,157.5 124.167,157.5 144.5,157.5 Z"/></g>
<g><path style="opacity:1" fill="#dfe2e5" d="M 213.5,157.5 C 213.5,172.5 213.5,187.5 213.5,202.5C 191.833,202.5 170.167,202.5 148.5,202.5C 148.5,187.5 148.5,172.5 148.5,157.5C 170.167,157.5 191.833,157.5 213.5,157.5 Z"/></g>
<g><path style="opacity:1" fill="#e3e6e9" d="M 340.5,157.5 C 340.5,159.833 340.5,162.167 340.5,164.5C 338.958,163.699 337.292,163.366 335.5,163.5C 298.004,162.502 260.337,162.168 222.5,162.5C 222.172,174.345 222.505,186.012 223.5,197.5C 223.366,199.292 223.699,200.958 224.5,202.5C 222.167,202.5 219.833,202.5 217.5,202.5C 217.5,187.5 217.5,172.5 217.5,157.5C 258.5,157.5 299.5,157.5 340.5,157.5 Z"/></g>
<g><path style="opacity:1" fill="#fdfdfd" d="M 74.5,164.5 C 74.5,164.833 74.5,165.167 74.5,165.5C 74.5,166.167 74.5,166.833 74.5,167.5C 74.5,177.5 74.5,187.5 74.5,197.5C 59.1667,197.5 43.8333,197.5 28.5,197.5C 27.8333,197.5 27.1667,197.5 26.5,197.5C 26.1667,197.5 25.8333,197.5 25.5,197.5C 23.5216,186.215 22.8549,174.548 23.5,162.5C 40.8662,161.848 57.8662,162.514 74.5,164.5 Z"/></g>
<g><path style="opacity:1" fill="#fefdfd" d="M 139.5,164.5 C 139.5,164.833 139.5,165.167 139.5,165.5C 139.5,166.167 139.5,166.833 139.5,167.5C 139.5,177.5 139.5,187.5 139.5,197.5C 124.167,197.5 108.833,197.5 93.5,197.5C 92.8333,197.5 92.1667,197.5 91.5,197.5C 91.1667,197.5 90.8333,197.5 90.5,197.5C 88.5216,186.215 87.8549,174.548 88.5,162.5C 105.866,161.848 122.866,162.514 139.5,164.5 Z"/></g>
<g><path style="opacity:1" fill="#fdfdfc" d="M 204.5,164.5 C 204.5,164.833 204.5,165.167 204.5,165.5C 204.5,166.167 204.5,166.833 204.5,167.5C 204.5,177.5 204.5,187.5 204.5,197.5C 189.167,197.5 173.833,197.5 158.5,197.5C 157.833,197.5 157.167,197.5 156.5,197.5C 156.167,197.5 155.833,197.5 155.5,197.5C 153.522,186.215 152.855,174.548 153.5,162.5C 170.866,161.848 187.866,162.514 204.5,164.5 Z"/></g>
<g><path style="opacity:1" fill="#fefefe" d="M 335.5,163.5 C 335.5,163.833 335.5,164.167 335.5,164.5C 335.5,164.833 335.5,165.167 335.5,165.5C 335.5,166.167 335.5,166.833 335.5,167.5C 335.5,177.5 335.5,187.5 335.5,197.5C 299.5,197.5 263.5,197.5 227.5,197.5C 226.833,197.5 226.167,197.5 225.5,197.5C 225.167,197.5 224.833,197.5 224.5,197.5C 224.167,197.5 223.833,197.5 223.5,197.5C 222.505,186.012 222.172,174.345 222.5,162.5C 260.337,162.168 298.004,162.502 335.5,163.5 Z"/></g>
<g><path style="opacity:1" fill="#200b12" d="M 44.5,171.5 C 47.5719,171.183 50.5719,171.516 53.5,172.5C 50.5983,176.763 48.5983,181.43 47.5,186.5C 46.3691,184.926 46.2025,183.259 47,181.5C 47.7967,178.78 48.9633,176.28 50.5,174C 47.9488,173.998 45.9488,173.164 44.5,171.5 Z"/></g>
<g><path style="opacity:1" fill="#130618" d="M 177.5,171.5 C 182.209,171.726 184.209,174.226 183.5,179C 184.151,182.875 182.651,185.375 179,186.5C 176.226,186.102 175.393,184.769 176.5,182.5C 179.716,185.376 181.216,184.71 181,180.5C 179.062,181.86 177.396,181.527 176,179.5C 175.109,176.502 175.609,173.836 177.5,171.5 Z"/></g>
<g><path style="opacity:1" fill="#2e151c" d="M 274.5,171.5 C 277.205,172.69 278.872,174.856 279.5,178C 279.167,178.5 278.833,179 278.5,179.5C 277.573,177.887 276.739,176.221 276,174.5C 274.833,176.167 273.667,177.833 272.5,179.5C 271.883,176.667 272.55,174 274.5,171.5 Z"/></g>
<g><path style="opacity:1" fill="#eae2d3" d="M 177.5,173.5 C 181.35,173.701 182.35,175.534 180.5,179C 179.552,179.483 178.552,179.649 177.5,179.5C 177.5,177.5 177.5,175.5 177.5,173.5 Z"/></g>
<g><path style="opacity:1" fill="#1f0e18" d="M 112.5,171.5 C 115.864,170.873 117.864,172.206 118.5,175.5C 118.101,178.422 117.934,181.422 118,184.5C 114.464,187.492 111.964,186.825 110.5,182.5C 111.687,179.979 111.687,177.479 110.5,175C 110.862,173.566 111.528,172.399 112.5,171.5 Z"/></g>
<g><path style="opacity:1" fill="#dce9f0" d="M 112.5,173.5 C 113.5,173.5 114.5,173.5 115.5,173.5C 115.5,174.833 115.5,176.167 115.5,177.5C 114.5,177.5 113.5,177.5 112.5,177.5C 112.5,176.167 112.5,174.833 112.5,173.5 Z"/></g>
<g><path style="opacity:1" fill="#eaebe2" d="M 112.5,179.5 C 116.161,179.35 117.161,180.85 115.5,184C 114.552,184.483 113.552,184.649 112.5,184.5C 112.5,182.833 112.5,181.167 112.5,179.5 Z"/></g>
<g><path style="opacity:1" fill="#0b0b0b" d="M 74.5,167.5 C 75.4942,177.653 75.8276,187.986 75.5,198.5C 59.6578,198.83 43.9911,198.496 28.5,197.5C 43.8333,197.5 59.1667,197.5 74.5,197.5C 74.5,187.5 74.5,177.5 74.5,167.5 Z"/></g>
<g><path style="opacity:1" fill="#0b0b0b" d="M 139.5,167.5 C 140.494,177.653 140.828,187.986 140.5,198.5C 124.658,198.83 108.991,198.496 93.5,197.5C 108.833,197.5 124.167,197.5 139.5,197.5C 139.5,187.5 139.5,177.5 139.5,167.5 Z"/></g>
<g><path style="opacity:1" fill="#0b0b0b" d="M 204.5,167.5 C 205.494,177.653 205.828,187.986 205.5,198.5C 189.658,198.83 173.991,198.496 158.5,197.5C 173.833,197.5 189.167,197.5 204.5,197.5C 204.5,187.5 204.5,177.5 204.5,167.5 Z"/></g>
<g><path style="opacity:1" fill="#0b0b0b" d="M 335.5,167.5 C 336.494,177.653 336.828,187.986 336.5,198.5C 300.167,198.5 263.833,198.5 227.5,198.5C 227.5,198.167 227.5,197.833 227.5,197.5C 263.5,197.5 299.5,197.5 335.5,197.5C 335.5,187.5 335.5,177.5 335.5,167.5 Z"/></g>
<g><path style="opacity:1" fill="#38393a" d="M 74.5,165.5 C 75.4959,165.414 76.3292,165.748 77,166.5C 77.82,177.743 77.6533,188.91 76.5,200C 60.1667,200.667 43.8333,200.667 27.5,200C 26.7476,199.329 26.4142,198.496 26.5,197.5C 27.1667,197.5 27.8333,197.5 28.5,197.5C 43.9911,198.496 59.6578,198.83 75.5,198.5C 75.8276,187.986 75.4942,177.653 74.5,167.5C 74.5,166.833 74.5,166.167 74.5,165.5 Z"/></g>
<g><path style="opacity:1" fill="#38393a" d="M 139.5,165.5 C 140.496,165.414 141.329,165.748 142,166.5C 142.82,177.743 142.653,188.91 141.5,200C 125.167,200.667 108.833,200.667 92.5,200C 91.7476,199.329 91.4142,198.496 91.5,197.5C 92.1667,197.5 92.8333,197.5 93.5,197.5C 108.991,198.496 124.658,198.83 140.5,198.5C 140.828,187.986 140.494,177.653 139.5,167.5C 139.5,166.833 139.5,166.167 139.5,165.5 Z"/></g>
<g><path style="opacity:1" fill="#38393a" d="M 204.5,165.5 C 205.496,165.414 206.329,165.748 207,166.5C 207.82,177.743 207.653,188.91 206.5,200C 190.167,200.667 173.833,200.667 157.5,200C 156.748,199.329 156.414,198.496 156.5,197.5C 157.167,197.5 157.833,197.5 158.5,197.5C 173.991,198.496 189.658,198.83 205.5,198.5C 205.828,187.986 205.494,177.653 204.5,167.5C 204.5,166.833 204.5,166.167 204.5,165.5 Z"/></g>
<g><path style="opacity:1" fill="#2d2d2e" d="M 335.5,165.5 C 336.496,165.414 337.329,165.748 338,166.5C 338.826,177.674 338.659,188.674 337.5,199.5C 300.663,199.832 263.996,199.498 227.5,198.5C 263.833,198.5 300.167,198.5 336.5,198.5C 336.828,187.986 336.494,177.653 335.5,167.5C 335.5,166.833 335.5,166.167 335.5,165.5 Z"/></g>
<g><path style="opacity:1" fill="#929496" d="M 74.5,165.5 C 74.5,165.167 74.5,164.833 74.5,164.5C 75.8221,164.33 76.9887,164.663 78,165.5C 78.8207,177.409 78.6541,189.243 77.5,201C 60.5,201.667 43.5,201.667 26.5,201C 25.6634,199.989 25.33,198.822 25.5,197.5C 25.8333,197.5 26.1667,197.5 26.5,197.5C 26.4142,198.496 26.7476,199.329 27.5,200C 43.8333,200.667 60.1667,200.667 76.5,200C 77.6533,188.91 77.82,177.743 77,166.5C 76.3292,165.748 75.4959,165.414 74.5,165.5 Z"/></g>
<g><path style="opacity:1" fill="#929496" d="M 139.5,165.5 C 139.5,165.167 139.5,164.833 139.5,164.5C 140.822,164.33 141.989,164.663 143,165.5C 143.821,177.409 143.654,189.243 142.5,201C 125.5,201.667 108.5,201.667 91.5,201C 90.6634,199.989 90.33,198.822 90.5,197.5C 90.8333,197.5 91.1667,197.5 91.5,197.5C 91.4142,198.496 91.7476,199.329 92.5,200C 108.833,200.667 125.167,200.667 141.5,200C 142.653,188.91 142.82,177.743 142,166.5C 141.329,165.748 140.496,165.414 139.5,165.5 Z"/></g>
<g><path style="opacity:1" fill="#929496" d="M 204.5,165.5 C 204.5,165.167 204.5,164.833 204.5,164.5C 205.822,164.33 206.989,164.663 208,165.5C 208.821,177.409 208.654,189.243 207.5,201C 190.5,201.667 173.5,201.667 156.5,201C 155.663,199.989 155.33,198.822 155.5,197.5C 155.833,197.5 156.167,197.5 156.5,197.5C 156.414,198.496 156.748,199.329 157.5,200C 173.833,200.667 190.167,200.667 206.5,200C 207.653,188.91 207.82,177.743 207,166.5C 206.329,165.748 205.496,165.414 204.5,165.5 Z"/></g>
<g><path style="opacity:1" fill="#919395" d="M 335.5,165.5 C 335.5,165.167 335.5,164.833 335.5,164.5C 336.822,164.33 337.989,164.663 339,165.5C 339.821,177.409 339.654,189.243 338.5,201C 300.833,201.667 263.167,201.667 225.5,201C 224.663,199.989 224.33,198.822 224.5,197.5C 224.833,197.5 225.167,197.5 225.5,197.5C 225.414,198.496 225.748,199.329 226.5,200C 263.669,200.831 300.669,200.664 337.5,199.5C 338.659,188.674 338.826,177.674 338,166.5C 337.329,165.748 336.496,165.414 335.5,165.5 Z"/></g>
<g><path style="opacity:1" fill="#c0c3c5" d="M 335.5,164.5 C 335.5,164.167 335.5,163.833 335.5,163.5C 337.292,163.366 338.958,163.699 340.5,164.5C 340.5,177.167 340.5,189.833 340.5,202.5C 301.833,202.5 263.167,202.5 224.5,202.5C 223.699,200.958 223.366,199.292 223.5,197.5C 223.833,197.5 224.167,197.5 224.5,197.5C 224.33,198.822 224.663,199.989 225.5,201C 263.167,201.667 300.833,201.667 338.5,201C 339.654,189.243 339.821,177.409 339,165.5C 337.989,164.663 336.822,164.33 335.5,164.5 Z"/></g>
<g><path style="opacity:1" fill="#545557" d="M 225.5,197.5 C 226.167,197.5 226.833,197.5 227.5,197.5C 227.5,197.833 227.5,198.167 227.5,198.5C 263.996,199.498 300.663,199.832 337.5,199.5C 300.669,200.664 263.669,200.831 226.5,200C 225.748,199.329 225.414,198.496 225.5,197.5 Z"/></g>
<g><path style="opacity:1" fill="#7a7a7a" d="M 79.5,156.5 C 80.4963,171.991 80.8296,187.658 80.5,203.5C 59.3267,203.831 38.3267,203.497 17.5,202.5C 17.8333,202.5 18.1667,202.5 18.5,202.5C 38.8333,202.5 59.1667,202.5 79.5,202.5C 79.5,187.5 79.5,172.5 79.5,157.5C 79.5,157.167 79.5,156.833 79.5,156.5 Z"/></g>
<g><path style="opacity:1" fill="#7a7a7a" d="M 144.5,156.5 C 145.496,171.991 145.83,187.658 145.5,203.5C 124.327,203.831 103.327,203.497 82.5,202.5C 82.8333,202.5 83.1667,202.5 83.5,202.5C 103.833,202.5 124.167,202.5 144.5,202.5C 144.5,187.5 144.5,172.5 144.5,157.5C 144.5,157.167 144.5,156.833 144.5,156.5 Z"/></g>
<g><path style="opacity:1" fill="#7b7b7b" d="M 213.5,156.5 C 214.496,171.991 214.83,187.658 214.5,203.5C 191.994,203.831 169.66,203.497 147.5,202.5C 147.833,202.5 148.167,202.5 148.5,202.5C 170.167,202.5 191.833,202.5 213.5,202.5C 213.5,187.5 213.5,172.5 213.5,157.5C 213.5,157.167 213.5,156.833 213.5,156.5 Z"/></g>
<g><path style="opacity:1" fill="#7a7a7a" d="M 340.5,156.5 C 341.496,171.991 341.83,187.658 341.5,203.5C 299.663,203.832 257.997,203.499 216.5,202.5C 216.833,202.5 217.167,202.5 217.5,202.5C 219.833,202.5 222.167,202.5 224.5,202.5C 263.167,202.5 301.833,202.5 340.5,202.5C 340.5,189.833 340.5,177.167 340.5,164.5C 340.5,162.167 340.5,159.833 340.5,157.5C 340.5,157.167 340.5,156.833 340.5,156.5 Z"/></g>
<g><path style="opacity:1" fill="#2b2c2b" d="M 79.5,205.5 C 79.5,205.833 79.5,206.167 79.5,206.5C 59.1667,206.5 38.8333,206.5 18.5,206.5C 18.5,221.5 18.5,236.5 18.5,251.5C 18.1667,251.5 17.8333,251.5 17.5,251.5C 17.5,236.167 17.5,220.833 17.5,205.5C 38.1667,205.5 58.8333,205.5 79.5,205.5 Z"/></g>
<g><path style="opacity:1" fill="#2b2c2b" d="M 144.5,205.5 C 144.5,205.833 144.5,206.167 144.5,206.5C 124.167,206.5 103.833,206.5 83.5,206.5C 83.5,221.5 83.5,236.5 83.5,251.5C 83.1667,251.5 82.8333,251.5 82.5,251.5C 82.5,236.167 82.5,220.833 82.5,205.5C 103.167,205.5 123.833,205.5 144.5,205.5 Z"/></g>
<g><path style="opacity:1" fill="#2b2c2b" d="M 213.5,205.5 C 213.5,205.833 213.5,206.167 213.5,206.5C 191.833,206.5 170.167,206.5 148.5,206.5C 148.5,221.5 148.5,236.5 148.5,251.5C 148.167,251.5 147.833,251.5 147.5,251.5C 147.5,236.167 147.5,220.833 147.5,205.5C 169.5,205.5 191.5,205.5 213.5,205.5 Z"/></g>
<g><path style="opacity:1" fill="#2b2c2b" d="M 340.5,205.5 C 340.5,205.833 340.5,206.167 340.5,206.5C 299.5,206.5 258.5,206.5 217.5,206.5C 217.5,221.5 217.5,236.5 217.5,251.5C 217.167,251.5 216.833,251.5 216.5,251.5C 216.5,236.167 216.5,220.833 216.5,205.5C 257.833,205.5 299.167,205.5 340.5,205.5 Z"/></g>
<g><path style="opacity:1" fill="#dee1e4" d="M 79.5,206.5 C 79.5,221.5 79.5,236.5 79.5,251.5C 59.1667,251.5 38.8333,251.5 18.5,251.5C 18.5,236.5 18.5,221.5 18.5,206.5C 38.8333,206.5 59.1667,206.5 79.5,206.5 Z"/></g>
<g><path style="opacity:1" fill="#dfe2e5" d="M 144.5,206.5 C 144.5,221.5 144.5,236.5 144.5,251.5C 124.167,251.5 103.833,251.5 83.5,251.5C 83.5,236.5 83.5,221.5 83.5,206.5C 103.833,206.5 124.167,206.5 144.5,206.5 Z"/></g>
<g><path style="opacity:1" fill="#dee1e4" d="M 213.5,206.5 C 213.5,221.5 213.5,236.5 213.5,251.5C 191.833,251.5 170.167,251.5 148.5,251.5C 148.5,236.5 148.5,221.5 148.5,206.5C 170.167,206.5 191.833,206.5 213.5,206.5 Z"/></g>
<g><path style="opacity:1" fill="#e3e6e9" d="M 340.5,206.5 C 340.5,208.833 340.5,211.167 340.5,213.5C 338.958,212.699 337.292,212.366 335.5,212.5C 298.004,211.502 260.337,211.168 222.5,211.5C 222.172,223.345 222.505,235.012 223.5,246.5C 223.366,248.292 223.699,249.958 224.5,251.5C 222.167,251.5 219.833,251.5 217.5,251.5C 217.5,236.5 217.5,221.5 217.5,206.5C 258.5,206.5 299.5,206.5 340.5,206.5 Z"/></g>
<g><path style="opacity:1" fill="#fefefe" d="M 74.5,213.5 C 74.5,213.833 74.5,214.167 74.5,214.5C 74.5,215.167 74.5,215.833 74.5,216.5C 74.5,226.5 74.5,236.5 74.5,246.5C 59.1667,246.5 43.8333,246.5 28.5,246.5C 27.8333,246.5 27.1667,246.5 26.5,246.5C 26.1667,246.5 25.8333,246.5 25.5,246.5C 23.5216,235.215 22.8549,223.548 23.5,211.5C 40.8662,210.848 57.8662,211.514 74.5,213.5 Z"/></g>
<g><path style="opacity:1" fill="#fefefe" d="M 134.5,213.5 C 134.5,213.833 134.5,214.167 134.5,214.5C 134.5,215.167 134.5,215.833 134.5,216.5C 134.5,226.5 134.5,236.5 134.5,246.5C 120.833,246.5 107.167,246.5 93.5,246.5C 92.8333,246.5 92.1667,246.5 91.5,246.5C 91.1667,246.5 90.8333,246.5 90.5,246.5C 88.5216,235.215 87.8549,223.548 88.5,211.5C 104.203,210.849 119.536,211.516 134.5,213.5 Z"/></g>
<g><path style="opacity:1" fill="#fdfdfd" d="M 208.5,213.5 C 208.5,213.833 208.5,214.167 208.5,214.5C 208.5,215.167 208.5,215.833 208.5,216.5C 208.5,226.5 208.5,236.5 208.5,246.5C 191.833,246.5 175.167,246.5 158.5,246.5C 157.833,246.5 157.167,246.5 156.5,246.5C 156.167,246.5 155.833,246.5 155.5,246.5C 153.522,235.215 152.855,223.548 153.5,211.5C 172.197,210.846 190.53,211.513 208.5,213.5 Z"/></g>
<g><path style="opacity:1" fill="#fefefe" d="M 335.5,212.5 C 335.5,212.833 335.5,213.167 335.5,213.5C 335.5,213.833 335.5,214.167 335.5,214.5C 335.5,215.167 335.5,215.833 335.5,216.5C 335.5,226.5 335.5,236.5 335.5,246.5C 299.5,246.5 263.5,246.5 227.5,246.5C 226.833,246.5 226.167,246.5 225.5,246.5C 225.167,246.5 224.833,246.5 224.5,246.5C 224.167,246.5 223.833,246.5 223.5,246.5C 222.505,235.012 222.172,223.345 222.5,211.5C 260.337,211.168 298.004,211.502 335.5,212.5 Z"/></g>
<g><path style="opacity:1" fill="#251825" d="M 47.5,220.5 C 51.8958,220.912 53.8958,223.412 53.5,228C 53.2656,235.367 50.4323,236.867 45,232.5C 44.3333,229.167 44.3333,225.833 45,222.5C 45.9947,221.934 46.828,221.267 47.5,220.5 Z"/></g>
<g><path style="opacity:1" fill="#150612" d="M 178.5,220.5 C 181.798,220.016 184.464,221.016 186.5,223.5C 186.192,224.308 185.692,224.975 185,225.5C 182.925,223.352 180.592,223.018 178,224.5C 175.989,232.17 178.322,234.17 185,230.5C 187.021,232.651 186.521,234.151 183.5,235C 180.364,236.041 177.864,235.207 176,232.5C 174.773,227.938 175.607,223.938 178.5,220.5 Z"/></g>
<g><path style="opacity:1" fill="#efdec9" d="M 47.5,222.5 C 50.9496,222.573 52.283,224.406 51.5,228C 52.283,231.594 50.9496,233.427 47.5,233.5C 47.5,229.833 47.5,226.167 47.5,222.5 Z"/></g>
<g><path style="opacity:1" fill="#150d13" d="M 276.5,224.5 C 279.833,224.5 283.167,224.5 286.5,224.5C 286.5,225.5 286.5,226.5 286.5,227.5C 283.167,227.5 279.833,227.5 276.5,227.5C 276.5,226.5 276.5,225.5 276.5,224.5 Z"/></g>
<g><path style="opacity:1" fill="#150d13" d="M 276.5,229.5 C 279.833,229.5 283.167,229.5 286.5,229.5C 286.5,230.5 286.5,231.5 286.5,232.5C 283.167,232.5 279.833,232.5 276.5,232.5C 276.5,231.5 276.5,230.5 276.5,229.5 Z"/></g>
<g><path style="opacity:1" fill="#230700" d="M 110.5,232.5 C 112.465,232.948 112.798,233.948 111.5,235.5C 110.614,234.675 110.281,233.675 110.5,232.5 Z"/></g>
<g><path style="opacity:1" fill="#0b0b0b" d="M 74.5,216.5 C 75.4942,226.653 75.8276,236.986 75.5,247.5C 59.6578,247.83 43.9911,247.496 28.5,246.5C 43.8333,246.5 59.1667,246.5 74.5,246.5C 74.5,236.5 74.5,226.5 74.5,216.5 Z"/></g>
<g><path style="opacity:1" fill="#0b0b0b" d="M 134.5,216.5 C 135.494,226.653 135.828,236.986 135.5,247.5C 121.323,247.829 107.323,247.496 93.5,246.5C 107.167,246.5 120.833,246.5 134.5,246.5C 134.5,236.5 134.5,226.5 134.5,216.5 Z"/></g>
<g><path style="opacity:1" fill="#0b0b0b" d="M 208.5,216.5 C 209.494,226.653 209.828,236.986 209.5,247.5C 192.325,247.83 175.325,247.497 158.5,246.5C 175.167,246.5 191.833,246.5 208.5,246.5C 208.5,236.5 208.5,226.5 208.5,216.5 Z"/></g>
<g><path style="opacity:1" fill="#0b0b0b" d="M 335.5,216.5 C 336.494,226.653 336.828,236.986 336.5,247.5C 300.167,247.5 263.833,247.5 227.5,247.5C 227.5,247.167 227.5,246.833 227.5,246.5C 263.5,246.5 299.5,246.5 335.5,246.5C 335.5,236.5 335.5,226.5 335.5,216.5 Z"/></g>
<g><path style="opacity:1" fill="#38393a" d="M 74.5,214.5 C 75.4959,214.414 76.3292,214.748 77,215.5C 77.82,226.743 77.6533,237.91 76.5,249C 60.1667,249.667 43.8333,249.667 27.5,249C 26.7476,248.329 26.4142,247.496 26.5,246.5C 27.1667,246.5 27.8333,246.5 28.5,246.5C 43.9911,247.496 59.6578,247.83 75.5,247.5C 75.8276,236.986 75.4942,226.653 74.5,216.5C 74.5,215.833 74.5,215.167 74.5,214.5 Z"/></g>
<g><path style="opacity:1" fill="#38393a" d="M 134.5,214.5 C 135.496,214.414 136.329,214.748 137,215.5C 137.82,226.743 137.653,237.91 136.5,249C 121.833,249.667 107.167,249.667 92.5,249C 91.7476,248.329 91.4142,247.496 91.5,246.5C 92.1667,246.5 92.8333,246.5 93.5,246.5C 107.323,247.496 121.323,247.829 135.5,247.5C 135.828,236.986 135.494,226.653 134.5,216.5C 134.5,215.833 134.5,215.167 134.5,214.5 Z"/></g>
<g><path style="opacity:1" fill="#38393a" d="M 208.5,214.5 C 209.496,214.414 210.329,214.748 211,215.5C 211.82,226.743 211.653,237.91 210.5,249C 192.833,249.667 175.167,249.667 157.5,249C 156.748,248.329 156.414,247.496 156.5,246.5C 157.167,246.5 157.833,246.5 158.5,246.5C 175.325,247.497 192.325,247.83 209.5,247.5C 209.828,236.986 209.494,226.653 208.5,216.5C 208.5,215.833 208.5,215.167 208.5,214.5 Z"/></g>
<g><path style="opacity:1" fill="#2d2d2e" d="M 335.5,214.5 C 336.496,214.414 337.329,214.748 338,215.5C 338.826,226.674 338.659,237.674 337.5,248.5C 300.663,248.832 263.996,248.498 227.5,247.5C 263.833,247.5 300.167,247.5 336.5,247.5C 336.828,236.986 336.494,226.653 335.5,216.5C 335.5,215.833 335.5,215.167 335.5,214.5 Z"/></g>
<g><path style="opacity:1" fill="#929496" d="M 74.5,214.5 C 74.5,214.167 74.5,213.833 74.5,213.5C 75.8221,213.33 76.9887,213.663 78,214.5C 78.8207,226.409 78.6541,238.243 77.5,250C 60.5,250.667 43.5,250.667 26.5,250C 25.6634,248.989 25.33,247.822 25.5,246.5C 25.8333,246.5 26.1667,246.5 26.5,246.5C 26.4142,247.496 26.7476,248.329 27.5,249C 43.8333,249.667 60.1667,249.667 76.5,249C 77.6533,237.91 77.82,226.743 77,215.5C 76.3292,214.748 75.4959,214.414 74.5,214.5 Z"/></g>
<g><path style="opacity:1" fill="#929496" d="M 134.5,214.5 C 134.5,214.167 134.5,213.833 134.5,213.5C 135.822,213.33 136.989,213.663 138,214.5C 138.821,226.409 138.654,238.243 137.5,250C 122.167,250.667 106.833,250.667 91.5,250C 90.6634,248.989 90.33,247.822 90.5,246.5C 90.8333,246.5 91.1667,246.5 91.5,246.5C 91.4142,247.496 91.7476,248.329 92.5,249C 107.167,249.667 121.833,249.667 136.5,249C 137.653,237.91 137.82,226.743 137,215.5C 136.329,214.748 135.496,214.414 134.5,214.5 Z"/></g>
<g><path style="opacity:1" fill="#929496" d="M 208.5,214.5 C 208.5,214.167 208.5,213.833 208.5,213.5C 209.822,213.33 210.989,213.663 212,214.5C 212.821,226.409 212.654,238.243 211.5,250C 193.167,250.667 174.833,250.667 156.5,250C 155.663,248.989 155.33,247.822 155.5,246.5C 155.833,246.5 156.167,246.5 156.5,246.5C 156.414,247.496 156.748,248.329 157.5,249C 175.167,249.667 192.833,249.667 210.5,249C 211.653,237.91 211.82,226.743 211,215.5C 210.329,214.748 209.496,214.414 208.5,214.5 Z"/></g>
<g><path style="opacity:1" fill="#919395" d="M 335.5,214.5 C 335.5,214.167 335.5,213.833 335.5,213.5C 336.822,213.33 337.989,213.663 339,214.5C 339.821,226.409 339.654,238.243 338.5,250C 300.833,250.667 263.167,250.667 225.5,250C 224.663,248.989 224.33,247.822 224.5,246.5C 224.833,246.5 225.167,246.5 225.5,246.5C 225.414,247.496 225.748,248.329 226.5,249C 263.669,249.831 300.669,249.664 337.5,248.5C 338.659,237.674 338.826,226.674 338,215.5C 337.329,214.748 336.496,214.414 335.5,214.5 Z"/></g>
<g><path style="opacity:1" fill="#c0c3c5" d="M 335.5,213.5 C 335.5,213.167 335.5,212.833 335.5,212.5C 337.292,212.366 338.958,212.699 340.5,213.5C 340.5,226.167 340.5,238.833 340.5,251.5C 301.833,251.5 263.167,251.5 224.5,251.5C 223.699,249.958 223.366,248.292 223.5,246.5C 223.833,246.5 224.167,246.5 224.5,246.5C 224.33,247.822 224.663,248.989 225.5,250C 263.167,250.667 300.833,250.667 338.5,250C 339.654,238.243 339.821,226.409 339,214.5C 337.989,213.663 336.822,213.33 335.5,213.5 Z"/></g>
<g><path style="opacity:1" fill="#545557" d="M 225.5,246.5 C 226.167,246.5 226.833,246.5 227.5,246.5C 227.5,246.833 227.5,247.167 227.5,247.5C 263.996,248.498 300.663,248.832 337.5,248.5C 300.669,249.664 263.669,249.831 226.5,249C 225.748,248.329 225.414,247.496 225.5,246.5 Z"/></g>
<g><path style="opacity:1" fill="#7a7a7a" d="M 79.5,205.5 C 80.4963,220.991 80.8296,236.658 80.5,252.5C 59.3267,252.831 38.3267,252.497 17.5,251.5C 17.8333,251.5 18.1667,251.5 18.5,251.5C 38.8333,251.5 59.1667,251.5 79.5,251.5C 79.5,236.5 79.5,221.5 79.5,206.5C 79.5,206.167 79.5,205.833 79.5,205.5 Z"/></g>
<g><path style="opacity:1" fill="#7b7b7b" d="M 144.5,205.5 C 145.496,220.991 145.83,236.658 145.5,252.5C 124.327,252.831 103.327,252.497 82.5,251.5C 82.8333,251.5 83.1667,251.5 83.5,251.5C 103.833,251.5 124.167,251.5 144.5,251.5C 144.5,236.5 144.5,221.5 144.5,206.5C 144.5,206.167 144.5,205.833 144.5,205.5 Z"/></g>
<g><path style="opacity:1" fill="#7a7a7a" d="M 213.5,205.5 C 214.496,220.991 214.83,236.658 214.5,252.5C 191.994,252.831 169.66,252.497 147.5,251.5C 147.833,251.5 148.167,251.5 148.5,251.5C 170.167,251.5 191.833,251.5 213.5,251.5C 213.5,236.5 213.5,221.5 213.5,206.5C 213.5,206.167 213.5,205.833 213.5,205.5 Z"/></g>
<g><path style="opacity:1" fill="#7a7a7a" d="M 340.5,205.5 C 341.496,220.991 341.83,236.658 341.5,252.5C 299.663,252.832 257.997,252.499 216.5,251.5C 216.833,251.5 217.167,251.5 217.5,251.5C 219.833,251.5 222.167,251.5 224.5,251.5C 263.167,251.5 301.833,251.5 340.5,251.5C 340.5,238.833 340.5,226.167 340.5,213.5C 340.5,211.167 340.5,208.833 340.5,206.5C 340.5,206.167 340.5,205.833 340.5,205.5 Z"/></g>
</svg>
