<?xml version="1.0" encoding="UTF-8"?>
<!DOCTYPE svg PUBLIC "-//W3C//DTD SVG 1.1//EN" "http://www.w3.org/Graphics/SVG/1.1/DTD/svg11.dtd">
<svg xmlns="http://www.w3.org/2000/svg" version="1.1" width="1916px" height="543px" style="shape-rendering:geometricPrecision; text-rendering:geometricPrecision; image-rendering:optimizeQuality; fill-rule:evenodd; clip-rule:evenodd" xmlns:xlink="http://www.w3.org/1999/xlink">
<g><path style="opacity:1" fill="#fefefe" d="M -0.5,-0.5 C 638.167,-0.5 1276.83,-0.5 1915.5,-0.5C 1915.5,180.5 1915.5,361.5 1915.5,542.5C 1276.83,542.5 638.167,542.5 -0.5,542.5C -0.5,361.5 -0.5,180.5 -0.5,-0.5 Z"/></g>
<g><path style="opacity:1" fill="#2b2c33" d="M 909.5,46.5 C 908.676,43.2356 908.342,39.9023 908.5,36.5C 912.924,27.7936 919.924,24.7936 929.5,27.5C 929.66,29.1992 929.494,30.8659 929,32.5C 922.363,28.9069 917.03,30.2402 913,36.5C 912.052,48.8857 917.385,52.8857 929,48.5C 929.494,50.1341 929.66,51.8008 929.5,53.5C 920.739,56.6008 914.073,54.2675 909.5,46.5 Z"/></g>
<g><path style="opacity:1" fill="#322f39" d="M 934.5,26.5 C 938.514,26.3345 942.514,26.5012 946.5,27C 952.059,28.4579 953.892,31.9579 952,37.5C 950.842,39.4909 949.342,41.1576 947.5,42.5C 950.411,45.9895 953.078,49.6562 955.5,53.5C 953.833,54.8333 952.167,54.8333 950.5,53.5C 948.748,50.328 946.748,47.328 944.5,44.5C 942.929,43.6906 941.262,43.3573 939.5,43.5C 939.5,47.1667 939.5,50.8333 939.5,54.5C 937.833,54.5 936.167,54.5 934.5,54.5C 934.5,45.1667 934.5,35.8333 934.5,26.5 Z"/></g>
<g><path style="opacity:1" fill="#2a282d" d="M 959.5,26.5 C 960.833,26.5 962.167,26.5 963.5,26.5C 963.334,33.175 963.5,39.8417 964,46.5C 967.694,51.3416 971.694,51.6749 976,47.5C 976.5,40.5079 976.666,33.5079 976.5,26.5C 977.833,26.5 979.167,26.5 980.5,26.5C 980.666,33.8409 980.5,41.1742 980,48.5C 977.714,52.8412 974.047,54.8412 969,54.5C 964.265,54.4349 961.265,52.1015 960,47.5C 959.5,40.5079 959.334,33.5079 959.5,26.5 Z"/></g>
<g><path style="opacity:1" fill="#312e37" d="M 987.5,26.5 C 994.526,25.8048 1001.19,26.9715 1007.5,30C 1011.76,37.2488 1011.43,44.2488 1006.5,51C 1000.53,53.9846 994.196,55.1513 987.5,54.5C 987.5,45.1667 987.5,35.8333 987.5,26.5 Z"/></g>
<g><path style="opacity:1" fill="#fcf3ea" d="M 939.5,30.5 C 941.857,30.3367 944.19,30.5034 946.5,31C 949.167,33.6667 949.167,36.3333 946.5,39C 944.19,39.4966 941.857,39.6633 939.5,39.5C 939.5,36.5 939.5,33.5 939.5,30.5 Z"/></g>
<g><path style="opacity:1" fill="#fdf9f4" d="M 992.5,30.5 C 1003.38,29.2094 1007.88,33.876 1006,44.5C 1003.09,49.8628 998.59,51.8628 992.5,50.5C 992.5,43.8333 992.5,37.1667 992.5,30.5 Z"/></g>
<g><path style="opacity:1" fill="#ecb97c" d="M 908.5,36.5 C 908.342,39.9023 908.676,43.2356 909.5,46.5C 908.883,46.3893 908.383,46.056 908,45.5C 907.195,42.3035 907.362,39.3035 908.5,36.5 Z"/></g>
<g><path style="opacity:1" fill="#737f8e" d="M 181.5,110.5 C 185.584,110.043 189.417,110.71 193,112.5C 194.223,116.205 193.39,119.205 190.5,121.5C 192.167,124.167 193.833,126.833 195.5,129.5C 194.635,130.583 193.635,130.749 192.5,130C 190.833,127.667 189.167,125.333 187.5,123C 186.552,122.517 185.552,122.351 184.5,122.5C 184.5,125.167 184.5,127.833 184.5,130.5C 183.5,130.5 182.5,130.5 181.5,130.5C 181.5,123.833 181.5,117.167 181.5,110.5 Z"/></g>
<g><path style="opacity:1" fill="#8a8892" d="M 229.5,109.5 C 231.912,109.694 232.912,111.027 232.5,113.5C 229.046,113.733 228.046,112.4 229.5,109.5 Z"/></g>
<g><path style="opacity:1" fill="#0dc9ef" d="M 1907.5,150.5 C 1491.5,150.5 1075.5,150.5 659.5,150.5C 659.5,137.167 659.5,123.833 659.5,110.5C 1075.5,110.5 1491.5,110.5 1907.5,110.5C 1907.5,123.833 1907.5,137.167 1907.5,150.5 Z"/></g>
<g><path style="opacity:1" fill="#fef8f2" d="M 184.5,113.5 C 189.667,112.492 191.334,114.325 189.5,119C 187.866,119.494 186.199,119.66 184.5,119.5C 184.5,117.5 184.5,115.5 184.5,113.5 Z"/></g>
<g><path style="opacity:1" fill="#757886" d="M 250.5,112.5 C 252.176,113.183 252.843,114.517 252.5,116.5C 256.5,117.167 256.5,117.833 252.5,118.5C 252.5,121.5 252.5,124.5 252.5,127.5C 253.5,127.5 254.5,127.5 255.5,127.5C 255.5,128.5 255.5,129.5 255.5,130.5C 253.738,130.643 252.071,130.309 250.5,129.5C 250.014,125.303 249.014,121.303 247.5,117.5C 248.994,116.095 249.994,114.429 250.5,112.5 Z"/></g>
<g><path style="opacity:1" fill="#787c86" d="M 200.5,116.5 C 206.709,115.749 209.709,118.415 209.5,124.5C 206.102,124.18 202.768,124.513 199.5,125.5C 201.963,128.931 204.796,129.265 208,126.5C 208.658,128.108 208.158,129.275 206.5,130C 197.918,131.252 194.918,127.752 197.5,119.5C 198.855,118.812 199.855,117.812 200.5,116.5 Z"/></g>
<g><path style="opacity:1" fill="#797c85" d="M 214.5,116.5 C 217.914,117.247 221.247,117.247 224.5,116.5C 224.666,122.176 224.499,127.843 224,133.5C 221.005,136.265 217.505,137.098 213.5,136C 212.483,134.951 212.316,133.784 213,132.5C 215.401,133.602 217.901,133.769 220.5,133C 221.554,131.612 221.72,130.112 221,128.5C 215.082,131.959 211.915,130.126 211.5,123C 211.391,120.288 212.391,118.122 214.5,116.5 Z"/></g>
<g><path style="opacity:1" fill="#6d7a8d" d="M 229.5,116.5 C 230.5,116.5 231.5,116.5 232.5,116.5C 232.5,121.167 232.5,125.833 232.5,130.5C 231.5,130.5 230.5,130.5 229.5,130.5C 229.5,125.833 229.5,121.167 229.5,116.5 Z"/></g>
<g><path style="opacity:1" fill="#797c86" d="M 238.5,116.5 C 240.5,116.5 242.5,116.5 244.5,116.5C 244.935,119.613 243.935,120.279 241.5,118.5C 240,118.453 239,119.119 238.5,120.5C 240.583,121.959 242.75,123.292 245,124.5C 245.667,125.833 245.667,127.167 245,128.5C 242.096,130.227 238.93,130.893 235.5,130.5C 235.471,127.227 236.804,126.56 239.5,128.5C 241,128.547 242,127.881 242.5,126.5C 240.417,125.041 238.25,123.708 236,122.5C 235.034,119.66 235.867,117.66 238.5,116.5 Z"/></g>
<g><path style="opacity:1" fill="#787780" d="M 258.5,116.5 C 260.124,116.36 261.29,117.027 262,118.5C 263.11,116.963 264.61,116.297 266.5,116.5C 266.5,117.5 266.5,118.5 266.5,119.5C 264.61,119.297 263.11,119.963 262,121.5C 261.502,124.482 261.335,127.482 261.5,130.5C 260.5,130.5 259.5,130.5 258.5,130.5C 258.5,125.833 258.5,121.167 258.5,116.5 Z"/></g>
<g><path style="opacity:1" fill="#7f848f" d="M 271.5,116.5 C 278.669,115.513 282.169,118.513 282,125.5C 277.748,131.653 273.081,131.986 268,126.5C 267.333,124.5 267.333,122.5 268,120.5C 269.376,119.295 270.542,117.962 271.5,116.5 Z"/></g>
<g><path style="opacity:1" fill="#7b7c84" d="M 302.5,109.5 C 303.5,109.5 304.5,109.5 305.5,109.5C 305.5,116.5 305.5,123.5 305.5,130.5C 303.876,130.64 302.71,129.973 302,128.5C 298.195,131.539 295.195,130.872 293,126.5C 291.361,118.975 294.195,115.975 301.5,117.5C 302.48,114.914 302.813,112.247 302.5,109.5 Z"/></g>
<g><path style="opacity:1" fill="#747b86" d="M 313.5,116.5 C 319.814,115.641 322.481,118.308 321.5,124.5C 318.428,124.183 315.428,124.516 312.5,125.5C 313.09,126.799 314.09,127.632 315.5,128C 317.313,127.954 318.979,128.12 320.5,128.5C 314.234,132.302 310.567,130.635 309.5,123.5C 309.197,120.156 310.53,117.822 313.5,116.5 Z"/></g>
<g><path style="opacity:1" fill="#7d8694" d="M 332.5,116.5 C 335.828,117.646 339.161,117.813 342.5,117C 346.942,120.054 347.609,123.887 344.5,128.5C 342.211,130.592 339.711,130.926 337,129.5C 336.503,131.81 336.337,134.143 336.5,136.5C 335.167,136.5 333.833,136.5 332.5,136.5C 332.5,129.833 332.5,123.167 332.5,116.5 Z"/></g>
<g><path style="opacity:1" fill="#787c86" d="M 352.5,116.5 C 358.709,115.749 361.709,118.415 361.5,124.5C 358.102,124.18 354.768,124.513 351.5,125.5C 353.963,128.931 356.796,129.265 360,126.5C 360.658,128.108 360.158,129.275 358.5,130C 349.918,131.252 346.918,127.752 349.5,119.5C 350.855,118.812 351.855,117.812 352.5,116.5 Z"/></g>
<g><path style="opacity:1" fill="#737684" d="M 364.5,116.5 C 366.124,116.36 367.29,117.027 368,118.5C 369.11,116.963 370.61,116.297 372.5,116.5C 372.5,117.5 372.5,118.5 372.5,119.5C 371.07,119.421 369.736,119.754 368.5,120.5C 367.513,123.768 367.18,127.102 367.5,130.5C 366.5,130.5 365.5,130.5 364.5,130.5C 364.5,125.833 364.5,121.167 364.5,116.5 Z"/></g>
<g><path style="opacity:1" fill="#777d88" d="M 376.5,116.5 C 378.833,116.5 381.167,116.5 383.5,116.5C 383.578,119.487 382.411,120.153 380,118.5C 378.72,118.613 377.887,119.28 377.5,120.5C 378.768,122.047 380.435,123.047 382.5,123.5C 383.91,125.949 383.576,128.116 381.5,130C 379.19,130.497 376.857,130.663 374.5,130.5C 374.065,127.387 375.065,126.721 377.5,128.5C 379,128.547 380,127.881 380.5,126.5C 378.78,125.08 376.946,123.747 375,122.5C 374.252,120.16 374.752,118.16 376.5,116.5 Z"/></g>
<g><path style="opacity:1" fill="#757e8b" d="M 390.5,116.5 C 398.33,115.495 401.496,118.828 400,126.5C 395.489,131.757 391.156,131.757 387,126.5C 385.581,122.082 386.748,118.749 390.5,116.5 Z"/></g>
<g><path style="opacity:1" fill="#80838b" d="M 403.5,116.5 C 405.124,116.36 406.29,117.027 407,118.5C 410.374,115.595 413.374,115.928 416,119.5C 416.499,123.152 416.665,126.818 416.5,130.5C 415.167,130.5 413.833,130.5 412.5,130.5C 412.5,126.833 412.5,123.167 412.5,119.5C 410.533,119.261 408.699,119.594 407,120.5C 406.502,123.817 406.335,127.15 406.5,130.5C 405.5,130.5 404.5,130.5 403.5,130.5C 403.5,125.833 403.5,121.167 403.5,116.5 Z"/></g>
<g><path style="opacity:1" fill="#777b85" d="M 421.5,116.5 C 424.685,116.02 427.519,116.686 430,118.5C 430.499,122.486 430.666,126.486 430.5,130.5C 428.876,130.64 427.71,129.973 427,128.5C 420.929,132.21 418.596,130.543 420,123.5C 422.577,122.729 425.077,121.729 427.5,120.5C 425.515,118.067 423.348,118.067 421,120.5C 420.421,119.072 420.588,117.738 421.5,116.5 Z"/></g>
<g><path style="opacity:1" fill="#7c818b" d="M 436.5,116.5 C 438.833,116.5 441.167,116.5 443.5,116.5C 443.719,117.675 443.386,118.675 442.5,119.5C 440.929,118.691 439.262,118.357 437.5,118.5C 437.351,119.552 437.517,120.552 438,121.5C 442.081,122.232 443.748,124.565 443,128.5C 440.163,130.585 437.163,130.919 434,129.5C 433.312,128.668 433.479,128.002 434.5,127.5C 436.901,129.062 438.901,128.729 440.5,126.5C 438.573,124.898 436.406,123.565 434,122.5C 433.833,121.833 433.667,121.167 433.5,120.5C 434.286,118.959 435.286,117.626 436.5,116.5 Z"/></g>
<g><path style="opacity:1" fill="#eaecec" d="M 201.5,118.5 C 203.912,118.244 205.579,119.244 206.5,121.5C 204.167,122.833 201.833,122.833 199.5,121.5C 200.193,120.482 200.859,119.482 201.5,118.5 Z"/></g>
<g><path style="opacity:1" fill="#f7fbf9" d="M 215.5,119.5 C 221.313,119.062 222.98,121.562 220.5,127C 214.593,127.746 212.927,125.246 215.5,119.5 Z"/></g>
<g><path style="opacity:1" fill="#fdfdfa" d="M 272.5,119.5 C 278.313,119.062 279.98,121.562 277.5,127C 271.593,127.746 269.927,125.246 272.5,119.5 Z"/></g>
<g><path style="opacity:1" fill="#f7fbf9" d="M 296.5,119.5 C 302.313,119.062 303.98,121.562 301.5,127C 295.593,127.746 293.927,125.246 296.5,119.5 Z"/></g>
<g><path style="opacity:1" fill="#f2f4ef" d="M 314.5,118.5 C 317.5,118.167 318.833,119.5 318.5,122.5C 316.396,122.799 314.396,122.466 312.5,121.5C 313.193,120.482 313.859,119.482 314.5,118.5 Z"/></g>
<g><path style="opacity:1" fill="#faf6f0" d="M 337.5,119.5 C 343.468,119.605 344.802,122.105 341.5,127C 339.866,127.494 338.199,127.66 336.5,127.5C 336.279,124.721 336.612,122.054 337.5,119.5 Z"/></g>
<g><path style="opacity:1" fill="#eaecec" d="M 353.5,118.5 C 355.912,118.244 357.579,119.244 358.5,121.5C 356.167,122.833 353.833,122.833 351.5,121.5C 352.193,120.482 352.859,119.482 353.5,118.5 Z"/></g>
<g><path style="opacity:1" fill="#f8f6f2" d="M 390.5,119.5 C 396.703,118.757 398.703,121.257 396.5,127C 389.75,128.469 387.75,125.969 390.5,119.5 Z"/></g>
<g><path style="opacity:1" fill="#ecede9" d="M 423.5,123.5 C 424.833,123.5 426.167,123.5 427.5,123.5C 427.773,125.958 426.773,127.625 424.5,128.5C 422.296,127.218 421.962,125.551 423.5,123.5 Z"/></g>
<g><path style="opacity:1" fill="#25283b" d="M 766.5,124.5 C 768.117,125.589 768.95,127.256 769,129.5C 770.333,128.167 771.667,128.167 773,129.5C 773.758,131.769 773.591,133.936 772.5,136C 770.687,135.954 769.021,136.12 767.5,136.5C 766.509,132.555 766.176,128.555 766.5,124.5 Z"/></g>
<g><path style="opacity:1" fill="#243d2a" d="M 901.5,124.5 C 902.794,126.048 903.461,128.048 903.5,130.5C 903.167,132.5 902.833,134.5 902.5,136.5C 901.509,132.555 901.176,128.555 901.5,124.5 Z"/></g>
<g><path style="opacity:1" fill="#1f2528" d="M 906.5,124.5 C 907.794,126.048 908.461,128.048 908.5,130.5C 908.167,132.5 907.833,134.5 907.5,136.5C 906.509,132.555 906.176,128.555 906.5,124.5 Z"/></g>
<g><path style="opacity:1" fill="#283c41" d="M 920.5,124.5 C 921.5,124.5 922.5,124.5 923.5,124.5C 923.5,128.5 923.5,132.5 923.5,136.5C 921.523,135.851 919.69,135.851 918,136.5C 913.333,133.833 913.333,131.167 918,128.5C 918.772,128.645 919.439,128.978 920,129.5C 920.494,127.866 920.66,126.199 920.5,124.5 Z"/></g>
<g><path style="opacity:1" fill="#20262c" d="M 1041.5,124.5 C 1042.79,126.048 1043.46,128.048 1043.5,130.5C 1043.17,132.5 1042.83,134.5 1042.5,136.5C 1041.4,135.385 1040.23,135.385 1039,136.5C 1035.16,134.62 1034.66,132.12 1037.5,129C 1038.78,128.316 1039.95,128.483 1041,129.5C 1041.49,127.866 1041.66,126.199 1041.5,124.5 Z"/></g>
<g><path style="opacity:1" fill="#1e2528" d="M 1055.5,124.5 C 1056.79,126.048 1057.46,128.048 1057.5,130.5C 1057.17,132.5 1056.83,134.5 1056.5,136.5C 1055.51,132.555 1055.18,128.555 1055.5,124.5 Z"/></g>
<g><path style="opacity:1" fill="#243d2a" d="M 668.5,125.5 C 669.787,126.871 670.453,128.705 670.5,131C 670.167,132.833 669.833,134.667 669.5,136.5C 668.511,132.893 668.177,129.226 668.5,125.5 Z"/></g>
<g><path style="opacity:1" fill="#27343c" d="M 673.5,125.5 C 676.93,125.107 680.096,125.773 683,127.5C 683.994,134.671 680.827,137.671 673.5,136.5C 673.5,132.833 673.5,129.167 673.5,125.5 Z"/></g>
<g><path style="opacity:1" fill="#273440" d="M 729.5,125.5 C 730.675,125.281 731.675,125.614 732.5,126.5C 735.76,133.435 737.094,133.102 736.5,125.5C 737.5,125.5 738.5,125.5 739.5,125.5C 739.5,129.167 739.5,132.833 739.5,136.5C 738.448,136.649 737.448,136.483 736.5,136C 735,133.833 733.5,131.667 732,129.5C 731.814,131.9 731.314,134.234 730.5,136.5C 729.511,132.893 729.177,129.226 729.5,125.5 Z"/></g>
<g><path style="opacity:1" fill="#19c0d8" d="M 676.5,127.5 C 681.478,127.952 682.478,130.119 679.5,134C 678.552,134.483 677.552,134.649 676.5,134.5C 676.5,132.167 676.5,129.833 676.5,127.5 Z"/></g>
<g><path style="opacity:1" fill="#232734" d="M 743.5,128.5 C 749.488,128.664 750.821,131.164 747.5,136C 744.099,137.135 742.099,135.968 741.5,132.5C 741.803,130.886 742.47,129.552 743.5,128.5 Z"/></g>
<g><path style="opacity:1" fill="#20292c" d="M 751.5,128.5 C 755.089,128.73 758.755,128.897 762.5,129C 763.777,131.466 763.777,133.966 762.5,136.5C 761.534,134.604 761.201,132.604 761.5,130.5C 760.5,130.5 759.5,130.5 758.5,130.5C 757.833,138.5 757.167,138.5 756.5,130.5C 755.5,130.5 754.5,130.5 753.5,130.5C 753.799,132.604 753.466,134.604 752.5,136.5C 751.52,133.914 751.187,131.247 751.5,128.5 Z"/></g>
<g><path style="opacity:1" fill="#293d40" d="M 775.5,128.5 C 777.545,128.834 779.211,129.168 780.5,129.5C 778.827,131.523 778.16,133.856 778.5,136.5C 777.5,136.5 776.5,136.5 775.5,136.5C 775.5,133.833 775.5,131.167 775.5,128.5 Z"/></g>
<g><path style="opacity:1" fill="#232f36" d="M 883.5,128.5 C 885.681,128.914 888.015,129.081 890.5,129C 892.661,134.141 891.161,136.308 886,135.5C 885.798,137.256 885.298,138.922 884.5,140.5C 883.509,136.555 883.176,132.555 883.5,128.5 Z"/></g>
<g><path style="opacity:1" fill="#243d2a" d="M 910.5,128.5 C 911.748,129.334 912.415,130.667 912.5,132.5C 912.167,133.833 911.833,135.167 911.5,136.5C 910.52,133.914 910.187,131.247 910.5,128.5 Z"/></g>
<g><path style="opacity:1" fill="#26313b" d="M 927.5,128.5 C 933.488,128.664 934.821,131.164 931.5,136C 927.798,137.393 925.798,136.226 925.5,132.5C 925.803,130.886 926.47,129.552 927.5,128.5 Z"/></g>
<g><path style="opacity:1" fill="#27393e" d="M 1028.5,128.5 C 1032.56,127.848 1034.56,129.515 1034.5,133.5C 1028.68,133.347 1028.34,134.013 1033.5,135.5C 1026.79,136.788 1025.12,134.455 1028.5,128.5 Z"/></g>
<g><path style="opacity:1" fill="#293d3e" d="M 1045.5,128.5 C 1047.31,129.918 1047.97,131.918 1047.5,134.5C 1048.5,134.5 1049.5,134.5 1050.5,134.5C 1050.5,132.5 1050.5,130.5 1050.5,128.5C 1051.5,128.5 1052.5,128.5 1053.5,128.5C 1053.81,131.247 1053.48,133.914 1052.5,136.5C 1050.33,136.273 1048.16,135.94 1046,135.5C 1045.5,133.19 1045.34,130.857 1045.5,128.5 Z"/></g>
<g><path style="opacity:1" fill="#232e34" d="M 1207.5,125.5 C 1213.88,125.772 1214.05,126.772 1208,128.5C 1206.49,132.771 1207.99,135.105 1212.5,135.5C 1206.08,137.372 1203.58,135.038 1205,128.5C 1206.04,127.627 1206.88,126.627 1207.5,125.5 Z"/></g>
<g><path style="opacity:1" fill="#222c31" d="M 1216.5,128.5 C 1221.75,128.236 1223.42,130.569 1221.5,135.5C 1217.84,137.345 1215.51,136.345 1214.5,132.5C 1214.8,130.886 1215.47,129.552 1216.5,128.5 Z"/></g>
<g><path style="opacity:1" fill="#1e2729" d="M 1224.5,128.5 C 1225.94,129.363 1227.27,129.363 1228.5,128.5C 1228.83,128.833 1229.17,129.167 1229.5,129.5C 1228.68,130.386 1227.68,130.719 1226.5,130.5C 1226.8,132.604 1226.47,134.604 1225.5,136.5C 1224.52,133.914 1224.19,131.247 1224.5,128.5 Z"/></g>
<g><path style="opacity:1" fill="#272946" d="M 1236.5,130.5 C 1235.5,130.5 1234.5,130.5 1233.5,130.5C 1233.8,132.604 1233.47,134.604 1232.5,136.5C 1231.17,133.833 1231.17,131.167 1232.5,128.5C 1233.5,129.833 1234.5,129.833 1235.5,128.5C 1236.3,128.957 1236.63,129.624 1236.5,130.5 Z"/></g>
<g><path style="opacity:1" fill="#27393e" d="M 1236.5,130.5 C 1240.89,127.257 1243.55,128.257 1244.5,133.5C 1238.68,133.347 1238.34,134.013 1243.5,135.5C 1238.7,137.375 1236.37,135.709 1236.5,130.5 Z"/></g>
<g><path style="opacity:1" fill="#232f32" d="M 874.5,125.5 C 875.833,125.5 877.167,125.5 878.5,125.5C 878.792,129.207 879.792,132.707 881.5,136C 881.167,136.167 880.833,136.333 880.5,136.5C 879.377,135.456 878.044,134.79 876.5,134.5C 874.716,135.156 873.049,135.656 871.5,136C 872.235,132.43 873.235,128.93 874.5,125.5 Z"/></g>
<g><path style="opacity:1" fill="#232a32" d="M 1020.5,125.5 C 1027.14,126.022 1027.14,126.855 1020.5,128C 1018.27,132.949 1019.93,135.449 1025.5,135.5C 1018.53,137.356 1016.03,134.689 1018,127.5C 1018.99,126.934 1019.83,126.267 1020.5,125.5 Z"/></g>
<g><path style="opacity:1" fill="#23b6d0" d="M 743.5,130.5 C 744.833,130.5 746.167,130.5 747.5,130.5C 747.5,131.833 747.5,133.167 747.5,134.5C 746.167,134.5 744.833,134.5 743.5,134.5C 743.5,133.167 743.5,131.833 743.5,130.5 Z"/></g>
<g><path style="opacity:1" fill="#19c0e5" d="M 768.5,130.5 C 769.5,130.5 770.5,130.5 771.5,130.5C 771.5,131.833 771.5,133.167 771.5,134.5C 770.5,134.5 769.5,134.5 768.5,134.5C 768.5,133.167 768.5,131.833 768.5,130.5 Z"/></g>
<g><path style="opacity:1" fill="#252f38" d="M 783.5,128.5 C 787.5,127.833 789.167,129.5 788.5,133.5C 783.318,133.557 783.318,134.224 788.5,135.5C 784.631,137.425 782.298,136.258 781.5,132C 781.978,130.697 782.645,129.531 783.5,128.5 Z"/></g>
<g><path style="opacity:1" fill="#27a0a6" d="M 876.5,127.5 C 877.339,128.641 878.006,129.974 878.5,131.5C 877.167,132.833 875.833,132.833 874.5,131.5C 875.63,130.378 876.297,129.044 876.5,127.5 Z"/></g>
<g><path style="opacity:1" fill="#1bb9e8" d="M 885.5,130.5 C 886.5,130.5 887.5,130.5 888.5,130.5C 888.5,131.833 888.5,133.167 888.5,134.5C 887.5,134.5 886.5,134.5 885.5,134.5C 885.5,133.167 885.5,131.833 885.5,130.5 Z"/></g>
<g><path style="opacity:1" fill="#252f38" d="M 894.5,128.5 C 898.5,127.833 900.167,129.5 899.5,133.5C 894.318,133.557 894.318,134.224 899.5,135.5C 895.631,137.425 893.298,136.258 892.5,132C 892.978,130.697 893.645,129.531 894.5,128.5 Z"/></g>
<g><path style="opacity:1" fill="#19c0e5" d="M 917.5,130.5 C 918.5,130.5 919.5,130.5 920.5,130.5C 920.5,131.833 920.5,133.167 920.5,134.5C 919.5,134.5 918.5,134.5 917.5,134.5C 917.5,133.167 917.5,131.833 917.5,130.5 Z"/></g>
<g><path style="opacity:1" fill="#14c3ed" d="M 927.5,130.5 C 928.5,130.5 929.5,130.5 930.5,130.5C 930.5,131.833 930.5,133.167 930.5,134.5C 929.5,134.5 928.5,134.5 927.5,134.5C 927.5,133.167 927.5,131.833 927.5,130.5 Z"/></g>
<g><path style="opacity:1" fill="#27aece" d="M 1037.5,130.5 C 1038.83,130.5 1040.17,130.5 1041.5,130.5C 1041.5,131.833 1041.5,133.167 1041.5,134.5C 1040.17,134.5 1038.83,134.5 1037.5,134.5C 1037.5,133.167 1037.5,131.833 1037.5,130.5 Z"/></g>
<g><path style="opacity:1" fill="#212631" d="M 1060.5,128.5 C 1066.37,128.206 1068.03,130.872 1065.5,136.5C 1063.72,136.431 1061.89,136.097 1060,135.5C 1059.41,132.21 1060.91,130.71 1064.5,131C 1062.56,130.878 1061.23,130.045 1060.5,128.5 Z"/></g>
<g><path style="opacity:1" fill="#20b5d9" d="M 1216.5,130.5 C 1217.83,130.5 1219.17,130.5 1220.5,130.5C 1220.5,131.833 1220.5,133.167 1220.5,134.5C 1219.17,134.5 1217.83,134.5 1216.5,134.5C 1216.5,133.167 1216.5,131.833 1216.5,130.5 Z"/></g>
<g><path style="opacity:1" fill="#1cb2b1" d="M 1062.5,132.5 C 1063.38,132.369 1064.04,132.702 1064.5,133.5C 1062.19,134.873 1061.52,134.54 1062.5,132.5 Z"/></g>
<g><path style="opacity:1" fill="#242c35" d="M 1247.5,128.5 C 1253.24,127.821 1254.9,130.155 1252.5,135.5C 1248.62,137.446 1246.29,136.28 1245.5,132C 1245.98,130.697 1246.64,129.531 1247.5,128.5 Z"/></g>
<g><path style="opacity:1" fill="#12c8e5" d="M 1248.5,130.5 C 1249.5,130.5 1250.5,130.5 1251.5,130.5C 1251.5,131.833 1251.5,133.167 1251.5,134.5C 1250.5,134.5 1249.5,134.5 1248.5,134.5C 1248.5,133.167 1248.5,131.833 1248.5,130.5 Z"/></g>
<g><path style="opacity:1" fill="#252a80" d="M 42.5,161.5 C 41.8826,161.611 41.3826,161.944 41,162.5C 40.3333,158.5 40.3333,154.5 41,150.5C 42.376,154.164 42.876,157.831 42.5,161.5 Z"/></g>
<g><path style="opacity:1" fill="#37247c" d="M 73.5,150.5 C 74.6453,154.311 74.8119,158.311 74,162.5C 73.6174,161.944 73.1174,161.611 72.5,161.5C 72.307,157.876 72.6404,154.21 73.5,150.5 Z"/></g>
<g><path style="opacity:1" fill="#202528" d="M 659.5,150.5 C 1075.5,150.5 1491.5,150.5 1907.5,150.5C 1699.83,151.833 1491.83,152.5 1283.5,152.5C 1075.17,152.5 867.166,151.833 659.5,150.5 Z"/></g>
<g><path style="opacity:1" fill="#8f582e" d="M 12.5,151.5 C 13.6433,154.976 13.8099,158.642 13,162.5C 12.3076,161.975 11.8076,161.308 11.5,160.5C 12.4066,157.579 12.7399,154.579 12.5,151.5 Z"/></g>
<g><path style="opacity:1" fill="#275593" d="M 5.5,151.5 C 6.28913,151.783 6.9558,152.283 7.5,153C 6.71173,156.076 6.21173,159.242 6,162.5C 5.50137,158.848 5.3347,155.182 5.5,151.5 Z"/></g>
<g><path style="opacity:1" fill="#cac2bf" d="M 73.5,150.5 C 72.6404,154.21 72.307,157.876 72.5,161.5C 69.7805,162.842 68.1138,161.842 67.5,158.5C 67.981,155.686 69.6477,154.352 72.5,154.5C 72.2322,152.901 72.5655,151.568 73.5,150.5 Z"/></g>
<g><path style="opacity:1" fill="#c1bab5" d="M 82.5,155.5 C 82.38,156.586 81.7133,157.253 80.5,157.5C 79.2867,157.253 78.62,156.586 78.5,155.5C 79.8333,154.167 81.1667,154.167 82.5,155.5 Z"/></g>
<g><path style="opacity:1" fill="#f0f3ec" d="M 108.5,155.5 C 112.35,155.701 113.35,157.534 111.5,161C 110.552,161.483 109.552,161.649 108.5,161.5C 107.167,159.5 107.167,157.5 108.5,155.5 Z"/></g>
<g><path style="opacity:1" fill="#50618b" d="M 130.5,155.5 C 131.708,154.218 133.042,154.218 134.5,155.5C 133.443,155.906 132.109,155.906 130.5,155.5 Z"/></g>
<g><path style="opacity:1" fill="#272b81" d="M 28.5,155.5 C 27.7904,157.746 27.2904,160.08 27,162.5C 26.3333,159.833 26.3333,157.167 27,154.5C 27.3826,155.056 27.8826,155.389 28.5,155.5 Z"/></g>
<g><path style="opacity:1" fill="#3b5b93" d="M 33.5,155.5 C 34.5417,154.209 35.7083,154.209 37,155.5C 37.6667,157.833 37.6667,160.167 37,162.5C 36.6667,160.5 36.3333,158.5 36,156.5C 35.3292,155.748 34.4959,155.414 33.5,155.5 Z"/></g>
<g><path style="opacity:1" fill="#282b75" d="M 95.5,158.5 C 96.8484,157.814 98.015,156.814 99,155.5C 99.6667,157.833 99.6667,160.167 99,162.5C 98.51,161.207 98.3433,159.873 98.5,158.5C 97.5,158.5 96.5,158.5 95.5,158.5 Z"/></g>
<g><path style="opacity:1" fill="#282b75" d="M 156.5,158.5 C 157.848,157.814 159.015,156.814 160,155.5C 160.667,157.833 160.667,160.167 160,162.5C 159.51,161.207 159.343,159.873 159.5,158.5C 158.5,158.5 157.5,158.5 156.5,158.5 Z"/></g>
<g><path style="opacity:1" fill="#394b81" d="M 28.5,155.5 C 29.5417,154.209 30.7083,154.209 32,155.5C 32.6667,157.833 32.6667,160.167 32,162.5C 31.6667,160.5 31.3333,158.5 31,156.5C 30.3292,155.748 29.4959,155.414 28.5,155.5 Z"/></g>
<g><path style="opacity:1" fill="#3a2732" d="M 54.5,156.5 C 56.4144,157.185 58.4144,157.685 60.5,158C 58.2729,158.121 56.4396,158.954 55,160.5C 54.51,159.207 54.3433,157.873 54.5,156.5 Z"/></g>
<g><path style="opacity:1" fill="#364364" d="M 78.5,155.5 C 78.62,156.586 79.2867,157.253 80.5,157.5C 81.7133,157.253 82.38,156.586 82.5,155.5C 83.404,156.209 83.7373,157.209 83.5,158.5C 77.3036,158.574 76.9703,159.741 82.5,162C 81.1667,162.667 79.8333,162.667 78.5,162C 77.1888,159.726 77.1888,157.56 78.5,155.5 Z"/></g>
<g><path style="opacity:1" fill="#5d245b" d="M 108.5,155.5 C 107.167,157.5 107.167,159.5 108.5,161.5C 107.698,162.952 107.198,164.618 107,166.5C 106.333,162.5 106.333,158.5 107,154.5C 107.383,155.056 107.883,155.389 108.5,155.5 Z"/></g>
<g><path style="opacity:1" fill="#59456f" d="M 108.5,155.5 C 111.657,153.725 113.324,154.725 113.5,158.5C 113.324,162.275 111.657,163.275 108.5,161.5C 109.552,161.649 110.552,161.483 111.5,161C 113.35,157.534 112.35,155.701 108.5,155.5 Z"/></g>
<g><path style="opacity:1" fill="#312a40" d="M 115.5,156.5 C 117.414,157.185 119.414,157.685 121.5,158C 119.273,158.121 117.44,158.954 116,160.5C 115.51,159.207 115.343,157.873 115.5,156.5 Z"/></g>
<g><path style="opacity:1" fill="#4f3246" d="M 130.5,155.5 C 130.557,156.609 130.89,157.609 131.5,158.5C 129.448,157.947 129.115,156.947 130.5,155.5 Z"/></g>
<g><path style="opacity:1" fill="#585978" d="M 137.5,154.5 C 141.893,154.457 142.226,154.957 138.5,156C 136.682,159.387 137.682,161.387 141.5,162C 139.888,162.72 138.388,162.554 137,161.5C 136.297,159.071 136.463,156.738 137.5,154.5 Z"/></g>
<g><path style="opacity:1" fill="#2d79b6" d="M 146.5,154.5 C 147.289,154.783 147.956,155.283 148.5,156C 147.736,158.069 147.236,160.236 147,162.5C 146.503,159.854 146.336,157.187 146.5,154.5 Z"/></g>
<g><path style="opacity:1" fill="#485d8e" d="M 131.5,158.5 C 132.5,158.5 133.5,158.5 134.5,158.5C 134.649,159.552 134.483,160.552 134,161.5C 133.302,160.309 132.469,159.309 131.5,158.5 Z"/></g>
<g><path style="opacity:1" fill="#486695" d="M 42.5,161.5 C 43.8221,161.67 44.9887,161.337 46,160.5C 46.3333,158.833 46.6667,157.167 47,155.5C 47.6667,157.5 47.6667,159.5 47,161.5C 45.3845,162.801 43.8845,162.801 42.5,161.5 Z"/></g>
<g><path style="opacity:1" fill="#583476" d="M 95.5,158.5 C 95.0133,159.473 94.5133,160.473 94,161.5C 93.2748,159.843 93.7748,158.843 95.5,158.5 Z"/></g>
<g><path style="opacity:1" fill="#583476" d="M 156.5,158.5 C 156.013,159.473 155.513,160.473 155,161.5C 154.275,159.843 154.775,158.843 156.5,158.5 Z"/></g>
<g><path style="opacity:1" fill="#fec007" d="M 1623.5,160.5 C 1645.5,160.333 1667.5,160.5 1689.5,161C 1690,161.5 1690.5,162 1691,162.5C 1691.67,180.5 1691.67,198.5 1691,216.5C 1690.5,217 1690,217.5 1689.5,218C 1667.5,218.667 1645.5,218.667 1623.5,218C 1623,217.5 1622.5,217 1622,216.5C 1621.33,198.5 1621.33,180.5 1622,162.5C 1622.72,161.956 1623.22,161.289 1623.5,160.5 Z"/></g>
<g><path style="opacity:1" fill="#db3545" d="M 1697.5,160.5 C 1719.5,160.333 1741.5,160.5 1763.5,161C 1764,161.5 1764.5,162 1765,162.5C 1765.67,180.5 1765.67,198.5 1765,216.5C 1764.5,217 1764,217.5 1763.5,218C 1741.5,218.667 1719.5,218.667 1697.5,218C 1697,217.5 1696.5,217 1696,216.5C 1695.33,198.5 1695.33,180.5 1696,162.5C 1696.72,161.956 1697.22,161.289 1697.5,160.5 Z"/></g>
<g><path style="opacity:1" fill="#232883" d="M 1205.5,166.5 C 1206.22,168.218 1206.89,170.052 1207.5,172C 1206.74,174.069 1206.24,176.236 1206,178.5C 1205.5,174.514 1205.33,170.514 1205.5,166.5 Z"/></g>
<g><path style="opacity:1" fill="#232883" d="M 1329.5,166.5 C 1330.22,168.218 1330.89,170.052 1331.5,172C 1330.74,174.069 1330.24,176.236 1330,178.5C 1329.5,174.514 1329.33,170.514 1329.5,166.5 Z"/></g>
<g><path style="opacity:1" fill="#297ab6" d="M 672.5,167.5 C 673.643,170.976 673.81,174.642 673,178.5C 673.021,174.991 672.188,171.825 670.5,169C 671.416,168.722 672.082,168.222 672.5,167.5 Z"/></g>
<g><path style="opacity:1" fill="#5c282f" d="M 877.5,173.5 C 876.167,173.5 874.833,173.5 873.5,173.5C 873.5,174.833 873.5,176.167 873.5,177.5C 874.833,177.5 876.167,177.5 877.5,177.5C 876.081,178.451 874.415,178.784 872.5,178.5C 872.5,174.833 872.5,171.167 872.5,167.5C 878.167,167.664 878.5,167.997 873.5,168.5C 873.5,169.833 873.5,171.167 873.5,172.5C 875.099,172.232 876.432,172.566 877.5,173.5 Z"/></g>
<g><path style="opacity:1" fill="#602a67" d="M 729.5,167.5 C 730.239,167.369 730.906,167.536 731.5,168C 730.707,171.411 730.207,174.911 730,178.5C 729.501,174.848 729.335,171.182 729.5,167.5 Z"/></g>
<g><path style="opacity:1" fill="#2b257c" d="M 1029.5,167.5 C 1030.64,170.976 1030.81,174.642 1030,178.5C 1030.02,174.991 1029.19,171.825 1027.5,169C 1028.42,168.722 1029.08,168.222 1029.5,167.5 Z"/></g>
<g><path style="opacity:1" fill="#ebd1b9" d="M 1056.5,168.5 C 1057.83,169.833 1057.83,171.167 1056.5,172.5C 1055.41,172.38 1054.75,171.713 1054.5,170.5C 1054.75,169.287 1055.41,168.62 1056.5,168.5 Z"/></g>
<g><path style="opacity:1" fill="#7e2a5f" d="M 738.5,167.5 C 739.787,168.871 740.453,170.705 740.5,173C 740.333,174.833 740.167,176.667 740,178.5C 739.68,174.786 739.18,171.119 738.5,167.5 Z"/></g>
<g><path style="opacity:1" fill="#925931" d="M 1018.5,168.5 C 1019.5,168.5 1020.5,168.5 1021.5,168.5C 1021.67,171.85 1021.5,175.183 1021,178.5C 1020.67,175.5 1020.33,172.5 1020,169.5C 1018.89,170.712 1018.39,170.379 1018.5,168.5 Z"/></g>
<g><path style="opacity:1" fill="#927b6d" d="M 1047.5,173.5 C 1046.45,173.649 1045.45,173.483 1044.5,173C 1046.11,171.951 1046.77,170.451 1046.5,168.5C 1045.45,168.649 1044.45,168.483 1043.5,168C 1048.27,167.19 1049.61,169.023 1047.5,173.5 Z"/></g>
<g><path style="opacity:1" fill="#78788c" d="M 1056.5,168.5 C 1055.41,168.62 1054.75,169.287 1054.5,170.5C 1054.75,171.713 1055.41,172.38 1056.5,172.5C 1054.32,173.983 1052.98,173.316 1052.5,170.5C 1052.98,167.684 1054.32,167.017 1056.5,168.5 Z"/></g>
<g><path style="opacity:1" fill="#6c462c" d="M 1069.5,167.5 C 1075.17,167.664 1075.5,167.997 1070.5,168.5C 1070.5,169.5 1070.5,170.5 1070.5,171.5C 1074.17,172.045 1073.84,172.378 1069.5,172.5C 1069.5,170.833 1069.5,169.167 1069.5,167.5 Z"/></g>
<g><path style="opacity:1" fill="#2a3b56" d="M 1061.5,167.5 C 1067.17,167.664 1067.5,167.997 1062.5,168.5C 1062.5,169.5 1062.5,170.5 1062.5,171.5C 1066.17,172.045 1065.84,172.378 1061.5,172.5C 1061.5,170.833 1061.5,169.167 1061.5,167.5 Z"/></g>
<g><path style="opacity:1" fill="#2f294b" d="M 1078.5,167.5 C 1084.17,167.664 1084.5,167.997 1079.5,168.5C 1079.5,169.5 1079.5,170.5 1079.5,171.5C 1083.17,172.045 1082.84,172.378 1078.5,172.5C 1078.5,170.833 1078.5,169.167 1078.5,167.5 Z"/></g>
<g><path style="opacity:1" fill="#553030" d="M 1099.5,172.5 C 1098.17,172.5 1096.83,172.5 1095.5,172.5C 1095.5,170.833 1095.5,169.167 1095.5,167.5C 1101.17,167.664 1101.5,167.997 1096.5,168.5C 1096.5,169.5 1096.5,170.5 1096.5,171.5C 1097.79,171.263 1098.79,171.596 1099.5,172.5 Z"/></g>
<g><path style="opacity:1" fill="#50618b" d="M 1286.5,171.5 C 1287.71,170.218 1289.04,170.218 1290.5,171.5C 1289.44,171.906 1288.11,171.906 1286.5,171.5 Z"/></g>
<g><path style="opacity:1" fill="#c1bab5" d="M 1297.5,171.5 C 1297.38,172.586 1296.71,173.253 1295.5,173.5C 1294.29,173.253 1293.62,172.586 1293.5,171.5C 1294.83,170.167 1296.17,170.167 1297.5,171.5 Z"/></g>
<g><path style="opacity:1" fill="#fff0e0" d="M 1343.5,171.5 C 1344.83,173.5 1344.83,175.5 1343.5,177.5C 1339.65,177.299 1338.65,175.466 1340.5,172C 1341.45,171.517 1342.45,171.351 1343.5,171.5 Z"/></g>
<g><path style="opacity:1" fill="#8c562b" d="M 1349.5,171.5 C 1348.54,173.265 1348.21,175.265 1348.5,177.5C 1347.78,175.444 1347.12,173.277 1346.5,171C 1347.13,170.25 1347.63,169.416 1348,168.5C 1348.5,169.667 1349.33,170.5 1350.5,171C 1350.27,171.399 1349.94,171.565 1349.5,171.5 Z"/></g>
<g><path style="opacity:1" fill="#5a8bbd" d="M 1349.5,171.5 C 1349.24,173.792 1349.58,175.959 1350.5,178C 1349.56,178.692 1348.9,178.525 1348.5,177.5C 1348.21,175.265 1348.54,173.265 1349.5,171.5 Z"/></g>
<g><path style="opacity:1" fill="#29578e" d="M 745.5,174.5 C 746.848,173.814 748.015,172.814 749,171.5C 749.667,173.833 749.667,176.167 749,178.5C 748.51,177.207 748.343,175.873 748.5,174.5C 747.5,174.5 746.5,174.5 745.5,174.5 Z"/></g>
<g><path style="opacity:1" fill="#aca7b0" d="M 1086.5,170.5 C 1087.22,170.918 1087.72,171.584 1088,172.5C 1089.94,171.14 1091.6,171.473 1093,173.5C 1093.6,177.7 1091.93,179.033 1088,177.5C 1086.8,175.323 1086.3,172.989 1086.5,170.5 Z"/></g>
<g><path style="opacity:1" fill="#272b81" d="M 1259.5,171.5 C 1258.79,173.746 1258.29,176.08 1258,178.5C 1257.33,175.833 1257.33,173.167 1258,170.5C 1258.38,171.056 1258.88,171.389 1259.5,171.5 Z"/></g>
<g><path style="opacity:1" fill="#3b5b93" d="M 1264.5,171.5 C 1265.54,170.209 1266.71,170.209 1268,171.5C 1268.67,173.833 1268.67,176.167 1268,178.5C 1267.67,176.5 1267.33,174.5 1267,172.5C 1266.33,171.748 1265.5,171.414 1264.5,171.5 Z"/></g>
<g><path style="opacity:1" fill="#8d562a" d="M 1359.5,171.5 C 1358.79,173.746 1358.29,176.08 1358,178.5C 1357.83,177.333 1357.67,176.167 1357.5,175C 1357.61,173.319 1358.27,172.152 1359.5,171.5 Z"/></g>
<g><path style="opacity:1" fill="#c9ab8a" d="M 1359.5,171.5 C 1360.5,170.167 1361.5,170.167 1362.5,171.5C 1363.37,173.717 1363.7,176.05 1363.5,178.5C 1362.17,176.167 1360.83,173.833 1359.5,171.5 Z"/></g>
<g><path style="opacity:1" fill="#67a9e4" d="M 1362.5,171.5 C 1363.73,172.152 1364.39,173.319 1364.5,175C 1364.49,176.385 1364.15,177.551 1363.5,178.5C 1363.7,176.05 1363.37,173.717 1362.5,171.5 Z"/></g>
<g><path style="opacity:1" fill="#29578e" d="M 1368.5,174.5 C 1369.85,173.814 1371.02,172.814 1372,171.5C 1372.67,173.833 1372.67,176.167 1372,178.5C 1371.51,177.207 1371.34,175.873 1371.5,174.5C 1370.5,174.5 1369.5,174.5 1368.5,174.5 Z"/></g>
<g><path style="opacity:1" fill="#8d562a" d="M 1409.5,171.5 C 1408.79,173.746 1408.29,176.08 1408,178.5C 1407.83,177.333 1407.67,176.167 1407.5,175C 1407.61,173.319 1408.27,172.152 1409.5,171.5 Z"/></g>
<g><path style="opacity:1" fill="#c9ab8a" d="M 1409.5,171.5 C 1410.5,170.167 1411.5,170.167 1412.5,171.5C 1413.37,173.717 1413.7,176.05 1413.5,178.5C 1412.17,176.167 1410.83,173.833 1409.5,171.5 Z"/></g>
<g><path style="opacity:1" fill="#67a9e4" d="M 1412.5,171.5 C 1413.73,172.152 1414.39,173.319 1414.5,175C 1414.49,176.385 1414.15,177.551 1413.5,178.5C 1413.7,176.05 1413.37,173.717 1412.5,171.5 Z"/></g>
<g><path style="opacity:1" fill="#41494a" d="M 1666.5,171.5 C 1673.23,171.38 1675.4,174.38 1673,180.5C 1667.83,185.667 1662.67,190.833 1657.5,196C 1650.33,198.167 1647.83,195.667 1650,188.5C 1655.7,182.965 1661.2,177.298 1666.5,171.5 Z"/></g>
<g><path style="opacity:1" fill="#3e3d4f" d="M 1725.5,171.5 C 1729.24,171.241 1732.91,171.574 1736.5,172.5C 1737.47,174.396 1737.8,176.396 1737.5,178.5C 1740.19,178.336 1742.85,178.503 1745.5,179C 1745.96,179.414 1746.29,179.914 1746.5,180.5C 1745.05,182.22 1744.21,184.22 1744,186.5C 1743.87,192.914 1743.2,199.247 1742,205.5C 1741.25,206.126 1740.42,206.626 1739.5,207C 1733.5,207.667 1727.5,207.667 1721.5,207C 1720.58,206.626 1719.75,206.126 1719,205.5C 1718.06,199.197 1717.39,192.863 1717,186.5C 1716.33,183.74 1715.49,181.073 1714.5,178.5C 1717.5,178.5 1720.5,178.5 1723.5,178.5C 1723.18,175.789 1723.85,173.456 1725.5,171.5 Z"/></g>
<g><path style="opacity:1" fill="#595979" d="M 758.5,170.5 C 762.893,170.457 763.226,170.957 759.5,172C 757.682,175.387 758.682,177.387 762.5,178C 760.888,178.72 759.388,178.554 758,177.5C 757.297,175.071 757.463,172.738 758.5,170.5 Z"/></g>
<g><path style="opacity:1" fill="#312a40" d="M 764.5,172.5 C 766.414,173.185 768.414,173.685 770.5,174C 768.273,174.121 766.44,174.954 765,176.5C 764.51,175.207 764.343,173.873 764.5,172.5 Z"/></g>
<g><path style="opacity:1" fill="#e1d8d1" d="M 877.5,173.5 C 878.833,174.833 878.833,176.167 877.5,177.5C 876.167,177.5 874.833,177.5 873.5,177.5C 873.5,176.167 873.5,174.833 873.5,173.5C 874.833,173.5 876.167,173.5 877.5,173.5 Z"/></g>
<g><path style="opacity:1" fill="#585978" d="M 882.5,170.5 C 886.893,170.457 887.226,170.957 883.5,172C 881.682,175.387 882.682,177.387 886.5,178C 884.888,178.72 883.388,178.554 882,177.5C 881.297,175.071 881.463,172.738 882.5,170.5 Z"/></g>
<g><path style="opacity:1" fill="#457bb3" d="M 1099.5,172.5 C 1100.65,172.791 1101.32,173.624 1101.5,175C 1101.17,175.833 1100.83,176.667 1100.5,177.5C 1100.66,175.989 1100.32,174.322 1099.5,172.5 Z"/></g>
<g><path style="opacity:1" fill="#557494" d="M 1242.5,170.5 C 1243.55,170.351 1244.55,170.517 1245.5,171C 1241.5,173.333 1241.5,175.667 1245.5,178C 1244.22,178.684 1243.05,178.517 1242,177.5C 1241.3,175.071 1241.46,172.738 1242.5,170.5 Z"/></g>
<g><path style="opacity:1" fill="#394b81" d="M 1259.5,171.5 C 1260.54,170.209 1261.71,170.209 1263,171.5C 1263.67,173.833 1263.67,176.167 1263,178.5C 1262.67,176.5 1262.33,174.5 1262,172.5C 1261.33,171.748 1260.5,171.414 1259.5,171.5 Z"/></g>
<g><path style="opacity:1" fill="#909dcb" d="M 1286.5,171.5 C 1286.66,173.527 1286.5,175.527 1286,177.5C 1283.91,175.228 1284.08,173.228 1286.5,171.5 Z"/></g>
<g><path style="opacity:1" fill="#364364" d="M 1293.5,171.5 C 1293.62,172.586 1294.29,173.253 1295.5,173.5C 1296.71,173.253 1297.38,172.586 1297.5,171.5C 1298.4,172.209 1298.74,173.209 1298.5,174.5C 1292.3,174.574 1291.97,175.741 1297.5,178C 1296.17,178.667 1294.83,178.667 1293.5,178C 1292.19,175.726 1292.19,173.56 1293.5,171.5 Z"/></g>
<g><path style="opacity:1" fill="#585978" d="M 1305.5,170.5 C 1309.89,170.457 1310.23,170.957 1306.5,172C 1304.68,175.387 1305.68,177.387 1309.5,178C 1307.89,178.72 1306.39,178.554 1305,177.5C 1304.3,175.071 1304.46,172.738 1305.5,170.5 Z"/></g>
<g><path style="opacity:1" fill="#5b6a8e" d="M 1343.5,171.5 C 1342.45,171.351 1341.45,171.517 1340.5,172C 1338.65,175.466 1339.65,177.299 1343.5,177.5C 1340.34,179.275 1338.68,178.275 1338.5,174.5C 1338.68,170.725 1340.34,169.725 1343.5,171.5 Z"/></g>
<g><path style="opacity:1" fill="#4980bb" d="M 1343.5,171.5 C 1344.69,171.97 1345.36,172.97 1345.5,174.5C 1345.36,176.03 1344.69,177.03 1343.5,177.5C 1344.83,175.5 1344.83,173.5 1343.5,171.5 Z"/></g>
<g><path style="opacity:1" fill="#5b6c90" d="M 1387.5,170.5 C 1391.89,170.457 1392.23,170.957 1388.5,172C 1386.68,175.387 1387.68,177.387 1391.5,178C 1389.89,178.72 1388.39,178.554 1387,177.5C 1386.3,175.071 1386.46,172.738 1387.5,170.5 Z"/></g>
<g><path style="opacity:1" fill="#585978" d="M 1394.5,170.5 C 1398.89,170.457 1399.23,170.957 1395.5,172C 1393.68,175.387 1394.68,177.387 1398.5,178C 1396.89,178.72 1395.39,178.554 1394,177.5C 1393.3,175.071 1393.46,172.738 1394.5,170.5 Z"/></g>
<g><path style="opacity:1" fill="#5e282b" d="M 910.5,171.5 C 911.538,177.31 911.538,178.31 910.5,174.5C 909.448,174.649 908.448,174.483 907.5,174C 909.119,173.764 910.119,172.931 910.5,171.5 Z"/></g>
<g><path style="opacity:1" fill="#324b70" d="M 1038.5,167.5 C 1040.15,169.56 1041.15,172.06 1041.5,175C 1040.81,176.067 1040.31,177.234 1040,178.5C 1039.52,177.552 1039.35,176.552 1039.5,175.5C 1037.71,175.785 1036.05,175.452 1034.5,174.5C 1035.89,174.193 1037.55,174.193 1039.5,174.5C 1039.55,172.097 1039.22,169.764 1038.5,167.5 Z"/></g>
<g><path style="opacity:1" fill="#3d76b4" d="M 1047.5,173.5 C 1049.34,174.204 1049.84,175.537 1049,177.5C 1048.59,176.099 1048.09,174.766 1047.5,173.5 Z"/></g>
<g><path style="opacity:1" fill="#5e282b" d="M 1218.5,171.5 C 1219.54,177.31 1219.54,178.31 1218.5,174.5C 1217.45,174.649 1216.45,174.483 1215.5,174C 1217.12,173.764 1218.12,172.931 1218.5,171.5 Z"/></g>
<g><path style="opacity:1" fill="#5e282b" d="M 1275.5,171.5 C 1276.54,177.31 1276.54,178.31 1275.5,174.5C 1274.45,174.649 1273.45,174.483 1272.5,174C 1274.12,173.764 1275.12,172.931 1275.5,171.5 Z"/></g>
<g><path style="opacity:1" fill="#e5b117" d="M 1667.5,174.5 C 1671.16,174.35 1672.16,175.85 1670.5,179C 1666.16,179.205 1665.16,177.705 1667.5,174.5 Z"/></g>
<g><path style="opacity:1" fill="#db3544" d="M 1726.5,174.5 C 1729.17,174.5 1731.83,174.5 1734.5,174.5C 1734.5,175.833 1734.5,177.167 1734.5,178.5C 1731.83,178.5 1729.17,178.5 1726.5,178.5C 1726.5,177.167 1726.5,175.833 1726.5,174.5 Z"/></g>
<g><path style="opacity:1" fill="#48518f" d="M 745.5,174.5 C 745.013,175.473 744.513,176.473 744,177.5C 743.275,175.843 743.775,174.843 745.5,174.5 Z"/></g>
<g><path style="opacity:1" fill="#48518f" d="M 1368.5,174.5 C 1368.01,175.473 1367.51,176.473 1367,177.5C 1366.27,175.843 1366.77,174.843 1368.5,174.5 Z"/></g>
<g><path style="opacity:1" fill="#7c6ba0" d="M 735.5,175.5 C 736.713,176.497 736.546,177.497 735,178.5C 734.53,177.423 734.697,176.423 735.5,175.5 Z"/></g>
<g><path style="opacity:1" fill="#3c464b" d="M 1642.5,179.5 C 1649.23,179.487 1649.73,180.487 1644,182.5C 1643.5,189.158 1643.33,195.825 1643.5,202.5C 1650.17,202.666 1656.84,202.5 1663.5,202C 1664.09,200.491 1664.76,198.991 1665.5,197.5C 1667.21,200.77 1666.55,203.27 1663.5,205C 1656.83,205.667 1650.17,205.667 1643.5,205C 1642.67,204.167 1641.83,203.333 1641,202.5C 1640.33,195.5 1640.33,188.5 1641,181.5C 1641.72,180.956 1642.22,180.289 1642.5,179.5 Z"/></g>
<g><path style="opacity:1" fill="#f8bd0a" d="M 1663.5,178.5 C 1665.91,179.406 1666.75,181.072 1666,183.5C 1662.83,186.667 1659.67,189.833 1656.5,193C 1655.21,193.49 1653.87,193.657 1652.5,193.5C 1652.34,192.127 1652.51,190.793 1653,189.5C 1656.7,185.964 1660.2,182.298 1663.5,178.5 Z"/></g>
<g><path style="opacity:1" fill="#d63545" d="M 1719.5,181.5 C 1726.83,181.5 1734.17,181.5 1741.5,181.5C 1741.33,188.852 1740.83,196.185 1740,203.5C 1733.67,204.833 1727.33,204.833 1721,203.5C 1720.52,196.159 1720.02,188.826 1719.5,181.5 Z"/></g>
<g><path style="opacity:1" fill="#3d3d4f" d="M 1725.5,186.5 C 1726.5,186.5 1727.5,186.5 1728.5,186.5C 1728.5,190.833 1728.5,195.167 1728.5,199.5C 1727.5,199.5 1726.5,199.5 1725.5,199.5C 1725.5,195.167 1725.5,190.833 1725.5,186.5 Z"/></g>
<g><path style="opacity:1" fill="#3d3d4f" d="M 1732.5,186.5 C 1733.5,186.5 1734.5,186.5 1735.5,186.5C 1735.5,190.833 1735.5,195.167 1735.5,199.5C 1734.5,199.5 1733.5,199.5 1732.5,199.5C 1732.5,195.167 1732.5,190.833 1732.5,186.5 Z"/></g>
<g><path style="opacity:1" fill="#ced4da" d="M 5.5,176.5 C 209.5,176.333 413.5,176.5 617.5,177C 618,177.5 618.5,178 619,178.5C 619.667,189.833 619.667,201.167 619,212.5C 618.5,213 618,213.5 617.5,214C 413.5,214.667 209.5,214.667 5.5,214C 5,213.5 4.5,213 4,212.5C 3.33333,201.167 3.33333,189.833 4,178.5C 4.71719,177.956 5.21719,177.289 5.5,176.5 Z"/></g>
<g><path style="opacity:1" fill="#fefefe" d="M 6.5,177.5 C 209.834,177.333 413.167,177.5 616.5,178C 617,178.5 617.5,179 618,179.5C 618.667,190.167 618.667,200.833 618,211.5C 617.5,212 617,212.5 616.5,213C 413.167,213.667 209.833,213.667 6.5,213C 6,212.5 5.5,212 5,211.5C 4.33333,200.833 4.33333,190.167 5,179.5C 5.71719,178.956 6.21719,178.289 6.5,177.5 Z"/></g>
<g><path style="opacity:1" fill="#37247c" d="M 50.5,236.5 C 51.6453,240.311 51.8119,244.311 51,248.5C 50.6174,247.944 50.1174,247.611 49.5,247.5C 49.307,243.876 49.6404,240.21 50.5,236.5 Z"/></g>
<g><path style="opacity:1" fill="#282b74" d="M 17.5,247.5 C 16.6981,248.952 16.1981,250.618 16,252.5C 15.3333,248.5 15.3333,244.5 16,240.5C 16.5,241 17,241.5 17.5,242C 16.2475,243.828 16.2475,245.661 17.5,247.5 Z"/></g>
<g><path style="opacity:1" fill="#cac2bf" d="M 50.5,236.5 C 49.6404,240.21 49.307,243.876 49.5,247.5C 46.7805,248.842 45.1138,247.842 44.5,244.5C 44.981,241.686 46.6477,240.352 49.5,240.5C 49.2322,238.901 49.5655,237.568 50.5,236.5 Z"/></g>
<g><path style="opacity:1" fill="#fff0e0" d="M 59.5,241.5 C 60.8333,243.5 60.8333,245.5 59.5,247.5C 55.65,247.299 54.65,245.466 56.5,242C 57.448,241.517 58.448,241.351 59.5,241.5 Z"/></g>
<g><path style="opacity:1" fill="#c1bab5" d="M 82.5,241.5 C 82.38,242.586 81.7133,243.253 80.5,243.5C 79.2867,243.253 78.62,242.586 78.5,241.5C 79.8333,240.167 81.1667,240.167 82.5,241.5 Z"/></g>
<g><path style="opacity:1" fill="#f0f3ec" d="M 108.5,241.5 C 112.35,241.701 113.35,243.534 111.5,247C 110.552,247.483 109.552,247.649 108.5,247.5C 107.167,245.5 107.167,243.5 108.5,241.5 Z"/></g>
<g><path style="opacity:1" fill="#50618b" d="M 130.5,241.5 C 131.708,240.218 133.042,240.218 134.5,241.5C 133.443,241.906 132.109,241.906 130.5,241.5 Z"/></g>
<g><path style="opacity:1" fill="#592561" d="M 73.5,236.5 C 74.6453,240.311 74.8119,244.311 74,248.5C 73.5,248 73,247.5 72.5,247C 72.2831,243.59 72.6165,240.09 73.5,236.5 Z"/></g>
<g><path style="opacity:1" fill="#282b75" d="M 95.5,244.5 C 96.8484,243.814 98.015,242.814 99,241.5C 99.6667,243.833 99.6667,246.167 99,248.5C 98.51,247.207 98.3433,245.873 98.5,244.5C 97.5,244.5 96.5,244.5 95.5,244.5 Z"/></g>
<g><path style="opacity:1" fill="#282b75" d="M 156.5,244.5 C 157.848,243.814 159.015,242.814 160,241.5C 160.667,243.833 160.667,246.167 160,248.5C 159.51,247.207 159.343,245.873 159.5,244.5C 158.5,244.5 157.5,244.5 156.5,244.5 Z"/></g>
<g><path style="opacity:1" fill="#312a40" d="M 24.5,242.5 C 26.4144,243.185 28.4144,243.685 30.5,244C 28.2729,244.121 26.4396,244.954 25,246.5C 24.51,245.207 24.3433,243.873 24.5,242.5 Z"/></g>
<g><path style="opacity:1" fill="#5b6a8e" d="M 59.5,241.5 C 58.448,241.351 57.448,241.517 56.5,242C 54.65,245.466 55.65,247.299 59.5,247.5C 56.343,249.275 54.6763,248.275 54.5,244.5C 54.6763,240.725 56.343,239.725 59.5,241.5 Z"/></g>
<g><path style="opacity:1" fill="#4980bb" d="M 59.5,241.5 C 60.6935,241.97 61.3601,242.97 61.5,244.5C 61.3601,246.03 60.6935,247.03 59.5,247.5C 60.8333,245.5 60.8333,243.5 59.5,241.5 Z"/></g>
<g><path style="opacity:1" fill="#364364" d="M 78.5,241.5 C 78.62,242.586 79.2867,243.253 80.5,243.5C 81.7133,243.253 82.38,242.586 82.5,241.5C 83.404,242.209 83.7373,243.209 83.5,244.5C 77.3036,244.574 76.9703,245.741 82.5,248C 81.1667,248.667 79.8333,248.667 78.5,248C 77.1888,245.726 77.1888,243.56 78.5,241.5 Z"/></g>
<g><path style="opacity:1" fill="#5d245b" d="M 108.5,241.5 C 107.167,243.5 107.167,245.5 108.5,247.5C 107.698,248.952 107.198,250.618 107,252.5C 106.333,248.5 106.333,244.5 107,240.5C 107.383,241.056 107.883,241.389 108.5,241.5 Z"/></g>
<g><path style="opacity:1" fill="#59456f" d="M 108.5,241.5 C 111.657,239.725 113.324,240.725 113.5,244.5C 113.324,248.275 111.657,249.275 108.5,247.5C 109.552,247.649 110.552,247.483 111.5,247C 113.35,243.534 112.35,241.701 108.5,241.5 Z"/></g>
<g><path style="opacity:1" fill="#3a2732" d="M 115.5,242.5 C 117.414,243.185 119.414,243.685 121.5,244C 119.273,244.121 117.44,244.954 116,246.5C 115.51,245.207 115.343,243.873 115.5,242.5 Z"/></g>
<g><path style="opacity:1" fill="#4f3246" d="M 130.5,241.5 C 130.557,242.609 130.89,243.609 131.5,244.5C 129.448,243.947 129.115,242.947 130.5,241.5 Z"/></g>
<g><path style="opacity:1" fill="#585978" d="M 137.5,240.5 C 141.893,240.457 142.226,240.957 138.5,242C 136.682,245.387 137.682,247.387 141.5,248C 139.888,248.72 138.388,248.554 137,247.5C 136.297,245.071 136.463,242.738 137.5,240.5 Z"/></g>
<g><path style="opacity:1" fill="#2d79b6" d="M 146.5,240.5 C 147.289,240.783 147.956,241.283 148.5,242C 147.736,244.069 147.236,246.236 147,248.5C 146.503,245.854 146.336,243.187 146.5,240.5 Z"/></g>
<g><path style="opacity:1" fill="#3a2e49" d="M 10.5,241.5 C 11.7027,242.943 12.2027,244.609 12,246.5C 9.85264,245.887 7.68597,245.221 5.5,244.5C 6.88748,244.193 8.55415,244.193 10.5,244.5C 10.5,243.5 10.5,242.5 10.5,241.5 Z"/></g>
<g><path style="opacity:1" fill="#485d8e" d="M 131.5,244.5 C 132.5,244.5 133.5,244.5 134.5,244.5C 134.649,245.552 134.483,246.552 134,247.5C 133.302,246.309 132.469,245.309 131.5,244.5 Z"/></g>
<g><path style="opacity:1" fill="#486695" d="M 17.5,247.5 C 18.8221,247.67 19.9887,247.337 21,246.5C 21.3333,244.833 21.6667,243.167 22,241.5C 22.6667,243.5 22.6667,245.5 22,247.5C 20.3845,248.801 18.8845,248.801 17.5,247.5 Z"/></g>
<g><path style="opacity:1" fill="#583476" d="M 95.5,244.5 C 95.0133,245.473 94.5133,246.473 94,247.5C 93.2748,245.843 93.7748,244.843 95.5,244.5 Z"/></g>
<g><path style="opacity:1" fill="#583476" d="M 156.5,244.5 C 156.013,245.473 155.513,246.473 155,247.5C 154.275,245.843 154.775,244.843 156.5,244.5 Z"/></g>
<g><path style="opacity:1" fill="#ced4da" d="M 5.5,262.5 C 209.5,262.333 413.5,262.5 617.5,263C 618,263.5 618.5,264 619,264.5C 619.667,275.833 619.667,287.167 619,298.5C 618.5,299 618,299.5 617.5,300C 413.5,300.667 209.5,300.667 5.5,300C 5,299.5 4.5,299 4,298.5C 3.33333,287.167 3.33333,275.833 4,264.5C 4.71719,263.956 5.21719,263.289 5.5,262.5 Z"/></g>
<g><path style="opacity:1" fill="#fefefe" d="M 6.5,263.5 C 209.834,263.333 413.167,263.5 616.5,264C 617,264.5 617.5,265 618,265.5C 618.667,276.167 618.667,286.833 618,297.5C 617.5,298 617,298.5 616.5,299C 413.167,299.667 209.833,299.667 6.5,299C 6,298.5 5.5,298 5,297.5C 4.33333,286.833 4.33333,276.167 5,265.5C 5.71719,264.956 6.21719,264.289 6.5,263.5 Z"/></g>
<g><path style="opacity:1" fill="#277ebc" d="M 38.5,326.5 C 39.6341,328.966 39.8007,331.633 39,334.5C 38.5,334 38,333.5 37.5,333C 38.4231,330.959 38.7564,328.792 38.5,326.5 Z"/></g>
<g><path style="opacity:1" fill="#c2bab9" d="M 72.5,327.5 C 72.38,328.586 71.7133,329.253 70.5,329.5C 69.2867,329.253 68.62,328.586 68.5,327.5C 69.8333,326.167 71.1667,326.167 72.5,327.5 Z"/></g>
<g><path style="opacity:1" fill="#c1bab5" d="M 111.5,327.5 C 111.38,328.586 110.713,329.253 109.5,329.5C 108.287,329.253 107.62,328.586 107.5,327.5C 108.833,326.167 110.167,326.167 111.5,327.5 Z"/></g>
<g><path style="opacity:1" fill="#b8bac3" d="M 128.5,326.5 C 133.486,326.305 135.152,328.472 133.5,333C 131.105,335.145 128.938,334.978 127,332.5C 126.252,330.16 126.752,328.16 128.5,326.5 Z"/></g>
<g><path style="opacity:1" fill="#869bcd" d="M 5.5,325.5 C 6.62914,327.628 6.79581,329.961 6,332.5C 4.19287,330.26 4.02621,327.927 5.5,325.5 Z"/></g>
<g><path style="opacity:1" fill="#29578e" d="M 47.5,330.5 C 48.8484,329.814 50.015,328.814 51,327.5C 51.6667,329.833 51.6667,332.167 51,334.5C 50.51,333.207 50.3433,331.873 50.5,330.5C 49.5,330.5 48.5,330.5 47.5,330.5 Z"/></g>
<g><path style="opacity:1" fill="#6a6a90" d="M 120.5,326.5 C 121.978,326.238 123.311,326.571 124.5,327.5C 123.603,327.669 122.603,328.002 121.5,328.5C 125.444,334.487 124.944,334.82 120,329.5C 119.53,328.423 119.697,327.423 120.5,326.5 Z"/></g>
<g><path style="opacity:1" fill="#3a2732" d="M 15.5,328.5 C 16.9516,329.302 18.6183,329.802 20.5,330C 18.256,330.05 16.5893,330.883 15.5,332.5C 14.1667,331.167 14.1667,329.833 15.5,328.5 Z"/></g>
<g><path style="opacity:1" fill="#557494" d="M 24.5,326.5 C 25.552,326.351 26.552,326.517 27.5,327C 23.5,329.333 23.5,331.667 27.5,334C 26.2161,334.684 25.0495,334.517 24,333.5C 23.2967,331.071 23.4634,328.738 24.5,326.5 Z"/></g>
<g><path style="opacity:1" fill="#557494" d="M 59.5,326.5 C 60.552,326.351 61.552,326.517 62.5,327C 58.5,329.333 58.5,331.667 62.5,334C 61.2161,334.684 60.0495,334.517 59,333.5C 58.2967,331.071 58.4634,328.738 59.5,326.5 Z"/></g>
<g><path style="opacity:1" fill="#3d3c56" d="M 68.5,327.5 C 68.62,328.586 69.2867,329.253 70.5,329.5C 71.7133,329.253 72.38,328.586 72.5,327.5C 73.404,328.209 73.7373,329.209 73.5,330.5C 67.3036,330.574 66.9703,331.741 72.5,334C 71.1667,334.667 69.8333,334.667 68.5,334C 67.1888,331.726 67.1888,329.56 68.5,327.5 Z"/></g>
<g><path style="opacity:1" fill="#5988b4" d="M 97.5,327.5 C 98.2389,327.369 98.9056,327.536 99.5,328C 97.6823,331.387 98.6823,333.387 102.5,334C 101.207,334.49 99.8734,334.657 98.5,334.5C 98.6567,335.873 98.49,337.207 98,338.5C 97.5014,334.848 97.3347,331.182 97.5,327.5 Z"/></g>
<g><path style="opacity:1" fill="#364364" d="M 107.5,327.5 C 107.62,328.586 108.287,329.253 109.5,329.5C 110.713,329.253 111.38,328.586 111.5,327.5C 112.404,328.209 112.737,329.209 112.5,330.5C 106.304,330.574 105.97,331.741 111.5,334C 110.167,334.667 108.833,334.667 107.5,334C 106.189,331.726 106.189,329.56 107.5,327.5 Z"/></g>
<g><path style="opacity:1" fill="#26297d" d="M 136.5,326.5 C 137.289,326.783 137.956,327.283 138.5,328C 137.736,330.069 137.236,332.236 137,334.5C 136.503,331.854 136.336,329.187 136.5,326.5 Z"/></g>
<g><path style="opacity:1" fill="#b9c0cc" d="M 15.5,332.5 C 16.5893,330.883 18.256,330.05 20.5,330C 18.6183,329.802 16.9516,329.302 15.5,328.5C 16.7133,326.324 18.38,325.991 20.5,327.5C 21.7691,329.695 21.7691,331.861 20.5,334C 18.3258,334.877 16.6591,334.377 15.5,332.5 Z"/></g>
<g><path style="opacity:1" fill="#5e282b" d="M 88.5,327.5 C 89.5382,333.31 89.5382,334.31 88.5,330.5C 87.448,330.649 86.448,330.483 85.5,330C 87.1193,329.764 88.1193,328.931 88.5,327.5 Z"/></g>
<g><path style="opacity:1" fill="#5e282b" d="M 149.5,327.5 C 150.538,333.31 150.538,334.31 149.5,330.5C 148.448,330.649 147.448,330.483 146.5,330C 148.119,329.764 149.119,328.931 149.5,327.5 Z"/></g>
<g><path style="opacity:1" fill="#48518f" d="M 47.5,330.5 C 47.0133,331.473 46.5133,332.473 46,333.5C 45.2748,331.843 45.7748,330.843 47.5,330.5 Z"/></g>
<g><path style="opacity:1" fill="#ced4da" d="M 5.5,348.5 C 209.5,348.333 413.5,348.5 617.5,349C 618,349.5 618.5,350 619,350.5C 619.667,361.833 619.667,373.167 619,384.5C 618.5,385 618,385.5 617.5,386C 413.5,386.667 209.5,386.667 5.5,386C 5,385.5 4.5,385 4,384.5C 3.33333,373.167 3.33333,361.833 4,350.5C 4.71719,349.956 5.21719,349.289 5.5,348.5 Z"/></g>
<g><path style="opacity:1" fill="#fefefe" d="M 6.5,349.5 C 209.834,349.333 413.167,349.5 616.5,350C 617,350.5 617.5,351 618,351.5C 618.667,362.167 618.667,372.833 618,383.5C 617.5,384 617,384.5 616.5,385C 413.167,385.667 209.833,385.667 6.5,385C 6,384.5 5.5,384 5,383.5C 4.33333,372.833 4.33333,362.167 5,351.5C 5.71719,350.956 6.21719,350.289 6.5,349.5 Z"/></g>
<g><path style="opacity:1" fill="#c2bab9" d="M 40.5,413.5 C 40.38,414.586 39.7133,415.253 38.5,415.5C 37.2867,415.253 36.62,414.586 36.5,413.5C 37.8333,412.167 39.1667,412.167 40.5,413.5 Z"/></g>
<g><path style="opacity:1" fill="#b8bac3" d="M 45.5,412.5 C 50.4857,412.305 52.1524,414.472 50.5,419C 48.1047,421.145 45.938,420.978 44,418.5C 43.2516,416.16 43.7516,414.16 45.5,412.5 Z"/></g>
<g><path style="opacity:1" fill="#869bcd" d="M 5.5,411.5 C 6.62914,413.628 6.79581,415.961 6,418.5C 4.19287,416.26 4.02621,413.927 5.5,411.5 Z"/></g>
<g><path style="opacity:1" fill="#3d3c56" d="M 36.5,413.5 C 36.62,414.586 37.2867,415.253 38.5,415.5C 39.7133,415.253 40.38,414.586 40.5,413.5C 41.404,414.209 41.7373,415.209 41.5,416.5C 35.3036,416.574 34.9703,417.741 40.5,420C 39.1667,420.667 37.8333,420.667 36.5,420C 35.1888,417.726 35.1888,415.56 36.5,413.5 Z"/></g>
<g><path style="opacity:1" fill="#ced4da" d="M 5.5,434.5 C 209.5,434.333 413.5,434.5 617.5,435C 618,435.5 618.5,436 619,436.5C 619.667,447.833 619.667,459.167 619,470.5C 618.5,471 618,471.5 617.5,472C 413.5,472.667 209.5,472.667 5.5,472C 5,471.5 4.5,471 4,470.5C 3.33333,459.167 3.33333,447.833 4,436.5C 4.71719,435.956 5.21719,435.289 5.5,434.5 Z"/></g>
<g><path style="opacity:1" fill="#fefefe" d="M 6.5,435.5 C 209.834,435.333 413.167,435.5 616.5,436C 617,436.5 617.5,437 618,437.5C 618.667,448.167 618.667,458.833 618,469.5C 617.5,470 617,470.5 616.5,471C 413.167,471.667 209.833,471.667 6.5,471C 6,470.5 5.5,470 5,469.5C 4.33333,458.833 4.33333,448.167 5,437.5C 5.71719,436.956 6.21719,436.289 6.5,435.5 Z"/></g>
<g><path style="opacity:1" fill="#136efd" d="M 5.5,488.5 C 31.8354,488.333 58.1688,488.5 84.5,489C 85,489.5 85.5,490 86,490.5C 86.6667,501.833 86.6667,513.167 86,524.5C 85.5,525 85,525.5 84.5,526C 58.1667,526.667 31.8333,526.667 5.5,526C 5,525.5 4.5,525 4,524.5C 3.33333,513.167 3.33333,501.833 4,490.5C 4.71719,489.956 5.21719,489.289 5.5,488.5 Z"/></g>
<g><path style="opacity:1" fill="#e2f1fe" d="M 44.5,501.5 C 46.337,501.639 46.6704,502.306 45.5,503.5C 44.7025,503.043 44.3691,502.376 44.5,501.5 Z"/></g>
<g><path style="opacity:1" fill="#e2e8fe" d="M 44.5,505.5 C 45.7479,506.334 46.4146,507.667 46.5,509.5C 46.1667,510.833 45.8333,512.167 45.5,513.5C 44.52,510.914 44.1866,508.247 44.5,505.5 Z"/></g>
<g><path style="opacity:1" fill="#d6ecfe" d="M 26.5,512.5 C 26.2648,513.097 25.7648,513.43 25,513.5C 23.4981,511.825 21.9981,510.159 20.5,508.5C 19.8333,510.167 19.1667,511.833 18.5,513.5C 17.5108,509.893 17.1774,506.226 17.5,502.5C 20.3646,502.055 22.8646,502.722 25,504.5C 25.3334,506.047 24.8334,507.38 23.5,508.5C 24.0351,510.261 25.0351,511.594 26.5,512.5 Z"/></g>
<g><path style="opacity:1" fill="#3c6efd" d="M 19.5,503.5 C 24.5363,504.505 24.5363,505.838 19.5,507.5C 19.5,506.167 19.5,504.833 19.5,503.5 Z"/></g>
<g><path style="opacity:1" fill="#dbf0ff" d="M 59.5,512.5 C 60.1287,509.871 61.7954,508.204 64.5,507.5C 63.2839,506.904 61.9506,506.737 60.5,507C 62.2021,505.282 64.0355,505.115 66,506.5C 66.4966,508.81 66.6633,511.143 66.5,513.5C 64.0504,513.702 61.717,513.369 59.5,512.5 Z"/></g>
<g><path style="opacity:1" fill="#e3effe" d="M 26.5,512.5 C 25.079,506.887 27.079,504.72 32.5,506C 33.3366,507.011 33.67,508.178 33.5,509.5C 31.4727,509.338 29.4727,509.505 27.5,510C 27.9981,511.158 28.8315,511.991 30,512.5C 31.1618,511.813 32.3284,511.647 33.5,512C 31.294,513.807 28.9606,513.974 26.5,512.5 Z"/></g>
<g><path style="opacity:1" fill="#3377fd" d="M 28.5,506.5 C 29.675,506.281 30.675,506.614 31.5,507.5C 29.9483,508.798 28.9483,508.465 28.5,506.5 Z"/></g>
<g><path style="opacity:1" fill="#d8ecfe" d="M 59.5,512.5 C 58.4324,513.434 57.099,513.768 55.5,513.5C 55.8076,511.076 55.4742,508.743 54.5,506.5C 52.8827,506.669 51.216,507.003 49.5,507.5C 51.0534,508.439 52.3867,509.606 53.5,511C 53.1379,512.885 51.9713,513.719 50,513.5C 49.1667,513.167 48.3333,512.833 47.5,512.5C 48.8333,512.167 50.1667,511.833 51.5,511.5C 50.1667,510.167 48.8333,508.833 47.5,507.5C 50.3876,506.156 53.3876,504.822 56.5,503.5C 57.354,504.522 58.354,505.355 59.5,506C 58.3759,506.839 57.7092,508.006 57.5,509.5C 57.6399,511.03 58.3065,512.03 59.5,512.5 Z"/></g>
<g><path style="opacity:1" fill="#e1eafe" d="M 68.5,505.5 C 70.1992,505.34 71.8659,505.506 73.5,506C 72.5838,506.374 71.7504,506.874 71,507.5C 70.8078,509.577 70.3078,511.577 69.5,513.5C 68.52,510.914 68.1866,508.247 68.5,505.5 Z"/></g>
<g><path style="opacity:1" fill="#5b74fd" d="M 62.5,509.5 C 64.0481,509.821 64.7148,510.821 64.5,512.5C 61.7524,512.598 61.0857,511.598 62.5,509.5 Z"/></g>
<g><path style="opacity:1" fill="#e7eefe" d="M 36.5,505.5 C 38.5,505.5 40.5,505.5 42.5,505.5C 42.665,508.85 42.4983,512.183 42,515.5C 39.6374,517.907 37.1374,518.074 34.5,516C 41.6209,516.272 41.9543,515.105 35.5,512.5C 34.1544,509.9 34.4877,507.567 36.5,505.5 Z"/></g>
<g><path style="opacity:1" fill="#276efd" d="M 37.5,506.5 C 39.4841,506.484 40.4841,507.484 40.5,509.5C 39.1667,513.5 37.8333,513.5 36.5,509.5C 36.685,508.416 37.0183,507.416 37.5,506.5 Z"/></g>
</svg>
