<?xml version="1.0" encoding="UTF-8"?>
<!DOCTYPE svg PUBLIC "-//W3C//DTD SVG 1.1//EN" "http://www.w3.org/Graphics/SVG/1.1/DTD/svg11.dtd">
<svg xmlns="http://www.w3.org/2000/svg" version="1.1" width="512px" height="512px" style="shape-rendering:geometricPrecision; text-rendering:geometricPrecision; image-rendering:optimizeQuality; fill-rule:evenodd; clip-rule:evenodd" xmlns:xlink="http://www.w3.org/1999/xlink">
<g><path style="opacity:1" fill="#000000" d="M 159.5,-0.5 C 177.833,-0.5 196.167,-0.5 214.5,-0.5C 214.5,7.16667 214.5,14.8333 214.5,22.5C 203.833,22.5 193.167,22.5 182.5,22.5C 182.5,30.1667 182.5,37.8333 182.5,45.5C 193.167,45.5 203.833,45.5 214.5,45.5C 214.5,53.1667 214.5,60.8333 214.5,68.5C 196.167,68.5 177.833,68.5 159.5,68.5C 159.5,45.5 159.5,22.5 159.5,-0.5 Z"/></g>
<g><path style="opacity:1" fill="#000000" d="M 225.5,-0.5 C 243.833,-0.5 262.167,-0.5 280.5,-0.5C 280.5,6.16667 280.5,12.8333 280.5,19.5C 269.833,19.5 259.167,19.5 248.5,19.5C 248.5,20.8333 248.5,22.1667 248.5,23.5C 259.167,23.5 269.833,23.5 280.5,23.5C 280.5,38.8333 280.5,54.1667 280.5,69.5C 262.167,69.5 243.833,69.5 225.5,69.5C 225.5,62.5 225.5,55.5 225.5,48.5C 236.167,48.5 246.833,48.5 257.5,48.5C 257.5,47.1667 257.5,45.8333 257.5,44.5C 246.833,44.5 236.167,44.5 225.5,44.5C 225.5,29.5 225.5,14.5 225.5,-0.5 Z"/></g>
<g><path style="opacity:1" fill="#000000" d="M 291.5,-0.5 C 309.833,-0.5 328.167,-0.5 346.5,-0.5C 346.5,6.16667 346.5,12.8333 346.5,19.5C 335.833,19.5 325.167,19.5 314.5,19.5C 314.5,20.8333 314.5,22.1667 314.5,23.5C 325.167,23.5 335.833,23.5 346.5,23.5C 346.5,38.8333 346.5,54.1667 346.5,69.5C 328.167,69.5 309.833,69.5 291.5,69.5C 291.5,62.5 291.5,55.5 291.5,48.5C 302.167,48.5 312.833,48.5 323.5,48.5C 323.5,47.1667 323.5,45.8333 323.5,44.5C 312.833,44.5 302.167,44.5 291.5,44.5C 291.5,29.5 291.5,14.5 291.5,-0.5 Z"/></g>
<g><path style="opacity:0.993" fill="#004ce8" d="M 259.5,511.5 C 256.833,511.5 254.167,511.5 251.5,511.5C 203.445,497.775 155.278,484.108 107,470.5C 95.6675,346.843 84.5009,223.177 73.5,99.5C 194.833,99.5 316.167,99.5 437.5,99.5C 426.484,223.174 415.318,346.84 404,470.5C 355.722,484.108 307.555,497.775 259.5,511.5 Z"/></g>
<g><path style="opacity:1" fill="#0265f4" d="M 254.5,432.5 C 254.833,432.5 255.167,432.5 255.5,432.5C 286.463,424.009 317.463,415.676 348.5,407.5C 355.167,331.833 361.833,256.167 368.5,180.5C 369.451,179.081 369.784,177.415 369.5,175.5C 331.5,175.5 293.5,175.5 255.5,175.5C 255.5,160.5 255.5,145.5 255.5,130.5C 304.833,130.5 354.167,130.5 403.5,130.5C 394.062,235.148 384.896,339.814 376,444.5C 375.5,445.667 374.667,446.5 373.5,447C 334.22,458.153 294.886,468.986 255.5,479.5C 255.817,463.756 255.484,448.089 254.5,432.5 Z"/></g>
<g><path style="opacity:1" fill="#a3c3f5" d="M 255.5,175.5 C 293.5,175.5 331.5,175.5 369.5,175.5C 369.784,177.415 369.451,179.081 368.5,180.5C 368.5,179.167 368.5,177.833 368.5,176.5C 330.833,176.5 293.167,176.5 255.5,176.5C 217.833,176.5 180.167,176.5 142.5,176.5C 142.5,177.833 142.5,179.167 142.5,180.5C 141.549,179.081 141.216,177.415 141.5,175.5C 179.5,175.5 217.5,175.5 255.5,175.5 Z"/></g>
<g><path style="opacity:1" fill="#eaeaeb" d="M 255.5,176.5 C 255.5,191.167 255.5,205.833 255.5,220.5C 218.833,220.5 182.167,220.5 145.5,220.5C 144.38,207.176 143.38,193.843 142.5,180.5C 142.5,179.167 142.5,177.833 142.5,176.5C 180.167,176.5 217.833,176.5 255.5,176.5 Z"/></g>
<g><path style="opacity:1" fill="#fefefe" d="M 255.5,176.5 C 293.167,176.5 330.833,176.5 368.5,176.5C 368.5,177.833 368.5,179.167 368.5,180.5C 361.833,256.167 355.167,331.833 348.5,407.5C 317.463,415.676 286.463,424.009 255.5,432.5C 255.5,416.833 255.5,401.167 255.5,385.5C 272.447,381.146 289.28,376.479 306,371.5C 307.464,353.492 308.964,335.492 310.5,317.5C 311.451,316.081 311.784,314.415 311.5,312.5C 292.833,312.5 274.167,312.5 255.5,312.5C 255.5,297.833 255.5,283.167 255.5,268.5C 275.674,268.83 295.674,268.497 315.5,267.5C 315.971,254.79 316.971,242.123 318.5,229.5C 319.477,226.713 319.81,223.713 319.5,220.5C 298.167,220.5 276.833,220.5 255.5,220.5C 255.5,205.833 255.5,191.167 255.5,176.5 Z"/></g>
<g><path style="opacity:1" fill="#afc5ef" d="M 145.5,220.5 C 182.167,220.5 218.833,220.5 255.5,220.5C 276.833,220.5 298.167,220.5 319.5,220.5C 319.81,223.713 319.477,226.713 318.5,229.5C 318.5,226.833 318.5,224.167 318.5,221.5C 297.5,221.5 276.5,221.5 255.5,221.5C 218.663,221.832 181.996,221.498 145.5,220.5 Z"/></g>
<g><path style="opacity:1" fill="#0065f4" d="M 255.5,221.5 C 276.5,221.5 297.5,221.5 318.5,221.5C 318.5,224.167 318.5,226.833 318.5,229.5C 316.971,242.123 315.971,254.79 315.5,267.5C 295.5,267.5 275.5,267.5 255.5,267.5C 255.5,252.167 255.5,236.833 255.5,221.5 Z"/></g>
<g><path style="opacity:1" fill="#bdceee" d="M 255.5,267.5 C 275.5,267.5 295.5,267.5 315.5,267.5C 295.674,268.497 275.674,268.83 255.5,268.5C 220.5,268.5 185.5,268.5 150.5,268.5C 150.5,269.833 150.5,271.167 150.5,272.5C 149.549,271.081 149.216,269.415 149.5,267.5C 184.833,267.5 220.167,267.5 255.5,267.5 Z"/></g>
<g><path style="opacity:1" fill="#eaeaeb" d="M 255.5,268.5 C 255.5,283.167 255.5,297.833 255.5,312.5C 221.5,312.5 187.5,312.5 153.5,312.5C 152.647,299.157 151.647,285.824 150.5,272.5C 150.5,271.167 150.5,269.833 150.5,268.5C 185.5,268.5 220.5,268.5 255.5,268.5 Z"/></g>
<g><path style="opacity:1" fill="#8fb0ee" d="M 153.5,312.5 C 187.5,312.5 221.5,312.5 255.5,312.5C 274.167,312.5 292.833,312.5 311.5,312.5C 311.784,314.415 311.451,316.081 310.5,317.5C 310.5,316.167 310.5,314.833 310.5,313.5C 292.167,313.5 273.833,313.5 255.5,313.5C 221.329,313.832 187.329,313.498 153.5,312.5 Z"/></g>
<g><path style="opacity:1" fill="#0265f4" d="M 255.5,313.5 C 273.833,313.5 292.167,313.5 310.5,313.5C 310.5,314.833 310.5,316.167 310.5,317.5C 308.964,335.492 307.464,353.492 306,371.5C 289.28,376.479 272.447,381.146 255.5,385.5C 255.5,361.5 255.5,337.5 255.5,313.5 Z"/></g>
<g><path style="opacity:1" fill="#e8e9eb" d="M 255.5,385.5 C 255.5,401.167 255.5,416.833 255.5,432.5C 255.167,432.5 254.833,432.5 254.5,432.5C 223.632,424.617 192.965,416.117 162.5,407C 160.195,383.241 158.195,359.407 156.5,335.5C 171.5,335.5 186.5,335.5 201.5,335.5C 203.161,347.769 204.161,360.103 204.5,372.5C 221.629,376.457 238.629,380.791 255.5,385.5 Z"/></g>
</svg>
