<?xml version="1.0" encoding="UTF-8"?>
<!DOCTYPE svg PUBLIC "-//W3C//DTD SVG 1.1//EN" "http://www.w3.org/Graphics/SVG/1.1/DTD/svg11.dtd">
<svg xmlns="http://www.w3.org/2000/svg" version="1.1" width="200px" height="200px" style="shape-rendering:geometricPrecision; text-rendering:geometricPrecision; image-rendering:optimizeQuality; fill-rule:evenodd; clip-rule:evenodd" xmlns:xlink="http://www.w3.org/1999/xlink">
<g><path style="opacity:0.918" fill="#000000" d="M 41.5,-0.5 C 44.8333,-0.5 48.1667,-0.5 51.5,-0.5C 51.5,2.16667 51.5,4.83333 51.5,7.5C 53.8333,7.5 56.1667,7.5 58.5,7.5C 58.5,4.83333 58.5,2.16667 58.5,-0.5C 61.8333,-0.5 65.1667,-0.5 68.5,-0.5C 68.5,8.5 68.5,17.5 68.5,26.5C 65.1667,26.5 61.8333,26.5 58.5,26.5C 58.5,23.5 58.5,20.5 58.5,17.5C 56.1667,17.5 53.8333,17.5 51.5,17.5C 51.5,20.5 51.5,23.5 51.5,26.5C 48.1667,26.5 44.8333,26.5 41.5,26.5C 41.5,17.5 41.5,8.5 41.5,-0.5 Z"/></g>
<g><path style="opacity:0.93" fill="#000000" d="M 71.5,-0.5 C 80.1667,-0.5 88.8333,-0.5 97.5,-0.5C 97.5,2.5 97.5,5.5 97.5,8.5C 94.8333,8.5 92.1667,8.5 89.5,8.5C 89.5,14.5 89.5,20.5 89.5,26.5C 86.1667,26.5 82.8333,26.5 79.5,26.5C 79.5,20.5 79.5,14.5 79.5,8.5C 76.8333,8.5 74.1667,8.5 71.5,8.5C 71.5,5.5 71.5,2.5 71.5,-0.5 Z"/></g>
<g><path style="opacity:0.911" fill="#000000" d="M 100.5,-0.5 C 104.167,-0.5 107.833,-0.5 111.5,-0.5C 112.723,2.27394 114.223,4.9406 116,7.5C 117.777,4.9406 119.277,2.27394 120.5,-0.5C 124.167,-0.5 127.833,-0.5 131.5,-0.5C 131.5,8.5 131.5,17.5 131.5,26.5C 128.167,26.5 124.833,26.5 121.5,26.5C 121.665,23.1501 121.498,19.8168 121,16.5C 119.333,18.8333 117.667,21.1667 116,23.5C 114.333,21.1667 112.667,18.8333 111,16.5C 110.502,19.8168 110.335,23.1501 110.5,26.5C 107.167,26.5 103.833,26.5 100.5,26.5C 100.5,17.5 100.5,8.5 100.5,-0.5 Z"/></g>
<g><path style="opacity:0.939" fill="#000000" d="M 135.5,-0.5 C 138.833,-0.5 142.167,-0.5 145.5,-0.5C 145.5,5.5 145.5,11.5 145.5,17.5C 149.5,17.5 153.5,17.5 157.5,17.5C 157.5,20.5 157.5,23.5 157.5,26.5C 150.167,26.5 142.833,26.5 135.5,26.5C 135.5,17.5 135.5,8.5 135.5,-0.5 Z"/></g>
<g><path style="opacity:0.983" fill="#e44d26" d="M 103.5,199.5 C 100.833,199.5 98.1667,199.5 95.5,199.5C 77.4455,194.108 59.2788,188.774 41,183.5C 36.557,135.184 32.3904,86.8509 28.5,38.5C 75.8333,38.5 123.167,38.5 170.5,38.5C 166.61,86.8509 162.443,135.184 158,183.5C 139.721,188.774 121.555,194.108 103.5,199.5 Z"/></g>
<g><path style="opacity:1" fill="#f1652a" d="M 98.5,168.5 C 98.8333,168.5 99.1667,168.5 99.5,168.5C 111.43,165.467 123.263,162.134 135,158.5C 137.353,140.567 139.186,122.567 140.5,104.5C 127.01,103.504 113.344,103.171 99.5,103.5C 99.5,97.8333 99.5,92.1667 99.5,86.5C 114.01,86.8293 128.343,86.4959 142.5,85.5C 142.907,79.8387 143.24,74.172 143.5,68.5C 129.01,67.504 114.343,67.1707 99.5,67.5C 99.5,61.8333 99.5,56.1667 99.5,50.5C 118.833,50.5 138.167,50.5 157.5,50.5C 153.473,91.7993 149.806,133.133 146.5,174.5C 130.833,178.5 115.167,182.5 99.5,186.5C 99.7886,180.409 99.4553,174.409 98.5,168.5 Z"/></g>
<g><path style="opacity:1" fill="#ee7244" d="M 99.5,67.5 C 114.343,67.1707 129.01,67.504 143.5,68.5C 128.833,68.5 114.167,68.5 99.5,68.5C 84.8333,68.5 70.1667,68.5 55.5,68.5C 55.5,69.8333 55.5,71.1667 55.5,72.5C 54.5489,71.0813 54.2155,69.4147 54.5,67.5C 69.5,67.5 84.5,67.5 99.5,67.5 Z"/></g>
<g><path style="opacity:1" fill="#ebe8e7" d="M 99.5,68.5 C 99.5,74.1667 99.5,79.8333 99.5,85.5C 113.833,85.5 128.167,85.5 142.5,85.5C 128.343,86.4959 114.01,86.8293 99.5,86.5C 91.1401,86.1688 82.8068,86.5021 74.5,87.5C 75.4328,91.4295 75.7662,95.4295 75.5,99.5C 75.5,101.167 75.5,102.833 75.5,104.5C 83.5,104.5 91.5,104.5 99.5,104.5C 99.5,110.167 99.5,115.833 99.5,121.5C 86.1667,121.5 72.8333,121.5 59.5,121.5C 58.2869,105.156 56.9536,88.8231 55.5,72.5C 55.5,71.1667 55.5,69.8333 55.5,68.5C 70.1667,68.5 84.8333,68.5 99.5,68.5 Z"/></g>
<g><path style="opacity:1" fill="#fffefe" d="M 99.5,68.5 C 114.167,68.5 128.833,68.5 143.5,68.5C 143.24,74.172 142.907,79.8387 142.5,85.5C 128.167,85.5 113.833,85.5 99.5,85.5C 99.5,79.8333 99.5,74.1667 99.5,68.5 Z"/></g>
<g><path style="opacity:1" fill="#e44d26" d="M 99.5,86.5 C 99.5,92.1667 99.5,97.8333 99.5,103.5C 91.8333,103.5 84.1667,103.5 76.5,103.5C 76.7678,101.901 76.4345,100.568 75.5,99.5C 75.7662,95.4295 75.4328,91.4295 74.5,87.5C 82.8068,86.5021 91.1401,86.1688 99.5,86.5 Z"/></g>
<g><path style="opacity:1" fill="#f08861" d="M 75.5,99.5 C 76.4345,100.568 76.7678,101.901 76.5,103.5C 84.1667,103.5 91.8333,103.5 99.5,103.5C 113.344,103.171 127.01,103.504 140.5,104.5C 126.833,104.5 113.167,104.5 99.5,104.5C 91.5,104.5 83.5,104.5 75.5,104.5C 75.5,102.833 75.5,101.167 75.5,99.5 Z"/></g>
<g><path style="opacity:1" fill="#fffdfc" d="M 99.5,104.5 C 113.167,104.5 126.833,104.5 140.5,104.5C 139.186,122.567 137.353,140.567 135,158.5C 123.263,162.134 111.43,165.467 99.5,168.5C 99.5,162.5 99.5,156.5 99.5,150.5C 106.033,148.576 112.533,146.576 119,144.5C 119.591,138.502 120.091,132.502 120.5,126.5C 121.451,125.081 121.784,123.415 121.5,121.5C 114.167,121.5 106.833,121.5 99.5,121.5C 99.5,115.833 99.5,110.167 99.5,104.5 Z"/></g>
<g><path style="opacity:1" fill="#ec9f88" d="M 59.5,121.5 C 72.8333,121.5 86.1667,121.5 99.5,121.5C 106.833,121.5 114.167,121.5 121.5,121.5C 121.784,123.415 121.451,125.081 120.5,126.5C 120.5,125.167 120.5,123.833 120.5,122.5C 113.5,122.5 106.5,122.5 99.5,122.5C 85.9895,122.829 72.6562,122.496 59.5,121.5 Z"/></g>
<g><path style="opacity:1" fill="#f1652a" d="M 99.5,122.5 C 106.5,122.5 113.5,122.5 120.5,122.5C 120.5,123.833 120.5,125.167 120.5,126.5C 120.091,132.502 119.591,138.502 119,144.5C 112.533,146.576 106.033,148.576 99.5,150.5C 98.5084,150.672 97.8417,150.338 97.5,149.5C 99.4711,140.895 100.138,131.895 99.5,122.5 Z"/></g>
<g><path style="opacity:1" fill="#e8ac9c" d="M 78.5,131.5 C 72.8333,131.5 67.1667,131.5 61.5,131.5C 61.5,132.833 61.5,134.167 61.5,135.5C 60.5489,134.081 60.2155,132.415 60.5,130.5C 66.69,130.177 72.69,130.51 78.5,131.5 Z"/></g>
<g><path style="opacity:1" fill="#ebe8e7" d="M 78.5,131.5 C 79.3136,136.119 79.6469,140.786 79.5,145.5C 85.5041,146.834 91.5041,148.168 97.5,149.5C 97.8417,150.338 98.5084,150.672 99.5,150.5C 99.5,156.5 99.5,162.5 99.5,168.5C 99.1667,168.5 98.8333,168.5 98.5,168.5C 86.8086,165.493 75.142,162.327 63.5,159C 62.5043,151.245 61.8376,143.412 61.5,135.5C 61.5,134.167 61.5,132.833 61.5,131.5C 67.1667,131.5 72.8333,131.5 78.5,131.5 Z"/></g>
</svg>
