<?xml version="1.0" encoding="UTF-8"?>
<!DOCTYPE svg PUBLIC "-//W3C//DTD SVG 1.1//EN" "http://www.w3.org/Graphics/SVG/1.1/DTD/svg11.dtd">
<svg xmlns="http://www.w3.org/2000/svg" version="1.1" width="1200px" height="648px" style="shape-rendering:geometricPrecision; text-rendering:geometricPrecision; image-rendering:optimizeQuality; fill-rule:evenodd; clip-rule:evenodd" xmlns:xlink="http://www.w3.org/1999/xlink">
<g><path style="opacity:0.989" fill="#adb1d4" d="M 589.5,15.5 C 593.091,22.9417 596.091,30.6084 598.5,38.5C 592.31,38.1771 586.31,38.5104 580.5,39.5C 471.123,39.9169 365.123,58.7502 262.5,96C 215.555,113.8 171.888,137.3 131.5,166.5C 129.848,158.644 128.514,150.644 127.5,142.5C 169.224,113.299 214.224,89.7995 262.5,72C 368.293,34.8143 477.293,15.9809 589.5,15.5 Z"/></g>
<g><path style="opacity:0.995" fill="#a1a5cb" d="M 589.5,15.5 C 604.836,15.7268 620.17,16.0601 635.5,16.5C 635.196,17.1499 634.863,17.8165 634.5,18.5C 637.46,25.4151 640.127,32.4151 642.5,39.5C 621.833,39.5 601.167,39.5 580.5,39.5C 586.31,38.5104 592.31,38.1771 598.5,38.5C 596.091,30.6084 593.091,22.9417 589.5,15.5 Z"/></g>
<g><path style="opacity:0.995" fill="#9498c2" d="M 635.5,16.5 C 651.691,16.877 667.691,17.877 683.5,19.5C 682.761,19.369 682.094,19.5357 681.5,20C 683.927,27.1137 686.26,34.2803 688.5,41.5C 688.376,42.1067 688.043,42.44 687.5,42.5C 672.484,41.4088 657.484,40.4088 642.5,39.5C 640.127,32.4151 637.46,25.4151 634.5,18.5C 634.863,17.8165 635.196,17.1499 635.5,16.5 Z"/></g>
<g><path style="opacity:0.988" fill="#8b8fbb" d="M 683.5,19.5 C 694.945,19.783 706.278,20.783 717.5,22.5C 719.726,29.5654 721.726,36.7321 723.5,44C 723.164,45.0299 722.497,45.5299 721.5,45.5C 710.022,44.4957 698.689,43.4957 687.5,42.5C 688.043,42.44 688.376,42.1067 688.5,41.5C 686.26,34.2803 683.927,27.1137 681.5,20C 682.094,19.5357 682.761,19.369 683.5,19.5 Z"/></g>
<g><path style="opacity:0.986" fill="#7d81b0" d="M 717.5,22.5 C 733.275,23.7636 748.942,25.7636 764.5,28.5C 766.673,36.3653 768.34,44.3653 769.5,52.5C 753.434,49.9237 737.434,47.5904 721.5,45.5C 722.497,45.5299 723.164,45.0299 723.5,44C 721.726,36.7321 719.726,29.5654 717.5,22.5 Z"/></g>
<g><path style="opacity:0.985" fill="#7175a7" d="M 764.5,28.5 C 778.888,30.5091 793.221,32.8425 807.5,35.5C 809.264,43.4179 810.597,51.4179 811.5,59.5C 797.503,57.1673 783.503,54.834 769.5,52.5C 768.34,44.3653 766.673,36.3653 764.5,28.5 Z"/></g>
<g><path style="opacity:1" fill="#777bb3" d="M 580.5,39.5 C 601.167,39.5 621.833,39.5 642.5,39.5C 657.484,40.4088 672.484,41.4088 687.5,42.5C 698.689,43.4957 710.022,44.4957 721.5,45.5C 737.434,47.5904 753.434,49.9237 769.5,52.5C 783.503,54.834 797.503,57.1673 811.5,59.5C 829.088,63.6465 846.755,67.9798 864.5,72.5C 879.405,77.1327 894.405,81.7994 909.5,86.5C 974.511,106.829 1033.18,138.329 1085.5,181C 1106.01,199.492 1123.51,220.325 1138,243.5C 1166.33,293.49 1167.67,344.157 1142,395.5C 1122.89,428.618 1098.05,456.785 1067.5,480C 1014.63,517.598 956.968,545.931 894.5,565C 811.346,589.854 726.346,603.688 639.5,606.5C 637.167,606.5 634.833,606.5 632.5,606.5C 605.498,606.667 578.498,606.5 551.5,606C 537.409,605.711 523.409,604.877 509.5,603.5C 477.618,600.936 445.951,596.936 414.5,591.5C 384.636,586.287 354.97,579.621 325.5,571.5C 265.725,554.579 209.392,529.913 156.5,497.5C 121.406,474.911 91.5724,446.577 67,412.5C 47.7414,383.147 38.5748,350.813 39.5,315.5C 40.2434,300.038 43.2434,285.038 48.5,270.5C 54.1574,255.867 61.4907,242.2 70.5,229.5C 77.1179,220.214 84.1179,211.214 91.5,202.5C 104.497,190.022 117.83,178.022 131.5,166.5C 171.888,137.3 215.555,113.8 262.5,96C 365.123,58.7502 471.123,39.9169 580.5,39.5 Z"/></g>
<g><path style="opacity:0.987" fill="#63679d" d="M 807.5,35.5 C 825.573,39.5183 843.573,43.8516 861.5,48.5C 862.315,56.5385 863.315,64.5385 864.5,72.5C 846.755,67.9798 829.088,63.6465 811.5,59.5C 810.597,51.4179 809.264,43.4179 807.5,35.5 Z"/></g>
<g><path style="opacity:0.985" fill="#565993" d="M 861.5,48.5 C 876.634,52.367 891.634,56.7003 906.5,61.5C 906.911,69.9479 907.911,78.2812 909.5,86.5C 894.405,81.7994 879.405,77.1327 864.5,72.5C 863.315,64.5385 862.315,56.5385 861.5,48.5 Z"/></g>
<g><path style="opacity:0.989" fill="#484c89" d="M 906.5,61.5 C 976.841,82.9967 1040.51,116.497 1097.5,162C 1130.41,189.226 1155.24,222.393 1172,261.5C 1192.65,321.619 1184.65,377.619 1148,429.5C 1123.29,462.544 1093.79,490.377 1059.5,513C 999.348,551.064 934.682,579.064 865.5,597C 776.321,620.147 685.654,631.314 593.5,630.5C 609.117,623.025 624.45,615.025 639.5,606.5C 726.346,603.688 811.346,589.854 894.5,565C 956.968,545.931 1014.63,517.598 1067.5,480C 1098.05,456.785 1122.89,428.618 1142,395.5C 1167.67,344.157 1166.33,293.49 1138,243.5C 1123.51,220.325 1106.01,199.492 1085.5,181C 1033.18,138.329 974.511,106.829 909.5,86.5C 907.911,78.2812 906.911,69.9479 906.5,61.5 Z"/></g>
<g><path style="opacity:1" fill="#fafafb" d="M 540.5,93.5 C 565.836,93.3334 591.169,93.5 616.5,94C 621.267,96.3658 623.934,100.199 624.5,105.5C 620.035,128.491 615.702,151.491 611.5,174.5C 631.503,174.333 651.503,174.5 671.5,175C 688.332,175.959 704.666,179.292 720.5,185C 743.756,195.332 756.923,213.166 760,238.5C 763.238,218.975 767.238,199.642 772,180.5C 773.938,177.894 776.438,176.061 779.5,175C 827.833,174.333 876.167,174.333 924.5,175C 949.191,176.342 971.857,183.675 992.5,197C 1019.75,219.709 1031.58,248.876 1028,284.5C 1023.82,334.038 1001.66,373.205 961.5,402C 938.562,416.088 913.562,423.755 886.5,425C 863.167,425.333 839.833,425.667 816.5,426C 811.418,450.077 806.585,474.243 802,498.5C 800.969,501.539 799.135,504.039 796.5,506C 770.562,507.639 744.562,507.972 718.5,507C 712.934,504.437 710.267,500.104 710.5,494C 714.448,471.26 718.781,448.593 723.5,426C 723.167,425.5 722.833,425 722.5,424.5C 696.543,425.657 670.543,425.824 644.5,425C 638.371,421.577 635.871,416.41 637,409.5C 646,363.167 655,316.833 664,270.5C 664.667,265.5 664.667,260.5 664,255.5C 662.681,253.513 660.848,252.346 658.5,252C 654.558,251.007 650.558,250.34 646.5,250C 629.837,249.5 613.17,249.333 596.5,249.5C 585.4,306.166 574.234,362.833 563,419.5C 561.5,421 560,422.5 558.5,424C 545.258,425.15 531.924,425.65 518.5,425.5C 505.076,425.65 491.742,425.15 478.5,424C 474.778,421.055 472.778,417.222 472.5,412.5C 476.206,393.474 479.706,374.474 483,355.5C 457.483,396.308 420.65,419.141 372.5,424C 346.178,425.035 319.845,425.869 293.5,426.5C 288.477,450.782 283.644,475.115 279,499.5C 277.75,502.171 275.917,504.337 273.5,506C 247.562,507.639 221.562,507.972 195.5,507C 190.446,504.397 187.779,500.231 187.5,494.5C 207.193,393.535 226.693,292.535 246,191.5C 246.377,183.892 249.877,178.392 256.5,175C 303.5,174.333 350.5,174.333 397.5,175C 415.788,175.857 433.454,179.524 450.5,186C 478.513,198.514 496.179,219.681 503.5,249.5C 513.318,201.578 522.818,153.578 532,105.5C 533.107,100.234 535.94,96.2341 540.5,93.5 Z"/></g>
<g><path style="opacity:1" fill="#454545" d="M 611.5,106.5 C 589.092,106.178 566.758,106.511 544.5,107.5C 555.313,106.168 566.479,105.501 578,105.5C 589.338,105.5 600.505,105.833 611.5,106.5 Z"/></g>
<g><path style="opacity:1" fill="#010101" d="M 611.5,106.5 C 605.916,133.421 600.583,160.421 595.5,187.5C 622.169,187.333 648.835,187.5 675.5,188C 693.196,189.255 709.862,193.922 725.5,202C 742.968,215.468 750.134,233.301 747,255.5C 737.163,307.51 727.33,359.51 717.5,411.5C 706.24,412.156 694.907,412.49 683.5,412.5C 672.146,412.499 661.146,411.832 650.5,410.5C 658.676,365.787 667.176,321.12 676,276.5C 677.699,268.125 677.699,259.791 676,251.5C 671.641,243.394 664.808,238.894 655.5,238C 632.169,237.5 608.836,237.333 585.5,237.5C 574.399,296.001 563.066,354.335 551.5,412.5C 529.474,413.156 507.808,412.489 486.5,410.5C 505.319,309.405 524.652,208.405 544.5,107.5C 566.758,106.511 589.092,106.178 611.5,106.5 Z"/></g>
<g><path style="opacity:0.986" fill="#a2a6cc" d="M 127.5,142.5 C 128.514,150.644 129.848,158.644 131.5,166.5C 117.83,178.022 104.497,190.022 91.5,202.5C 88.4993,194.518 86.4993,186.184 85.5,177.5C 98.3068,164.356 112.307,152.69 127.5,142.5 Z"/></g>
<g><path style="opacity:1" fill="#010101" d="M 259.5,187.5 C 307.501,187.333 355.501,187.5 403.5,188C 422.756,189.311 440.756,194.645 457.5,204C 484.703,223.9 496.203,250.733 492,284.5C 487.612,336.835 462.446,375.335 416.5,400C 396.341,408.216 375.341,412.549 353.5,413C 329.836,413.5 306.169,413.667 282.5,413.5C 277.371,440.478 272.371,467.478 267.5,494.5C 245.167,494.5 222.833,494.5 200.5,494.5C 220.074,392.152 239.74,289.818 259.5,187.5 Z"/></g>
<g><path style="opacity:1" fill="#010101" d="M 782.5,187.5 C 830.501,187.333 878.501,187.5 926.5,188C 997.249,196.117 1025.75,235.284 1012,305.5C 1001.49,350.057 975.653,382.224 934.5,402C 916.738,408.356 898.404,412.022 879.5,413C 854.836,413.5 830.169,413.667 805.5,413.5C 800.114,440.432 795.114,467.432 790.5,494.5C 768.167,494.5 745.833,494.5 723.5,494.5C 743.26,392.182 762.926,289.848 782.5,187.5 Z"/></g>
<g><path style="opacity:0.981" fill="#979bc4" d="M 85.5,177.5 C 86.4993,186.184 88.4993,194.518 91.5,202.5C 84.1179,211.214 77.1179,220.214 70.5,229.5C 69.2502,229.423 68.4169,228.756 68,227.5C 65.9618,219.883 63.4618,212.549 60.5,205.5C 68.1203,195.545 76.4536,186.212 85.5,177.5 Z"/></g>
<g><path style="opacity:0.987" fill="#8e92bd" d="M 60.5,205.5 C 63.4618,212.549 65.9618,219.883 68,227.5C 68.4169,228.756 69.2502,229.423 70.5,229.5C 61.4907,242.2 54.1574,255.867 48.5,270.5C 44.0096,261.887 40.1762,252.887 37,243.5C 36.6174,244.056 36.1174,244.389 35.5,244.5C 42.0903,230.304 50.4236,217.304 60.5,205.5 Z"/></g>
<g><path style="opacity:1" fill="#fbfbfb" d="M 317.5,236.5 C 338.836,236.333 360.169,236.5 381.5,237C 392.323,237.941 402.323,241.274 411.5,247C 421.45,257.957 424.95,270.79 422,285.5C 420.526,303.737 415.192,320.737 406,336.5C 399.572,345.93 391.072,352.763 380.5,357C 371.428,360.401 362.094,362.734 352.5,364C 332.503,364.5 312.503,364.667 292.5,364.5C 300.584,321.749 308.917,279.082 317.5,236.5 Z"/></g>
<g><path style="opacity:1" fill="#fafafb" d="M 839.5,236.5 C 861.169,236.333 882.836,236.5 904.5,237C 916.692,237.838 927.525,242.005 937,249.5C 943.536,257.658 946.37,266.992 945.5,277.5C 944.808,299.069 938.975,319.069 928,337.5C 915.616,352.944 899.45,361.444 879.5,363C 858.191,364.346 836.858,364.846 815.5,364.5C 823.63,321.849 831.63,279.182 839.5,236.5 Z"/></g>
<g><path style="opacity:1" fill="#777bb3" d="M 343.5,351.5 C 331.655,351.828 319.988,351.495 308.5,350.5C 314.648,316.467 320.981,282.467 327.5,248.5C 342.504,248.333 357.504,248.5 372.5,249C 383.501,249.333 393.835,252 403.5,257C 406.231,259.626 408.064,262.793 409,266.5C 411.074,289.865 406.074,311.532 394,331.5C 386.255,340.791 376.422,346.625 364.5,349C 357.543,350.245 350.543,351.078 343.5,351.5 Z"/></g>
<g><path style="opacity:1" fill="#777bb3" d="M 867.5,351.5 C 855.12,352.146 843.12,351.479 831.5,349.5C 837.926,315.848 844.26,282.181 850.5,248.5C 866.17,248.333 881.837,248.5 897.5,249C 908.335,249.391 918.335,252.391 927.5,258C 929.936,260.707 931.436,263.873 932,267.5C 934.025,291.05 928.691,312.716 916,332.5C 906.706,342.499 895.206,348.332 881.5,350C 876.844,350.665 872.177,351.165 867.5,351.5 Z"/></g>
<g><path style="opacity:0.988" fill="#8387b5" d="M 48.5,270.5 C 43.2434,285.038 40.2434,300.038 39.5,315.5C 38.6829,317.969 38.1829,320.635 38,323.5C 31.2989,312.761 25.1323,301.761 19.5,290.5C 22.273,274.177 27.6063,258.844 35.5,244.5C 36.1174,244.389 36.6174,244.056 37,243.5C 40.1762,252.887 44.0096,261.887 48.5,270.5 Z"/></g>
<g><path style="opacity:0.993" fill="#767aab" d="M 19.5,290.5 C 25.1323,301.761 31.2989,312.761 38,323.5C 38.1829,320.635 38.6829,317.969 39.5,315.5C 38.5748,350.813 47.7414,383.147 67,412.5C 91.5724,446.577 121.406,474.911 156.5,497.5C 108.576,470.599 67.2425,435.599 32.5,392.5C 31.8933,392.624 31.56,392.957 31.5,393.5C 16.2511,360.432 12.2511,326.099 19.5,290.5 Z"/></g>
<g><path style="opacity:1" fill="#bbbdd9" d="M 308.5,350.5 C 319.988,351.495 331.655,351.828 343.5,351.5C 331.66,352.825 319.66,352.825 307.5,351.5C 307.624,350.893 307.957,350.56 308.5,350.5 Z"/></g>
<g><path style="opacity:1" fill="#bbbdd9" d="M 831.5,349.5 C 843.12,351.479 855.12,352.146 867.5,351.5C 855.345,352.495 843.011,352.829 830.5,352.5C 830.263,351.209 830.596,350.209 831.5,349.5 Z"/></g>
<g><path style="opacity:1" fill="#434343" d="M 486.5,410.5 C 507.808,412.489 529.474,413.156 551.5,412.5C 529.673,413.497 507.673,413.831 485.5,413.5C 485.263,412.209 485.596,411.209 486.5,410.5 Z"/></g>
<g><path style="opacity:1" fill="#454545" d="M 650.5,410.5 C 661.146,411.832 672.146,412.499 683.5,412.5C 694.907,412.49 706.24,412.156 717.5,411.5C 695.191,413.49 672.525,414.156 649.5,413.5C 649.263,412.209 649.596,411.209 650.5,410.5 Z"/></g>
<g><path style="opacity:0.988" fill="#6f73a6" d="M 156.5,497.5 C 209.392,529.913 265.725,554.579 325.5,571.5C 279.795,567.574 235.795,556.74 193.5,539C 179.317,532.74 165.317,526.24 151.5,519.5C 108.887,495.061 73.7203,462.394 46,421.5C 40.3753,412.584 35.542,403.251 31.5,393.5C 31.56,392.957 31.8933,392.624 32.5,392.5C 67.2425,435.599 108.576,470.599 156.5,497.5 Z"/></g>
<g><path style="opacity:0.984" fill="#696da1" d="M 151.5,519.5 C 165.317,526.24 179.317,532.74 193.5,539C 235.795,556.74 279.795,567.574 325.5,571.5C 354.97,579.621 384.636,586.287 414.5,591.5C 386.092,594.96 357.592,595.293 329,592.5C 326.967,592.506 325.134,592.839 323.5,593.5C 274.822,580.551 228.155,562.384 183.5,539C 172.27,533.228 161.603,526.728 151.5,519.5 Z"/></g>
<g><path style="opacity:0.989" fill="#61659c" d="M 414.5,591.5 C 445.951,596.936 477.618,600.936 509.5,603.5C 487.799,610.092 465.799,615.425 443.5,619.5C 402.774,613.648 362.774,604.982 323.5,593.5C 325.134,592.839 326.967,592.506 329,592.5C 357.592,595.293 386.092,594.96 414.5,591.5 Z"/></g>
<g><path style="opacity:0.986" fill="#585c95" d="M 509.5,603.5 C 523.409,604.877 537.409,605.711 551.5,606C 578.498,606.5 605.498,606.667 632.5,606.5C 619.673,607.331 606.673,607.831 593.5,608C 577.952,615.191 562.118,621.691 546,627.5C 544.97,627.836 544.47,628.503 544.5,629.5C 510.763,627.372 477.096,624.039 443.5,619.5C 465.799,615.425 487.799,610.092 509.5,603.5 Z"/></g>
<g><path style="opacity:0.983" fill="#50548f" d="M 632.5,606.5 C 634.833,606.5 637.167,606.5 639.5,606.5C 624.45,615.025 609.117,623.025 593.5,630.5C 577.166,630.193 560.833,629.86 544.5,629.5C 544.47,628.503 544.97,627.836 546,627.5C 562.118,621.691 577.952,615.191 593.5,608C 606.673,607.831 619.673,607.331 632.5,606.5 Z"/></g>
</svg>
